<svg id="OBJECTS" xmlns="http://www.w3.org/2000/svg" viewBox="0 0 685.41 418.44"><defs><style>.cls-1{opacity:0.8;}.cls-2{opacity:0.5;}.cls-3{fill:#ced3e6;}.cls-4{fill:#fff;}.cls-5{fill:#39393b;}.cls-6{fill:#df615c;}.cls-7{fill:#21b573;}.cls-8{fill:#d2dcec;}.cls-9{fill:#ea9b7a;}.cls-10{fill:#a92f4b;}.cls-11{fill:#d46a43;}.cls-12{fill:#faaf3a;}.cls-13{fill:#c77e2e;}.cls-14{fill:#585859;}.cls-15{fill:#084fc7;}.cls-16{fill:#0875f7;}.cls-17{fill:#217c58;}.cls-18{fill:#ebb12b;}.cls-19{fill:#243434;}.cls-20{fill:#564c54;}.cls-21{fill:#dd615c;}</style></defs><g class="cls-1"><g class="cls-2"><path class="cls-3" d="M378.57,168.79a145.87,145.87,0,0,1-66.5-28.18c-29.38-22.17-90.85-59.9-149.49-41.11C81.69,125.42,81.33,200.41,102.4,241.14s170.47,160,364.16,141c173.33-17,207.1-211.39,114.66-246.57C501.05,105.09,473.69,182.84,378.57,168.79Z" transform="translate(-24.12 -45.25)"/></g><g class="cls-2"><ellipse class="cls-3" cx="603.98" cy="94.77" rx="7.52" ry="8.09"/></g><path class="cls-3" d="M137.42,86.73a4.89,4.89,0,0,1,5.46,3c1.38,3.76-2.25,8-7.13,6.08h0C131.54,92.74,133.38,87.48,137.42,86.73Z" transform="translate(-24.12 -45.25)"/><circle class="cls-3" cx="607.58" cy="67.72" r="9.79" transform="translate(105.96 404.21) rotate(-45)"/><g class="cls-1"><path class="cls-3" d="M167.1,79a9.89,9.89,0,1,1-12.19-6.85A9.88,9.88,0,0,1,167.1,79Z" transform="translate(-24.12 -45.25)"/></g><path class="cls-3" d="M558.41,373.66a4.87,4.87,0,0,1,5.92,2c2.06,3.43-.72,8.24-5.87,7.29h0C553.75,380.65,554.57,375.14,558.41,373.66Z" transform="translate(-24.12 -45.25)"/><path class="cls-3" d="M586.13,360.55a9.89,9.89,0,1,1-13.25-4.46A9.89,9.89,0,0,1,586.13,360.55Z" transform="translate(-24.12 -45.25)"/><path class="cls-3" d="M595.16,52.73a6,6,0,1,1-6-6A6,6,0,0,1,595.16,52.73Z" transform="translate(-24.12 -45.25)"/></g><g class="cls-1"><path class="cls-3" d="M611.2,161.84c0-53.8-44.81-112.76-100.56-116.32l-3-.17c-79.93-3.72-86,93.77-158.34,104.76s-127.55-44.51-214.08-8.29C57.53,174.34,36.48,357.11,264.83,364.44,447.53,370.3,611.22,322.37,611.2,161.84Z" transform="translate(-24.12 -45.25)"/></g><ellipse class="cls-3" cx="366.55" cy="375.66" rx="183.75" ry="9.48"/><path class="cls-4" d="M258.13,349.12h212A15.92,15.92,0,0,1,486.05,365v10.56a0,0,0,0,1,0,0H242.21a0,0,0,0,1,0,0V365A15.92,15.92,0,0,1,258.13,349.12Z"/><rect class="cls-4" x="319.25" y="292.38" width="88.39" height="56.74"/><polygon class="cls-3" points="319.25 309.8 407.64 302.73 407.65 292.38 319.26 292.48 319.25 309.8"/><path class="cls-4" d="M576.68,103.31V325.83a11.81,11.81,0,0,1-11.81,11.81H202.49a11.81,11.81,0,0,1-11.81-11.81V103.31A11.81,11.81,0,0,1,202.49,91.5h362.9l.39,0h0l.28,0,.45,0,.3,0,.14,0,.29.06A11.81,11.81,0,0,1,576.68,103.31Z" transform="translate(-24.12 -45.25)"/><circle class="cls-3" cx="387.51" cy="321.66" r="8.16" transform="translate(-140.13 285.93) rotate(-40.78)"/><path class="cls-5" d="M567.25,91.74l-.29-.06-.14,0-.3,0-.45,0-.28,0h0l-.39,0H202.49a11.81,11.81,0,0,0-11.81,11.81V309.38h386V103.31A11.81,11.81,0,0,0,567.25,91.74Zm-5.88,197.05a3.22,3.22,0,0,1-3.21,3.22h-349a3.22,3.22,0,0,1-3.21-3.22V110a3.21,3.21,0,0,1,3.21-3.21h349a3.21,3.21,0,0,1,3.21,3.21Z" transform="translate(-24.12 -45.25)"/><rect class="cls-3" x="181.87" y="61.56" width="355.38" height="185.2" rx="3.21"/><path class="cls-4" d="M561.37,110v16.87H206V110a3.21,3.21,0,0,1,3.21-3.21h349A3.21,3.21,0,0,1,561.37,110Z" transform="translate(-24.12 -45.25)"/><path class="cls-6" d="M533.84,116.58a2.73,2.73,0,1,1-2.73-2.73A2.73,2.73,0,0,1,533.84,116.58Z" transform="translate(-24.12 -45.25)"/><path class="cls-7" d="M542.69,116.58a2.73,2.73,0,1,1-2.73-2.73A2.73,2.73,0,0,1,542.69,116.58Z" transform="translate(-24.12 -45.25)"/><rect class="cls-8" x="212.9" y="68.44" width="282.72" height="5.77" rx="2.43"/><path d="M218.82,116.58v2.67a.49.49,0,0,1-.74.43l-2.31-1.34L213.46,117a.49.49,0,0,1,0-.85l2.31-1.34,2.31-1.34a.5.5,0,0,1,.74.43Z" transform="translate(-24.12 -45.25)"/><path d="M222.89,116.58v2.67a.49.49,0,0,0,.73.43l2.32-1.34,2.31-1.33a.49.49,0,0,0,0-.85l-2.31-1.34-2.32-1.34a.49.49,0,0,0-.73.43Z" transform="translate(-24.12 -45.25)"/><rect class="cls-5" x="545.34" y="115.71" width="6.55" height="1.54" rx="0.65" transform="translate(54.19 376.78) rotate(-45)"/><rect class="cls-5" x="547.85" y="113.21" width="1.54" height="6.55" rx="0.65" transform="translate(54.21 376.82) rotate(-45)"/><rect class="cls-4" x="222.04" y="85.71" width="274.09" height="153.85" rx="6.42"/><rect class="cls-3" x="231.19" y="160" width="69.48" height="39" rx="3.01"/><rect class="cls-3" x="416.17" y="94.87" width="69.48" height="39" rx="3.01"/><rect class="cls-3" x="231.09" y="128" width="69.58" height="3.34" rx="1.6"/><rect class="cls-3" x="231.09" y="113.88" width="69.58" height="3.34" rx="1.6"/><rect class="cls-3" x="231.09" y="142.12" width="69.58" height="3.34" rx="1.6"/><rect class="cls-3" x="416.17" y="161.09" width="69.48" height="3.34" rx="1.6"/><rect class="cls-3" x="416.17" y="146.97" width="69.48" height="3.34" rx="1.6"/><rect class="cls-3" x="416.17" y="175.22" width="69.48" height="3.34" rx="1.6"/><path class="cls-5" d="M246.16,260.92H520.25v22.47a1.42,1.42,0,0,1-1.43,1.42H247.58a1.42,1.42,0,0,1-1.42-1.42Z" transform="translate(-24.12 -45.25)"/><path class="cls-4" d="M500.59,269.78v-2h2.54V266h-3.44a.9.9,0,0,0-.9.9v2.93Z" transform="translate(-24.12 -45.25)"/><path class="cls-4" d="M500.59,273.38h-1.8v3.08a.9.9,0,0,0,.9.9h3.44v-1.8h-2.54Z" transform="translate(-24.12 -45.25)"/><path class="cls-4" d="M508.4,269.78h1.81v-2.93a.9.9,0,0,0-.9-.9H506v1.8h2.4Z" transform="translate(-24.12 -45.25)"/><path class="cls-4" d="M508.4,273.38v2.18H506v1.8h3.31a.9.9,0,0,0,.9-.9v-3.08Z" transform="translate(-24.12 -45.25)"/><rect class="cls-3" x="222.04" y="211.18" width="274.09" height="4.49"/><path class="cls-5" d="M266.07,135.66h3.09v6.77h4.14v2.4h-7.23Z" transform="translate(-24.12 -45.25)"/><path class="cls-5" d="M274.15,135.66h3.1v9.17h-3.1Z" transform="translate(-24.12 -45.25)"/><path class="cls-5" d="M288.54,135.66l-3.88,9.17h-3l-3.88-9.17h3.33l2.19,5.35,2.24-5.35Z" transform="translate(-24.12 -45.25)"/><path class="cls-5" d="M296.47,142.49v2.34h-7.63v-9.17h7.46V138h-4.42v1.07h3.88v2.23h-3.88v1.2Z" transform="translate(-24.12 -45.25)"/><path class="cls-6" d="M261,140.17a3.77,3.77,0,1,1-3.77-3.77A3.77,3.77,0,0,1,261,140.17Z" transform="translate(-24.12 -45.25)"/><path class="cls-6" d="M484.53,241.2a3.31,3.31,0,1,1-3.31-3.32A3.31,3.31,0,0,1,484.53,241.2Z" transform="translate(-24.12 -45.25)"/><path class="cls-6" d="M487.41,249.58H475a6.39,6.39,0,0,1,6.09-3.94h.19A6.41,6.41,0,0,1,487.41,249.58Z" transform="translate(-24.12 -45.25)"/><path class="cls-5" d="M498.83,239.19v2.08l-3.33,7.95h-3.7l3.18-7.41h-1.93v1.46h-2.8v-4.08Z" transform="translate(-24.12 -45.25)"/><path class="cls-5" d="M507.63,246.6v2.62h-8v-2.08l3.63-3.35c.69-.64.79-1,.79-1.37s-.33-.79-1-.79a1.64,1.64,0,0,0-1.47.93L499,241.28a4.6,4.6,0,0,1,4.34-2.32c2.37,0,4,1.23,4,3.14,0,1-.26,1.88-1.72,3.2l-1.43,1.3Z" transform="translate(-24.12 -45.25)"/><ellipse class="cls-3" cx="134.94" cy="410.66" rx="127.36" ry="7.77"/><path class="cls-9" d="M177.65,213l.16.75.12.61.21,1.15c.13.75.25,1.48.36,2.21.21,1.46.39,2.89.55,4.32q.47,4.29.67,8.53t.14,8.49q-.06,4.25-.35,8.48c-.2,2.82-.49,5.63-.85,8.44-.2,1.41-.37,2.81-.61,4.21-.11.7-.22,1.4-.34,2.1l-.39,2.09c-.12.7-.28,1.39-.42,2.09s-.28,1.39-.45,2.08c-.32,1.38-.63,2.77-1,4.14-.18.69-.35,1.38-.54,2.07l-.58,2.05-.15.52-.07.25-.16.53c-.14.49-.3.91-.46,1.34s-.34.82-.51,1.17-.34.71-.52,1l-.27.48-.26.45-.27.44-.27.4c-.17.28-.35.52-.52.77a31.53,31.53,0,0,1-2.06,2.55c-.67.75-1.33,1.41-2,2-1.29,1.24-2.54,2.29-3.77,3.28-2.47,1.95-4.88,3.61-7.28,5.15-4.81,3.07-9.57,5.72-14.38,8.21s-9.61,4.79-14.45,7q-3.64,1.64-7.3,3.2L116,317.21l-1.86.76-1.91.76-8.38-18.94,1.62-.83,1.67-.87,3.36-1.75c2.23-1.17,4.45-2.37,6.66-3.58,4.42-2.42,8.79-4.9,13-7.44,2.12-1.28,4.21-2.58,6.25-3.89s4-2.66,5.91-4,3.66-2.74,5.19-4.08c.76-.67,1.45-1.33,2-1.91a8.18,8.18,0,0,0,1-1.3s0,0,0,0h0l0,0,0,0,0,.05a.72.72,0,0,0-.1.18c0,.06-.09.17-.13.27a4,4,0,0,0-.16.43l0,.12s0,0,0,0v-.05l.05-.22.1-.42.39-1.7c.13-.57.23-1.15.35-1.72.25-1.14.44-2.29.65-3.44.11-.57.19-1.15.28-1.73s.19-1.15.27-1.73c.33-2.31.59-4.64.81-7s.33-4.68.43-7,.1-4.7.06-7-.13-4.69-.29-7-.36-4.66-.64-6.94c-.14-1.14-.3-2.27-.48-3.37-.08-.56-.17-1.1-.26-1.63l-.14-.75-.1-.54Z" transform="translate(-24.12 -45.25)"/><path class="cls-10" d="M149.78,219.49,145,255.6c7.11,4,13.85,6.83,20,8Z" transform="translate(-24.12 -45.25)"/><path class="cls-11" d="M159.89,275.3a.64.64,0,0,1-.3-.08,64.27,64.27,0,0,0-8.84-3.72.63.63,0,1,1,.4-1.2,64.1,64.1,0,0,1,9,3.81.62.62,0,0,1,.26.85A.63.63,0,0,1,159.89,275.3Z" transform="translate(-24.12 -45.25)"/><path class="cls-11" d="M151.3,271.65a.63.63,0,0,1-.07-1.26c2.63-.29,6.08-.31,6.22-.31h0a.64.64,0,0,1,.64.63.64.64,0,0,1-.63.64s-3.53,0-6.09.3Z" transform="translate(-24.12 -45.25)"/><polygon class="cls-9" points="58.71 374.61 52.14 385.33 39.64 379.8 45.31 368.27 58.71 374.61"/><path class="cls-12" d="M24.14,431.14l47.31,20.94a7.11,7.11,0,0,0,1.79-2.35c2.06-3.87,3.62-10.82,4.77-15.13.13-.5.26-1,.39-1.39A14.23,14.23,0,0,1,79,431.5c1.45-3.28-1.71-4-1.71-4-6.86,2.58-9.17-6.86-13.35-5.95,0,0-1.8.37-7,2.09s-12.63,1.12-19.07,1c-8.32-.18-11.61,1.87-12.89,3.72A4,4,0,0,0,24.14,431.14Z" transform="translate(-24.12 -45.25)"/><path class="cls-13" d="M24.14,431.14l47.31,20.94a7.11,7.11,0,0,0,1.79-2.35L24.92,428.34A4,4,0,0,0,24.14,431.14Z" transform="translate(-24.12 -45.25)"/><path class="cls-13" d="M66.62,449.94l1.41.63a11.35,11.35,0,0,1,.81-8.7A14.6,14.6,0,0,1,78,434.6c.13-.5.26-1,.39-1.39a15.85,15.85,0,0,0-10.66,8.1A12.57,12.57,0,0,0,66.62,449.94Z" transform="translate(-24.12 -45.25)"/><path class="cls-4" d="M56.44,426.77a.85.85,0,0,0,.87-1.45l-2.63-2a.85.85,0,0,0-1,1.35l2.63,2A.59.59,0,0,0,56.44,426.77Z" transform="translate(-24.12 -45.25)"/><path class="cls-4" d="M60.47,425.61a.85.85,0,0,0,.87-1.45l-2.63-2a.86.86,0,1,0-1.05,1.35l2.63,2A.81.81,0,0,0,60.47,425.61Z" transform="translate(-24.12 -45.25)"/><path class="cls-4" d="M52.73,427.18a.85.85,0,0,0,.87-1.45l-2.63-2a.86.86,0,1,0-1,1.35l2.63,2A.81.81,0,0,0,52.73,427.18Z" transform="translate(-24.12 -45.25)"/><path class="cls-4" d="M49,427.53a.86.86,0,0,0,.87-1.46l-2.63-2a.86.86,0,0,0-1.05,1.35l2.63,2Z" transform="translate(-24.12 -45.25)"/><path class="cls-4" d="M45.14,427.63a.86.86,0,0,0,1-.26.84.84,0,0,0-.15-1.19l-2.63-2.05a.85.85,0,1,0-1,1.35l2.63,2A.62.62,0,0,0,45.14,427.63Z" transform="translate(-24.12 -45.25)"/><path class="cls-4" d="M41.07,427.38a.85.85,0,0,0,.87-1.45l-2.63-2a.86.86,0,0,0-1.2.15.87.87,0,0,0,.15,1.2l2.64,2A.59.59,0,0,0,41.07,427.38Z" transform="translate(-24.12 -45.25)"/><path class="cls-5" d="M112.2,316.39c4.39-4.32,39-14,62-7.56A29.89,29.89,0,0,1,172,338.64c-30.24,4.94-47.11,15.11-47.11,15.11s-10.72,24.77-17.09,33.86-21,38-21,38l-22-9.4S100.25,328.16,112.2,316.39Z" transform="translate(-24.12 -45.25)"/><path class="cls-14" d="M89.16,420.13a.69.69,0,0,1-.24-.05l-21.54-8.95a.64.64,0,0,1-.34-.83.62.62,0,0,1,.83-.34l21.53,9a.63.63,0,0,1,.35.83A.65.65,0,0,1,89.16,420.13Z" transform="translate(-24.12 -45.25)"/><path class="cls-14" d="M85.54,418.32a.59.59,0,0,1-.23-.05.63.63,0,0,1-.36-.82c0-.11,4.55-11.36,15.06-27.31s21.36-42.62,21.47-42.89a.64.64,0,0,1,1.18.47c-.11.27-11.08,27.17-21.59,43.12s-14.9,27-14.94,27.08A.64.64,0,0,1,85.54,418.32Z" transform="translate(-24.12 -45.25)"/><polygon class="cls-9" points="114.26 376.5 112.59 388.96 98.92 388.96 99.44 376.13 114.26 376.5"/><path class="cls-12" d="M89.28,455.82H141a7.2,7.2,0,0,0,.69-2.88c.32-4.37-1.08-11.36-1.76-15.76-.08-.51-.15-1-.21-1.43a14.19,14.19,0,0,1-.15-1.8c0-3.59-3.18-3-3.18-3-5.24,5.14-11.17-2.56-14.63,0,0,0-1.49,1.07-5.6,4.77s-11.09,6.13-17,8.62c-7.67,3.21-9.85,6.42-10.28,8.62A4.08,4.08,0,0,0,89.28,455.82Z" transform="translate(-24.12 -45.25)"/><path class="cls-13" d="M89.28,455.82H141a7.2,7.2,0,0,0,.69-2.88H88.85A4.08,4.08,0,0,0,89.28,455.82Z" transform="translate(-24.12 -45.25)"/><path class="cls-13" d="M135.74,455.82h1.53a11.36,11.36,0,0,1-2.78-8.29,14.6,14.6,0,0,1,5.45-10.35c-.08-.51-.15-1-.21-1.43a15.85,15.85,0,0,0-6.47,11.72A12.57,12.57,0,0,0,135.74,455.82Z" transform="translate(-24.12 -45.25)"/><path class="cls-4" d="M117.05,438.75a.85.85,0,0,0,.2-1.68l-3.23-.8a.85.85,0,1,0-.41,1.65l3.23.81Z" transform="translate(-24.12 -45.25)"/><path class="cls-4" d="M120.26,436.06a.85.85,0,0,0,.21-1.68l-3.24-.8a.84.84,0,0,0-1,.62.85.85,0,0,0,.62,1l3.23.8A.76.76,0,0,0,120.26,436.06Z" transform="translate(-24.12 -45.25)"/><path class="cls-4" d="M113.82,440.63A.85.85,0,0,0,114,439l-3.23-.8a.85.85,0,0,0-.41,1.65l3.23.8Z" transform="translate(-24.12 -45.25)"/><path class="cls-4" d="M110.59,442.44a.85.85,0,0,0,.2-1.68l-3.23-.81a.85.85,0,0,0-.41,1.66l3.23.8Z" transform="translate(-24.12 -45.25)"/><path class="cls-4" d="M107.06,444.11a.86.86,0,0,0,.83-.65.85.85,0,0,0-.62-1l-3.24-.81a.85.85,0,0,0-.41,1.66l3.24.8A.64.64,0,0,0,107.06,444.11Z" transform="translate(-24.12 -45.25)"/><path class="cls-4" d="M103.24,445.53a.85.85,0,0,0,.2-1.68l-3.23-.8a.84.84,0,0,0-1,.62.85.85,0,0,0,.62,1l3.23.8Z" transform="translate(-24.12 -45.25)"/><path class="cls-6" d="M242,318.64c0,.21-.05.41-.08.6s-.21.16-.31.24a72.34,72.34,0,0,1-27,12.59l-1,.24c-1.65.37-3.3.7-4.94,1-2.23.37-4.46.66-6.68.85-2,.17-3.9.27-5.82.31a71.62,71.62,0,0,1-22.77-3.05l-.76-.24a44.93,44.93,0,0,1-5-2l-.71-.33c-1-.48-1.9-1-2.78-1.52.13-3.19.17-7,.14-11.09,0-.34,0-.68,0-1-.05-5.68-.23-11.81-.45-17.41,0-.27,0-.53,0-.79-.12-2.93-.26-5.71-.38-8.19,0-.26,0-.53-.05-.78-.11-2.09-.22-4-.32-5.48,0-.39,0-.78-.08-1.16l-.06-.89h0c-.08-1.08-.17-2.13-.26-3.17-.14-1.66-.3-3.27-.47-4.83-.2-1.79-.41-3.52-.63-5.2s-.5-3.53-.77-5.21-.6-3.51-.91-5.16c-1.11-5.83-2.36-10.82-3.61-15.14-.09-.29-.18-.58-.26-.87-.51-1.72-1-3.31-1.51-4.81-.11-.33-.22-.65-.32-1-2.78-8.25-5.08-13.23-5.12-16.57-.08-6.95,5-9.18,10.3-12l.75-.4c.89-.48,1.78-1,2.65-1.54a12.66,12.66,0,0,0,1.08-.72c.25-.17.49-.35.72-.52a15.74,15.74,0,0,0,5.14-6.53l20-4.22a28.15,28.15,0,0,0,5.13,1.85l.94.24c.37.09.77.18,1.18.25.25.06.51.1.78.15l.62.11a38.13,38.13,0,0,0,6.65.44l.77,0,.54,0a13.72,13.72,0,0,1,4.88.63h0c.3.1.6.2.89.32,6.5,2.6,11.62,10.38,14.94,22.33.92,3.32,1.83,6.55,2.71,9.72l.28,1c.2.69.38,1.38.57,2.07h0c.07.25.13.5.2.75.68,2.46,1.34,4.87,2,7.26h0c.06.25.13.51.2.76h0c0,.14.08.27.11.4l.36,1.4a226.46,226.46,0,0,1,5.26,25.1c.25,1.72.47,3.46.66,5.2,0,.42.09.89.14,1.42,0,.09,0,.19,0,.29s0,.36.05.55l0,.28c.32,3.15.74,7.52,1.14,12.32,0,.25,0,.51.07.77C241.86,299.46,242.69,312.78,242,318.64Z" transform="translate(-24.12 -45.25)"/><path class="cls-10" d="M181.07,208.66c8-1.69,12.32-11.7,12.51-12.13a.58.58,0,0,0-1.06-.45c0,.11-4.43,10.29-12.15,11.54s-10.61-4.35-10.73-4.59a.57.57,0,0,0-.77-.24.58.58,0,0,0-.25.77,11.25,11.25,0,0,0,11.94,5.19Z" transform="translate(-24.12 -45.25)"/><path class="cls-10" d="M189.18,315.1c7.53-1.59,15.3-5.45,23.06-11.52A100.74,100.74,0,0,0,230,285.49a.58.58,0,0,0-.13-.8.58.58,0,0,0-.8.13,99.59,99.59,0,0,1-17.52,17.88c-9.67,7.54-24.44,15.5-40,10.54a.57.57,0,0,0-.35,1.09A34.77,34.77,0,0,0,189.18,315.1Z" transform="translate(-24.12 -45.25)"/><path class="cls-10" d="M184.68,309.36h0c11.71-2.67,18-20.35,18.27-21.1a.57.57,0,0,0-.35-.73.56.56,0,0,0-.73.35c-.06.18-6.35,17.83-17.44,20.36a.57.57,0,0,0,.24,1.12Z" transform="translate(-24.12 -45.25)"/><path class="cls-10" d="M163.05,281.4a17.56,17.56,0,0,0,3.9-3.65c2.61-3.4,3-6.88,1-9.8l-1.1-1.61c-4-5.88-4.45-6.49-4.1-16.16.11-3-.74-5.44-2.54-7.11a9.66,9.66,0,0,0-4.11-2.15c.09.29.17.58.26.87a8.53,8.53,0,0,1,3.33,1.85,8.05,8.05,0,0,1,2.3,6.51c-.36,9.92.16,10.68,4.23,16.62l1.1,1.61c2.4,3.53.43,7.1-1,8.91A16.2,16.2,0,0,1,163,280.5h0C163,280.8,163,281.1,163.05,281.4Z" transform="translate(-24.12 -45.25)"/><path class="cls-10" d="M239.72,275.17a15.07,15.07,0,0,1-4.51,1.79,10.1,10.1,0,0,1-9.43-2.54,7.64,7.64,0,0,1-.51-10.61c3-3.41,1.7-5.23.08-7.52s-3.59-5.08-1.52-10a10,10,0,0,1,5.44-5.78,10.26,10.26,0,0,1,3.6-.72c.06.25.13.51.2.76a9.75,9.75,0,0,0-3.52.67,9.3,9.3,0,0,0-5,5.37c-1.9,4.55-.2,7,1.45,9.29s3.25,4.6-.13,8.46a6.81,6.81,0,0,0,.47,9.57c2.81,2.83,7.79,3.8,13.32.46,0,.18,0,.36.05.55Z" transform="translate(-24.12 -45.25)"/><path class="cls-10" d="M187.48,278.05a8.73,8.73,0,0,0,9.94,3.79,17.18,17.18,0,0,0,1.8-.65c4.91-2.1,10.57-7.05,12.74-12.81a14.29,14.29,0,0,0-1.49-13.14c-3.92-6.14-6.19-11.85-6.57-16.49a6.05,6.05,0,0,0-11.39-2.32l-.21.39c-3.3,6.44-1.33,11.1.41,15.21,1.83,4.29,3.4,8-1.58,12.83C186.6,269.25,185.24,274.18,187.48,278.05Zm4.18-12.64c5.36-5.19,3.6-9.32,1.75-13.68-1.75-4.15-3.57-8.44-.43-14.56l.2-.39a5.21,5.21,0,0,1,5.75-2.72,5.2,5.2,0,0,1,4.21,4.75,28.58,28.58,0,0,0,2.39,8.85,55.68,55.68,0,0,0,4.3,8,13.38,13.38,0,0,1,1.41,12.47c-2.35,6.25-9,11.52-14,13a7.94,7.94,0,0,1-9-3.45C186.09,274.12,187.4,269.54,191.66,265.41Z" transform="translate(-24.12 -45.25)"/><path class="cls-10" d="M154.25,235.14c.11.32.21.64.32,1a12.14,12.14,0,0,0,7.1.61,13.92,13.92,0,0,0,2.57-.82c4.89-2.11,8.21-6.64,8.13-9.38a2.17,2.17,0,0,0-1.45-2.11c-5.26-1.92-7.41-5.39-8.21-13.28a6.85,6.85,0,0,0-2.53-4.95l-.75.4.19.13A6.09,6.09,0,0,1,162,211.2c.84,8.25,3.11,11.89,8.7,13.93a1.39,1.39,0,0,1,1,1.41c.07,2.49-3.19,6.72-7.67,8.66A11.71,11.71,0,0,1,154.25,235.14Z" transform="translate(-24.12 -45.25)"/><path class="cls-10" d="M181.4,236.4a4.16,4.16,0,0,0,4,1.09,5.15,5.15,0,0,0,1.47-.55c2.42-1.34,3.32-4.14,2.41-7.48s.86-5.15,2.61-6.76c1.53-1.41,3.12-2.88,1.87-5.38a4.78,4.78,0,0,0-5.12-2.6,8.27,8.27,0,0,0-6.59,4.62C179.78,223.77,177.63,232.32,181.4,236.4Zm1.3-16.72a7.72,7.72,0,0,1,5.2-4.08,7,7,0,0,1,.78-.11,4,4,0,0,1,4.37,2.17c1,2-.14,3-1.71,4.48-1.74,1.6-3.9,3.59-2.82,7.52.81,3,0,5.45-2,6.61a3.79,3.79,0,0,1-4.52-.38C178.46,232.09,180.55,223.93,182.7,219.68Z" transform="translate(-24.12 -45.25)"/><path class="cls-10" d="M170.15,263.47c.42,2,1.24,3.66,2.64,4.48a8.48,8.48,0,0,0,5.68,1.39,3,3,0,0,0,1.63-.87c1.23-1.33.83-3.72-1.13-6.55-2.26-3.29-.27-5.38,1.83-7.6,1.8-1.89,3.65-3.84,2.61-6.51-.75-1.92-2.47-2.81-5-2.59a9.29,9.29,0,0,0-8.25,8.05A32.32,32.32,0,0,0,170.15,263.47Zm.79-10.1a8.67,8.67,0,0,1,2.2-4.71,8.36,8.36,0,0,1,4.41-2.54c.31-.06.63-.11.95-.14,2.19-.19,3.57.49,4.19,2.11.87,2.22-.73,3.91-2.44,5.71-2.12,2.22-4.52,4.76-1.91,8.55,1.74,2.52,2.17,4.56,1.19,5.6s-3.7.9-6.35-.66C170.74,265.86,169.94,260.91,170.94,253.37Z" transform="translate(-24.12 -45.25)"/><path class="cls-10" d="M163.91,297.8c3.07-1.11,4.1.43,5.59,2.65,1.34,2,3,4.47,6.74,5.35a8.26,8.26,0,0,0,3.63.05,9.82,9.82,0,0,0,6.65-5.4c1.59-3.39.89-6.78-1.84-8.83a4.24,4.24,0,0,1-1.92-2.59c-.16-1.2.74-2.36,1.7-3.59,1.33-1.71,2.83-3.65,1.68-6.12a5.54,5.54,0,0,0-4.82-3.27c-3.66-.27-7.76,2.21-10.45,6.3a13.37,13.37,0,0,1-7.42,5.69c0,.26,0,.52.05.78a14.18,14.18,0,0,0,8-6.05,13,13,0,0,1,7.71-5.81,7.15,7.15,0,0,1,2.05-.15,4.8,4.8,0,0,1,4.18,2.83c1,2.05-.28,3.64-1.59,5.33-1,1.3-2.06,2.64-1.86,4.16a5,5,0,0,0,2.22,3.1c2.9,2.18,2.73,5.51,1.61,7.9-1.5,3.19-5.22,5.92-9.42,4.93-3.44-.81-4.94-3.05-6.27-5-1.49-2.22-2.8-4.17-6.26-3Z" transform="translate(-24.12 -45.25)"/><path class="cls-10" d="M202.79,288.53a3.1,3.1,0,0,0,2.23,2.56,4.55,4.55,0,0,0,2.08,0A9.61,9.61,0,0,0,212,288c1.52-1.72,3-1.51,5.14-1.2a12.78,12.78,0,0,0,7.82-.82,5.74,5.74,0,0,0,3.24-7.5,5,5,0,0,0-6.39-3.13,15.86,15.86,0,0,0-5,2.89c-2,1.54-3.69,2.87-7.59,2.63a5.67,5.67,0,0,0-4.61,1.55c-2.16,2.21-1.87,5.95-1.86,6.11A.08.08,0,0,1,202.79,288.53Zm.75-.12c0-.29-.19-3.61,1.65-5.5a4.89,4.89,0,0,1,4-1.31c4.19.25,6.09-1.23,8.1-2.8a15.13,15.13,0,0,1,4.78-2.77,4.28,4.28,0,0,1,5.44,2.68,5,5,0,0,1-2.84,6.54,11.88,11.88,0,0,1-7.4.75,9.48,9.48,0,0,0-3.3-.1,4.48,4.48,0,0,0-2.52,1.55c-1.93,2.18-4.5,3.38-6.25,2.91A2.34,2.34,0,0,1,203.54,288.41Z" transform="translate(-24.12 -45.25)"/><path class="cls-10" d="M236.27,306.93c-2.63,4.34-1.52,9.17,1.07,11.34a5.33,5.33,0,0,0,4.3,1.21,3.65,3.65,0,0,0,.31-.24c0-.19.06-.39.08-.6a4.61,4.61,0,0,1-4.2-1c-2.34-2-3.32-6.37-.91-10.35s.52-5.29-1.52-6.61c-1.88-1.22-3.82-2.48-3.53-6.1a5.92,5.92,0,0,1,2.16-4.28A9.38,9.38,0,0,1,238,288.6a17.24,17.24,0,0,1,3-.34c0-.26,0-.52-.07-.77-2.17.08-5.19.53-7.31,2.26a6.6,6.6,0,0,0-2.44,4.8c-.33,4.09,2,5.59,3.87,6.81C237,302.66,238.33,303.53,236.27,306.93Z" transform="translate(-24.12 -45.25)"/><path class="cls-10" d="M172.7,331.15l.76.25a7.93,7.93,0,0,1,2.06-5.4c1.46-1.42,3.64-2,6.47-1.66a10.92,10.92,0,0,1,7,3.36c2.53,2.32,4.28,3.42,10.89-.89a20.37,20.37,0,0,1,6.87-3c3.28-.69,5.8,0,7.12,1.34,1.63,1.68,1.54,4.32-.19,7.19l1-.24c1.57-2.94,1.49-5.67-.27-7.48-2.35-2.42-8-2.95-15,1.57-6.43,4.21-7.76,3-9.95,1a11.7,11.7,0,0,0-7.42-3.56c-3.08-.34-5.47.29-7.1,1.87A8.56,8.56,0,0,0,172.7,331.15Z" transform="translate(-24.12 -45.25)"/><path class="cls-10" d="M215.63,318.85c1,2,4.11,3.74,7.06,3.12l.39-.09c4.5-1.28,7.09-4.92,7.29-10.27.15-4.14-.23-8.2-4.07-10l-.06,0c-.18,0-4.42-1.07-7.06.72a4.59,4.59,0,0,0-2,3.38,8.5,8.5,0,0,0,1,5.4c.72,1.44,1,2.1-1.16,3.6C215.45,315.84,214.92,317.35,215.63,318.85Zm1.88-3.49c2.62-1.79,2.24-2.9,1.42-4.57a7.77,7.77,0,0,1-1-5,3.91,3.91,0,0,1,1.64-2.85c2.25-1.52,6-.71,6.41-.62,2.74,1.27,3.78,3.95,3.58,9.22-.13,3.53-1.4,8.06-6.73,9.56-2.65.75-5.7-.79-6.55-2.61C215.77,317.36,216.18,316.27,217.51,315.36Z" transform="translate(-24.12 -45.25)"/><path class="cls-10" d="M167,328.83l.71.34a7.38,7.38,0,0,0,1.94-6c-.49-3.46-3.39-6.36-5.3-7.92,0,.34,0,.68,0,1,1.79,1.57,4.12,4.11,4.54,7a6.77,6.77,0,0,1-1.83,5.52Z" transform="translate(-24.12 -45.25)"/><path class="cls-5" d="M152.28,162.43s-11.35-2.4-11.62-6.73c-.24-4,4.48-3.58,4.48-3.58s-5.51-9-2.35-10.81,7.15,3.29,7.15,3.29-2.89-10.72,1-9.95,4.36,6.66,4.36,6.66,12.83-4.57,20.12-2.38a9.34,9.34,0,0,1,6.14,6.28s2.95-1.76,5.05-.68.18,4.76.18,4.76a6.53,6.53,0,0,1,2.25,6.45c-1,4-3.82,11.78-3.82,11.78Z" transform="translate(-24.12 -45.25)"/><path class="cls-9" d="M168.3,193.93l1.1,5.22a16.61,16.61,0,0,0,2.12.9c10.2,3.53,18.55-5.26,18.55-5.26l-3.81-18.08-15.82,15.17Z" transform="translate(-24.12 -45.25)"/><path class="cls-5" d="M168.3,193.93l1.1,5.22a16.61,16.61,0,0,0,2.12.9c7.06-4.68,11-14,11-14l-12.05,5.78Z" transform="translate(-24.12 -45.25)"/><path class="cls-5" d="M158.26,151.7s-12.35,3.84-5,16.06C153.23,167.76,159.27,155.08,158.26,151.7Z" transform="translate(-24.12 -45.25)"/><path class="cls-11" d="M156.91,172.19s-3.7-2.87-4.64,1,1.85,10.66,6.11,8.55Z" transform="translate(-24.12 -45.25)"/><path class="cls-9" d="M156.34,185.13s2.25,10.79,13.46,8.4S186.7,180.8,187,180.32v0l-.36-2.29-1.84-11.89-1-6.36s-1-11.62-12.15-11.42c-8.18.15-15.28,3-18.13,7.89a9.81,9.81,0,0,0-1.27,6.2l2,11.36.5,2.79Z" transform="translate(-24.12 -45.25)"/><path class="cls-5" d="M179.21,167.52s-1.65,6.63-5.3,6.32-7.71.1-10.52,2.22c0,0-5.65-.85-8.32,2-1.79,1.88,2.42,15.94,10.23,16.45s17.2-4.18,18.13-11.64a41.55,41.55,0,0,0-.47-13.35Z" transform="translate(-24.12 -45.25)"/><path class="cls-4" d="M161.09,179.21s6.31-.64,9.4-2.41c0,0,1.39,6.16-4,6.69C162.26,183.91,161.09,179.21,161.09,179.21Z" transform="translate(-24.12 -45.25)"/><path class="cls-11" d="M169.23,172.1c.17.78,1.92,1.08,3.91.66s3.48-1.4,3.31-2.18-1.91-1.08-3.91-.66S169.07,171.31,169.23,172.1Z" transform="translate(-24.12 -45.25)"/><path class="cls-11" d="M154.81,176.58c.28,0,.58-.08.88-.14,2-.42,3.47-1.4,3.31-2.19s-1.92-1.08-3.91-.66l-.78.2Z" transform="translate(-24.12 -45.25)"/><path class="cls-5" d="M168.44,167.75c.23,1.08.9,1.85,1.5,1.72s.91-1.1.68-2.18-.9-1.85-1.5-1.72S168.21,166.67,168.44,167.75Z" transform="translate(-24.12 -45.25)"/><path class="cls-5" d="M157.77,170c.23,1.08.9,1.85,1.51,1.72s.9-1.1.68-2.18-.9-1.85-1.51-1.72S157.54,168.92,157.77,170Z" transform="translate(-24.12 -45.25)"/><path class="cls-5" d="M164.4,174.27a.45.45,0,1,0-.19-.88,3.1,3.1,0,0,1-2.9-.68c1-4,2-8.07,2-8.11a.46.46,0,0,0-.33-.55.45.45,0,0,0-.55.34s-1,4.24-2,8.34a.43.43,0,0,0,.07.38A3.88,3.88,0,0,0,164.4,174.27Z" transform="translate(-24.12 -45.25)"/><path class="cls-5" d="M172.79,161.67c-.48-1.09-1.88-3-5.55-2.42a1,1,0,0,0-.82.9h0a1,1,0,0,0,1,1,4.35,4.35,0,0,1,3.64,1.61,1,1,0,0,0,1.43.07l.09-.09A1,1,0,0,0,172.79,161.67Z" transform="translate(-24.12 -45.25)"/><path class="cls-5" d="M154.14,165.6c0-1.19.51-3.53,4.11-4.46a1,1,0,0,1,1.11.5h0a1,1,0,0,1-.49,1.35,4.36,4.36,0,0,0-2.69,2.94,1,1,0,0,1-1.27.64l-.12,0A1,1,0,0,1,154.14,165.6Z" transform="translate(-24.12 -45.25)"/><path class="cls-5" d="M182.57,176.68c.08.11,2.19,3.1,4.44,3.64v0l-.36-2.29A8,8,0,0,1,182.57,176.68Z" transform="translate(-24.12 -45.25)"/><path class="cls-9" d="M183,168.78s3.09-6.7,7.21-2.82c3.39,3.2.53,14-5.33,11.75Z" transform="translate(-24.12 -45.25)"/><path class="cls-5" d="M185.08,175.84a.44.44,0,0,0,.35-.49,7.6,7.6,0,0,1,3-6.88.45.45,0,1,0-.5-.75,8.47,8.47,0,0,0-3.45,7.72.46.46,0,0,0,.5.41Z" transform="translate(-24.12 -45.25)"/><path class="cls-5" d="M188.65,172.28A.46.46,0,0,0,189,172a.45.45,0,0,0-.2-.61c-.2-.1-2.06-1-3.32-.4a.45.45,0,1,0,.4.81,3.63,3.63,0,0,1,2.51.4A.45.45,0,0,0,188.65,172.28Z" transform="translate(-24.12 -45.25)"/><path class="cls-5" d="M153.55,156.23a2,2,0,0,0,.69.86c2.66,1.83,7.64-.07,12.1-2.55a8.57,8.57,0,0,1,8.55.28c-.37,4.85,4.21,4.27,4,7.94a28.21,28.21,0,0,0,1.1,8.15l2.72-1a7,7,0,0,1,2.13-3.83l-1-6.36s-1-11.62-12.16-11.42C163.5,148.49,156.4,151.34,153.55,156.23Z" transform="translate(-24.12 -45.25)"/><path class="cls-5" d="M237.09,309.18s10.68,42.13-44.69,42.13c-29.57,0-43.63-2.86-43.63-2.86s-.71,26.12-2.08,37.13-6.25,38.47-6.25,38.47l-23.29,1.8s-3.73-95.6,10.55-104.4,34.8-9.07,70-12.45C197.74,309,229.38,303.65,237.09,309.18Z" transform="translate(-24.12 -45.25)"/><path class="cls-14" d="M137.25,416.41a.39.39,0,0,1-.15,0,.63.63,0,0,1-.47-.76c3.22-13.45,4.5-32.71,5.53-48.19,1-15.26,1.61-23.29,3.2-24.69,1.75-1.55,6.93-1,15.52-.08,10.65,1.13,26.74,2.84,44.08.85,8.62-1,15.22-4.36,19.63-10,7.92-10.16,6.1-24.43,6.08-24.58a.64.64,0,0,1,1.26-.17c.08.61,1.91,14.93-6.33,25.52-4.63,5.95-11.52,9.49-20.49,10.52-17.49,2-33.66.29-44.36-.85-7.39-.79-13.22-1.41-14.55-.23-.3.26-.9,1.57-1.52,7.36-.45,4.28-.83,9.93-1.26,16.46-1,15.53-2.31,34.85-5.56,48.4A.63.63,0,0,1,137.25,416.41Z" transform="translate(-24.12 -45.25)"/><path class="cls-14" d="M117.4,418.31a.63.63,0,0,1,0-1.26l23.82-1.44a.63.63,0,0,1,.08,1.26l-23.82,1.44Z" transform="translate(-24.12 -45.25)"/><rect class="cls-3" x="87.3" y="266.82" width="70.35" height="9.17" rx="0.29"/><path class="cls-4" d="M104.07,321.24a5.84,5.84,0,0,1-5.64-4.34L85.27,267.63a4.74,4.74,0,0,1,4.58-6h31.5a4.73,4.73,0,0,1,4.56,3.46l15.76,56.11Z" transform="translate(-24.12 -45.25)"/><path class="cls-3" d="M125.92,265.13l15.63,55.64h3.59l-15.63-55.64a4.74,4.74,0,0,0-4.56-3.47h-3.6A4.76,4.76,0,0,1,125.92,265.13Z" transform="translate(-24.12 -45.25)"/><path class="cls-3" d="M117,292.25a4.31,4.31,0,0,1-4.31,5.6,7.49,7.49,0,0,1-6.9-5.6,4.32,4.32,0,0,1,4.31-5.6A7.49,7.49,0,0,1,117,292.25Z" transform="translate(-24.12 -45.25)"/><path class="cls-9" d="M160,301.16s-14.28,1-18.84,5.35l2.77,9.88s8.54-3.49,10.91-3.15,3.77,4.22,11.68,1.86Z" transform="translate(-24.12 -45.25)"/><path class="cls-9" d="M160.05,300.51l1.61-.65,1.68-.71c1.11-.47,2.23-1,3.34-1.45,2.23-1,4.45-2,6.64-3.07,4.39-2.11,8.7-4.34,12.86-6.72a124.74,124.74,0,0,0,11.83-7.6c.91-.68,1.81-1.36,2.67-2.06s1.69-1.4,2.49-2.11a37.47,37.47,0,0,0,4.14-4.3,18.59,18.59,0,0,0,1.42-2,13.06,13.06,0,0,0,.93-1.91A24,24,0,0,0,211,263a50.27,50.27,0,0,0,.23-12.28A99.47,99.47,0,0,0,209,237.37c-.51-2.24-1.09-4.48-1.72-6.69-.31-1.11-.64-2.21-1-3.29-.17-.55-.34-1.08-.52-1.61l-.27-.77-.13-.37-.06-.17,0-.08v0a12.62,12.62,0,0,1,22.75-10.91,13.22,13.22,0,0,1,.72,1.86l.38,1.31.1.34.08.29.14.53.28,1c.17.69.34,1.37.5,2,.31,1.35.61,2.69.89,4,.55,2.69,1,5.38,1.45,8.1A123.15,123.15,0,0,1,234,249.69a83.43,83.43,0,0,1-.32,8.74,62.63,62.63,0,0,1-1.48,9.1A44.4,44.4,0,0,1,228.8,277a35.37,35.37,0,0,1-2.82,4.65,42.12,42.12,0,0,1-3.25,3.91,57.68,57.68,0,0,1-6.83,6.1c-2.31,1.78-4.64,3.37-7,4.84a142.72,142.72,0,0,1-14.25,7.73c-4.79,2.28-9.61,4.34-14.47,6.25-2.44.95-4.88,1.87-7.33,2.74-1.23.44-2.46.87-3.7,1.29l-1.87.63-1.95.63a8.05,8.05,0,0,1-5.54-15.11Z" transform="translate(-24.12 -45.25)"/><path class="cls-11" d="M218.48,273.4a.32.32,0,0,1-.14,0A36.2,36.2,0,0,0,208,272.14a.5.5,0,0,1,0-1,36.5,36.5,0,0,1,10.69,1.28.49.49,0,0,1,.34.62A.51.51,0,0,1,218.48,273.4Z" transform="translate(-24.12 -45.25)"/><path class="cls-11" d="M209.2,272.13a.5.5,0,0,1-.32-.88,12.76,12.76,0,0,1,4.19-2.29.49.49,0,0,1,.62.34.5.5,0,0,1-.33.62,11.93,11.93,0,0,0-3.83,2.08A.46.46,0,0,1,209.2,272.13Z" transform="translate(-24.12 -45.25)"/><path class="cls-6" d="M236.28,241.56l-10.35,2.84-.76.21-7.15,2-.87.24-9.2,2.52-.71-3.26-.16-.79-1.66-7.66-.17-.76-3.13-14.45a30.61,30.61,0,0,1-.94-10.93,14.18,14.18,0,0,1,13.29-12,10.19,10.19,0,0,1,4.11.61,5.57,5.57,0,0,1,.77.3,16.43,16.43,0,0,1,6.45,5.83c.15.21.29.42.42.64,3.5,5.32,5.89,12.76,7.49,19.71.07.28.13.55.19.82.74,3.31,1.3,6.5,1.72,9.26q.1.63.18,1.26C236,239.24,236.16,240.48,236.28,241.56Z" transform="translate(-24.12 -45.25)"/><path class="cls-10" d="M235.62,236.61a6,6,0,0,0-5.45-1.45c-3,.54-5.43-.43-6.39-2.63a3.77,3.77,0,0,1,.78-4.45c2.34-1.8,5.93-1.65,9.34-.73-.06-.27-.12-.54-.19-.82-3.5-.88-7.16-.94-9.62.94a4.2,4.2,0,0,0-1.43,3.86,5.63,5.63,0,0,0,.41,1.52c1.12,2.53,3.83,3.68,7.24,3.06a5.34,5.34,0,0,1,5.49,2Q235.73,237.24,235.62,236.61Z" transform="translate(-24.12 -45.25)"/><path class="cls-10" d="M224.81,214c-2.12-3.07-.53-5.1,1.41-7.16-.13-.22-.27-.43-.42-.64-2.05,2.15-4.12,4.62-1.62,8.23,1.73,2.52,2.16,4.56,1.19,5.61s-3.71.89-6.36-.66c-2.44-1.45-3.23-6.38-2.24-13.92a8.61,8.61,0,0,1,2.2-4.71l.38-.38a5.57,5.57,0,0,0-.77-.3,9.33,9.33,0,0,0-2.57,5.28,32.93,32.93,0,0,0,0,10.2c.43,2,1.24,3.66,2.64,4.49a8.55,8.55,0,0,0,5.68,1.39,3,3,0,0,0,1.63-.88C227.17,219.2,226.76,216.82,224.81,214Z" transform="translate(-24.12 -45.25)"/><path class="cls-10" d="M205.44,237c-1.7-10.11-3.85-19.57-3.87-19.67a.38.38,0,1,0-.74.16c0,.11,2.16,9.51,3.86,19.57C204.8,237.41,205.44,237.43,205.44,237Z" transform="translate(-24.12 -45.25)"/><path class="cls-10" d="M202.7,224.75a.36.36,0,0,1-.2-.06l-3.9-2.5a.37.37,0,0,1-.12-.52.38.38,0,0,1,.52-.11l3.9,2.5a.37.37,0,0,1,.12.52A.39.39,0,0,1,202.7,224.75Z" transform="translate(-24.12 -45.25)"/><path class="cls-4" d="M177.42,225.83a5.37,5.37,0,0,1-3.61-1.43c-6.16-5.43-6.14-25.17-6.13-26a.72.72,0,0,1,.72-.72h0a.72.72,0,0,1,.71.72c0,.2,0,19.92,5.65,24.93a3.9,3.9,0,0,0,3.23,1c7.58-1,11-23.09,11.73-31.52a.71.71,0,0,1,.77-.65.72.72,0,0,1,.66.77,122.77,122.77,0,0,1-2.51,15.71c-2.55,10.77-6.07,16.53-10.47,17.11A4.73,4.73,0,0,1,177.42,225.83Z" transform="translate(-24.12 -45.25)"/><path class="cls-15" d="M234.75,410.21H160a3.17,3.17,0,1,1,0-6.33h74.78a3.17,3.17,0,1,1,0,6.33Z" transform="translate(-24.12 -45.25)"/><path class="cls-16" d="M153.09,458.58l-.42,0A3.17,3.17,0,0,1,150,455l13.62-101.71a3.17,3.17,0,0,1,3.14-2.75h61a3.17,3.17,0,0,1,3.14,2.76L244.27,455a3.17,3.17,0,1,1-6.28.83l-13.05-98.95H169.48l-13.25,99A3.17,3.17,0,0,1,153.09,458.58Z" transform="translate(-24.12 -45.25)"/><path class="cls-16" d="M184.38,353.71H224c12.55,0,26-6.87,27.92-19.27a235.1,235.1,0,0,0,2.5-47.39c-.82-16.67-7.29-32.15-20.4-42.48h0s5.66,64.29.56,82.06C227.76,350.36,184.38,353.71,184.38,353.71Z" transform="translate(-24.12 -45.25)"/><path class="cls-16" d="M63.12,221.3v19a4.55,4.55,0,0,0,4.55,4.55h34.54l10.43,3.74a1.32,1.32,0,0,0,1.68-1.72l-3.94-10.19V221.3a4.56,4.56,0,0,0-4.56-4.56H67.67A4.56,4.56,0,0,0,63.12,221.3Z" transform="translate(-24.12 -45.25)"/><path class="cls-15" d="M93.12,231.35a3.3,3.3,0,1,0,3.3-3.3A3.29,3.29,0,0,0,93.12,231.35Z" transform="translate(-24.12 -45.25)"/><path class="cls-15" d="M82.7,231.35a3.29,3.29,0,1,0,3.29-3.3A3.29,3.29,0,0,0,82.7,231.35Z" transform="translate(-24.12 -45.25)"/><path class="cls-15" d="M72.27,231.35a3.3,3.3,0,1,0,3.29-3.3A3.29,3.29,0,0,0,72.27,231.35Z" transform="translate(-24.12 -45.25)"/><ellipse class="cls-3" cx="620.24" cy="101.29" rx="26.93" ry="26.6"/><ellipse class="cls-7" cx="620.24" cy="97.83" rx="26.93" ry="26.6"/><ellipse class="cls-4" cx="620.24" cy="97.83" rx="21.9" ry="21.62"/><path class="cls-3" d="M666.26,143.08c0,.58,0,1.15-.07,1.71a21.92,21.92,0,0,0-43.66,0c0-.56-.07-1.13-.07-1.71a21.9,21.9,0,0,1,43.8,0Z" transform="translate(-24.12 -45.25)"/><path class="cls-5" d="M644.36,145.33a.56.56,0,0,1-.44-.22l-10.74-14.28a.54.54,0,0,1,.11-.76.57.57,0,0,1,.77.12l10.48,13.93L656.45,139a.54.54,0,0,1,.72.28.53.53,0,0,1-.28.71l-12.31,5.34A.57.57,0,0,1,644.36,145.33Z" transform="translate(-24.12 -45.25)"/><rect class="cls-16" x="63.75" y="92.19" width="9.67" height="41.24" rx="1.19"/><rect class="cls-15" x="65.21" y="111.4" width="6.73" height="2.82" rx="1.17"/><rect class="cls-15" x="63.75" y="95.52" width="9.67" height="1.59"/><rect class="cls-15" x="63.75" y="98.85" width="9.67" height="1.59"/><rect class="cls-15" x="63.75" y="123.43" width="9.67" height="1.59"/><rect class="cls-15" x="63.75" y="126.76" width="9.67" height="1.59"/><rect class="cls-7" x="44.41" y="92.19" width="9.67" height="41.24" rx="0.3"/><rect class="cls-17" x="45.88" y="111.4" width="6.73" height="2.82" rx="1.17"/><rect class="cls-17" x="44.41" y="95.52" width="9.67" height="1.59"/><rect class="cls-17" x="44.41" y="98.85" width="9.67" height="1.59"/><rect class="cls-17" x="44.41" y="123.43" width="9.67" height="1.59"/><rect class="cls-17" x="44.41" y="126.76" width="9.67" height="1.59"/><rect class="cls-6" x="54.08" y="92.19" width="9.67" height="41.24" rx="1.19"/><rect class="cls-10" x="55.55" y="111.4" width="6.73" height="2.82" rx="1.17"/><rect class="cls-10" x="54.08" y="95.52" width="9.67" height="1.59"/><rect class="cls-10" x="54.08" y="98.85" width="9.67" height="1.59"/><rect class="cls-10" x="54.08" y="123.43" width="9.67" height="1.59"/><rect class="cls-10" x="54.08" y="126.76" width="9.67" height="1.59"/><rect class="cls-12" x="100.64" y="136.97" width="9.67" height="41.24" rx="0.3" transform="translate(-47.86 -26.45) rotate(-9.16)"/><rect class="cls-13" x="102.11" y="156.18" width="6.73" height="2.82" rx="0.26" transform="translate(-47.86 -26.45) rotate(-9.16)"/><rect class="cls-13" x="98.02" y="140.51" width="9.67" height="1.59" transform="translate(-45.3 -27.08) rotate(-9.16)"/><rect class="cls-13" x="98.55" y="143.8" width="9.67" height="1.59" transform="translate(-45.81 -26.95) rotate(-9.16)"/><rect class="cls-13" x="102.46" y="168.06" width="9.67" height="1.59" transform="matrix(0.99, -0.16, 0.16, 0.99, -49.63, -26.02)"/><rect class="cls-13" x="102.99" y="171.35" width="9.67" height="1.59" transform="translate(-50.14 -25.9) rotate(-9.16)"/><g class="cls-1"><polygon class="cls-3" points="113.99 144.48 26.41 144.48 24.49 139.39 116.17 139.39 113.99 144.48"/></g><rect class="cls-5" x="24.49" y="133.34" width="91.68" height="6.05"/><polygon class="cls-5" points="33.84 139.39 36.29 144.53 42.06 144.53 43.71 139.39 33.84 139.39"/><polygon class="cls-5" points="106.83 139.39 104.38 144.53 98.6 144.53 96.96 139.39 106.83 139.39"/><ellipse class="cls-3" cx="545.19" cy="410.66" rx="132.05" ry="7.77"/><path class="cls-5" d="M621.07,459.55c-41.26-1.45-83.93-7.08-106-83.1-6.57-22.6-2.3-39.71,4.91-52.61a78.65,78.65,0,0,1,5.76-8.8h0c.76-1,1.53-2,2.3-2.94A60,60,0,0,1,595.15,294c13.44,4.9,30.68,12.14,46.05,21.56,30.88,18.93,38.13,40.51,48.22,77.52.87,3.18,1.73,6.75,2.39,10.53.35,2,.64,4.11.84,6.23C694.89,433.49,685.76,461.82,621.07,459.55Z" transform="translate(-24.12 -45.25)"/><path class="cls-14" d="M692.65,409.82a48.49,48.49,0,0,1-5.92,11.49c-7.8,11.18-24.05,24.69-57.13,25.56-1.46,0-2.9.06-4.31.06a115.3,115.3,0,0,1-34-4.64,83.18,83.18,0,0,1-28.44-15C548.69,415.84,537,399.11,525,373a75.85,75.85,0,0,1-7.32-31A67.63,67.63,0,0,1,520,323.84a78.65,78.65,0,0,1,5.76-8.8c-.51,1.18-1,2.42-1.48,3.71-4.32,11.85-7.3,30.71,3.07,53.21,21.09,45.77,45.54,73.83,102.21,72.35,32-.84,47.64-13.77,55.1-24.46a45,45,0,0,0,7.18-16.26C692.16,405.61,692.45,407.7,692.65,409.82Z" transform="translate(-24.12 -45.25)"/><path class="cls-15" d="M633.64,269.53s25.9,35.15,31.81,52.65S657,352.12,657,352.12l-13.32,5S630,295.31,633.64,269.53Z" transform="translate(-24.12 -45.25)"/><path class="cls-4" d="M631.35,368c-11.32,3.75-39,13.59-51,9.61a10.93,10.93,0,0,1-1.43-.58,7.55,7.55,0,0,1-3.1-2.62c-4.71-7.17-9.39-37.26-7.29-54.94a71.24,71.24,0,0,0,.44-7.13c.06-3.71-.07-7.68-.22-11.67-.6-15-3-25.39,3.46-29a74.87,74.87,0,0,1,17.72-7c2.88-.69,7.6-2.14,10.91-2.07l14.32,2.6s12.36,2.07,15.22,4.17,4.31,11.37,9.46,19.86,6.27,17,1.35,26.33c-4.28,8.11-3.53,5-4.09,18.34C636.42,350.17,653.46,360.64,631.35,368Z" transform="translate(-24.12 -45.25)"/><g class="cls-1"><path class="cls-3" d="M593.33,291.6a89.52,89.52,0,0,1,35.33-.31l.47,13.69s-21.78-2.42-35.49,1.07Z" transform="translate(-24.12 -45.25)"/></g><g class="cls-1"><path class="cls-3" d="M611.16,280l-.64,0c-8.48-.44-16.25-7.92-16.58-8.24a.58.58,0,0,1,0-.82.57.57,0,0,1,.82,0c.08.07,7.79,7.5,15.83,7.91,7.71.41,8.64-7.24,8.67-7.56a.58.58,0,0,1,1.16.13C620.4,271.51,619.38,280,611.16,280Z" transform="translate(-24.12 -45.25)"/></g><g class="cls-1"><path class="cls-3" d="M587.12,348.57a.5.5,0,0,1-.15-.17.6.6,0,0,1,.2-.83,71.38,71.38,0,0,1,28.55-9.83,52,52,0,0,1,12.58-.13.6.6,0,0,1,.51.68.61.61,0,0,1-.69.51,52.66,52.66,0,0,0-12.31.15,70,70,0,0,0-28,9.66A.6.6,0,0,1,587.12,348.57Z" transform="translate(-24.12 -45.25)"/></g><path class="cls-16" d="M601.54,373.42c-10.19-3.23-19.41-9.73-25.7-15.53-.5-.46-1-.91-1.44-1.36-3.26-3.17-5.56-1.54-6.56-3.36-3.81-7-1.65-34.33,0-44.37s-5.28-28.44-1.55-35,16.57-8.88,16.57-8.88-1.81-2.12,1.64-4.55,12.63-1.42,12.63-1.42C597.57,302.4,603.72,342.78,601.54,373.42Z" transform="translate(-24.12 -45.25)"/><path class="cls-4" d="M591.52,361a.58.58,0,0,1-.56-.49c-4.64-30.15-.05-86.86,0-87.43a.56.56,0,0,1,.61-.52.57.57,0,0,1,.52.61c-.05.57-4.62,57.15,0,87.17a.57.57,0,0,1-.47.65Z" transform="translate(-24.12 -45.25)"/><path class="cls-15" d="M600.85,365.48a.58.58,0,0,1-.56-.47c-6.07-34.64-6.55-94.39-6.55-95a.56.56,0,0,1,.56-.57h0a.56.56,0,0,1,.57.56c0,.6.49,60.26,6.54,94.8a.57.57,0,0,1-.46.66Z" transform="translate(-24.12 -45.25)"/><path class="cls-15" d="M590.78,269.67a.32.32,0,0,1-.14,0,19.08,19.08,0,0,1-7.87-4.23.57.57,0,0,1,0-.8.56.56,0,0,1,.8,0h0a18.49,18.49,0,0,0,7.37,3.95.56.56,0,0,1-.15,1.11Z" transform="translate(-24.12 -45.25)"/><path class="cls-16" d="M645.69,354.44a31.32,31.32,0,0,1-17.16,18.06c-1.67-33.16-5.48-71-10.39-111.31,0,0,5.17-.91,7.32,2a8.23,8.23,0,0,1,1.13,3.43,26.69,26.69,0,0,1,5.54,1.86c2.89,1.35,2.56,3.2,3.25,7.9s8,12,10.31,21.82-3.9,16.13-5.86,24.39S645.69,354.44,645.69,354.44Z" transform="translate(-24.12 -45.25)"/><path class="cls-4" d="M634.08,359.57a.57.57,0,0,1-.57-.55,559.62,559.62,0,0,0-9.63-85.82A.57.57,0,0,1,625,273a563.47,563.47,0,0,1,9.65,86,.57.57,0,0,1-.55.59Z" transform="translate(-24.12 -45.25)"/><path class="cls-15" d="M621.64,270.92a.56.56,0,0,1-.1-1.12s3.68-.67,4.51-3.31a.57.57,0,0,1,1.09.34c-1,3.31-5.23,4.06-5.41,4.09Z" transform="translate(-24.12 -45.25)"/><path class="cls-15" d="M632.76,359.57a.57.57,0,0,1-.57-.5c-4-33.26-10.32-86.41-10.38-86.94a.57.57,0,0,1,1.13-.14c.06.54,6.38,53.69,10.38,86.94a.57.57,0,0,1-.49.64Z" transform="translate(-24.12 -45.25)"/><path class="cls-7" d="M599.17,383.45a31.11,31.11,0,0,0,8.54,3.83c23.19,7.38,44.47-4.54,44.47-4.54,1.28-6.35.49-13.57-1.65-16.21a2.33,2.33,0,0,0,.22-2.06L672.1,342.3c-12.14,10.07-27.16,13.36-38.85,20.42h0c-3.37,2-6.4,3.83-8.62,5.08-3.39,1.9-7.71,2.09-12,1.5a58.2,58.2,0,0,1-16.17-5.21s-26.59-12-31.58-11.65C561.06,352.75,581.92,374.53,599.17,383.45Z" transform="translate(-24.12 -45.25)"/><path class="cls-9" d="M640.26,402s-6.84-2-9-4.18L626.56,409l16.19,5.05S643,404.25,640.26,402Z" transform="translate(-24.12 -45.25)"/><path class="cls-18" d="M679.33,434.38,658.4,387.93a7.15,7.15,0,0,0-2.85.55c-4.06,1.48-9.77,5.56-13.45,7.95-.43.29-.83.54-1.2.77a14.16,14.16,0,0,1-1.55.86c-3.22,1.46-1.52,3.2-1.52,3.2,6,3,2.35,11.93,6,14,0,0,1.56.91,6.54,3.1s10,7.48,14.63,11.81c6,5.6,9.75,6.25,11.9,5.74A4,4,0,0,0,679.33,434.38Z" transform="translate(-24.12 -45.25)"/><path class="cls-13" d="M679.33,434.38,658.4,387.93a7.15,7.15,0,0,0-2.85.55l21.37,47.44A4,4,0,0,0,679.33,434.38Z" transform="translate(-24.12 -45.25)"/><path class="cls-13" d="M660.54,392.67l-.63-1.38a11.19,11.19,0,0,1-6.31,5.85,14.37,14.37,0,0,1-11.5-.71c-.43.29-.83.54-1.2.77A15.64,15.64,0,0,0,654,398.27,12.46,12.46,0,0,0,660.54,392.67Z" transform="translate(-24.12 -45.25)"/><path class="cls-4" d="M652.77,416.35a.84.84,0,0,0-1.59.49l.59,3.23a.84.84,0,0,0,1,.68.85.85,0,0,0,.68-1l-.59-3.23A.7.7,0,0,0,652.77,416.35Z" transform="translate(-24.12 -45.25)"/><path class="cls-4" d="M649.06,414.55a.85.85,0,0,0-.92-.48.84.84,0,0,0-.67,1l.58,3.23a.85.85,0,0,0,1,.67.84.84,0,0,0,.68-1l-.59-3.23A.66.66,0,0,0,649.06,414.55Z" transform="translate(-24.12 -45.25)"/><path class="cls-4" d="M655.77,418.49a.85.85,0,0,0-.92-.48.83.83,0,0,0-.67,1l.58,3.22a.84.84,0,1,0,1.65-.3l-.58-3.22Z" transform="translate(-24.12 -45.25)"/><path class="cls-4" d="M658.7,420.66a.85.85,0,0,0-.92-.48.84.84,0,0,0-.68,1l.59,3.22a.84.84,0,1,0,1.65-.3l-.58-3.22Z" transform="translate(-24.12 -45.25)"/><path class="cls-4" d="M661.62,423.15a.84.84,0,0,0-1.59.5l.59,3.22a.84.84,0,0,0,1,.68.85.85,0,0,0,.68-1l-.59-3.22A.66.66,0,0,0,661.62,423.15Z" transform="translate(-24.12 -45.25)"/><path class="cls-4" d="M664.44,426a.83.83,0,0,0-.91-.49.85.85,0,0,0-.68,1l.59,3.23a.84.84,0,0,0,1.65-.3l-.58-3.23A1.07,1.07,0,0,0,664.44,426Z" transform="translate(-24.12 -45.25)"/><path class="cls-7" d="M564.93,352.44s-16.82-9.08-26.57-2.06c-17.82,12.84,12.42,37.53,47,49.59s45.82,10.41,45.82,10.41,7.52-2.06,4.85-14.25c0,0-19.94-7.58-30.31-15.52S588.29,362.94,564.93,352.44Z" transform="translate(-24.12 -45.25)"/><path class="cls-17" d="M634.71,399.68c-7.26-1.75-22-8.53-39.55-18.14-13.1-7.2-28.2-16.39-30.42-19.58-1.2-1.72-1.5-3.13-.9-4.18.9-1.58,3.5-1.75,4.68-1.73a.51.51,0,0,1,.52.56h0a.52.52,0,0,1-.52.49c-1.17,0-3.19.19-3.76,1.2-.48.84.19,2.13.84,3.06,1.79,2.57,14.43,10.67,30.06,19.25,13.46,7.39,30.85,16,39.29,18Z" transform="translate(-24.12 -45.25)"/><path class="cls-17" d="M633.34,394.52c-.81,6.4-2.47,12.22-6.09,16.68,0,0,3.1,2.23,5.92.63,2.17-1.22,6.33-11.22,4.74-16.56C636.11,394.28,634.55,393.94,633.34,394.52Z" transform="translate(-24.12 -45.25)"/><path class="cls-9" d="M589.44,400.76s6.88-1.33,8.82-3.69l5.5,10.86-15.82,6.12S586.88,403.16,589.44,400.76Z" transform="translate(-24.12 -45.25)"/><path class="cls-18" d="M552.8,436.74,570.58,389a7,7,0,0,1,2.88.36c4.15,1.2,10.12,4.89,13.95,7,.44.26.86.49,1.24.69a17.26,17.26,0,0,0,1.61.76c3.32,1.23,1.94,2.17,1.94,2.17-6.54,3.06-1.75,13-5.27,15.3,0,0-1.5,1-6.32,3.53s-9.48,8.12-13.82,12.76c-5.59,6-9.3,6.89-11.48,6.52A4,4,0,0,1,552.8,436.74Z" transform="translate(-24.12 -45.25)"/><path class="cls-13" d="M552.8,436.74,570.58,389a7,7,0,0,1,2.88.36l-18.15,48.76A4,4,0,0,1,552.8,436.74Z" transform="translate(-24.12 -45.25)"/><path class="cls-13" d="M568.76,393.87l.53-1.42a11.15,11.15,0,0,0,6.69,5.41,14.36,14.36,0,0,0,11.43-1.47c.44.26.86.49,1.24.69a15.61,15.61,0,0,1-13,1.94A12.43,12.43,0,0,1,568.76,393.87Z" transform="translate(-24.12 -45.25)"/><path class="cls-4" d="M578.09,417a.82.82,0,0,1,.88-.54.84.84,0,0,1,.74.93l-.37,3.25a.84.84,0,1,1-1.67-.19l.37-3.25A1.17,1.17,0,0,1,578.09,417Z" transform="translate(-24.12 -45.25)"/><path class="cls-4" d="M581.68,414.94a.84.84,0,0,1,1.62.39l-.37,3.25a.84.84,0,0,1-1.67-.18l.37-3.26A1.17,1.17,0,0,1,581.68,414.94Z" transform="translate(-24.12 -45.25)"/><path class="cls-4" d="M575.25,419.31a.84.84,0,0,1,1.62.39L576.5,423a.84.84,0,1,1-1.67-.19l.37-3.26A.73.73,0,0,1,575.25,419.31Z" transform="translate(-24.12 -45.25)"/><path class="cls-4" d="M572.47,421.68a.82.82,0,0,1,.88-.54.84.84,0,0,1,.74.93l-.37,3.25a.84.84,0,1,1-1.67-.19l.37-3.25A1.17,1.17,0,0,1,572.47,421.68Z" transform="translate(-24.12 -45.25)"/><path class="cls-4" d="M569.72,424.35a.84.84,0,0,1,1.62.39L571,428a.84.84,0,1,1-1.67-.19l.37-3.26A1.46,1.46,0,0,1,569.72,424.35Z" transform="translate(-24.12 -45.25)"/><path class="cls-4" d="M567.09,427.39a.84.84,0,0,1,1.62.39l-.37,3.26a.84.84,0,0,1-1.67-.19l.37-3.26A1.17,1.17,0,0,1,567.09,427.39Z" transform="translate(-24.12 -45.25)"/><path class="cls-7" d="M665.25,345.07s15.93-10.59,26.28-4.49c18.92,11.14-8.93,38.51-42.27,53.69s-44.68,14.57-44.68,14.57-7.68-1.37-6.14-13.74c0,0,19.16-9.38,28.77-18.24S643,357.66,665.25,345.07Z" transform="translate(-24.12 -45.25)"/><path class="cls-17" d="M636.13,400c-1.83.6-3.7,1.21-5.63,1.82-7.46,2.34-16,4.8-23.69,6.7l0,1.1c7-1.7,15.14-4,24-6.8,1.73-.55,3.51-1.12,5.28-1.71Z" transform="translate(-24.12 -45.25)"/><path class="cls-17" d="M600.11,398.5c7.06-2.4,21.16-10.51,37.72-21.69,12.38-8.36,26.58-18.9,28.49-22.28,1-1.83,1.21-3.26.51-4.25-1-1.49-3.64-1.42-4.82-1.3a.53.53,0,0,0-.47.61h0a.53.53,0,0,0,.57.44c1.16-.11,3.19-.1,3.86.85.55.79,0,2.14-.57,3.13-1.54,2.72-13.39,11.95-28.16,21.93-12.73,8.59-29.25,18.77-37.47,21.57Z" transform="translate(-24.12 -45.25)"/><path class="cls-17" d="M601,393.24c1.4,6.3,3.59,11.94,7.6,16.05,0,0-2.88,2.51-5.84,1.18-2.27-1-7.33-10.6-6.24-16.06C598.22,393.26,599.74,392.77,601,393.24Z" transform="translate(-24.12 -45.25)"/><path class="cls-16" d="M598.84,342.72,597.56,361s-21.72-3.1-32.39-5.82a44.21,44.21,0,0,1-9.79-3.5c-5.88-3.13-10.77-8.58-10.41-19.2a49.37,49.37,0,0,1,2.11-11.93,247.14,247.14,0,0,1,20.76-48.81c16.73,7.16,15.33,19.08,15.33,19.08-4.78,12.73-15.33,39.84-15.33,39.84C574,338.13,598.84,342.72,598.84,342.72Z" transform="translate(-24.12 -45.25)"/><path class="cls-15" d="M567.84,331.22a.55.55,0,0,1-.3-.09c-1.84-1.14-6.88-2.32-6.93-2.34a.57.57,0,0,1,.26-1.1,44.73,44.73,0,0,1,6,1.86,10.16,10.16,0,0,0-1.67-2.45.57.57,0,1,1,.85-.75,8.7,8.7,0,0,1,2.31,4.21.56.56,0,0,1-.24.56A.55.55,0,0,1,567.84,331.22Z" transform="translate(-24.12 -45.25)"/><path class="cls-15" d="M555.38,351.67c-5.88-3.13-10.77-8.58-10.41-19.2C549.64,334.91,557.77,340.82,555.38,351.67Z" transform="translate(-24.12 -45.25)"/><path class="cls-15" d="M585.18,339.92a.39.39,0,0,1-.15,0,44.64,44.64,0,0,1-17.57-8.83.56.56,0,0,1-.12-.68c7.67-15.09,12.53-27.07,15.28-37.71a.57.57,0,1,1,1.1.29c-2.75,10.62-7.57,22.56-15.17,37.54a45.26,45.26,0,0,0,16.77,8.29.59.59,0,0,1,.41.7A.58.58,0,0,1,585.18,339.92Z" transform="translate(-24.12 -45.25)"/><path class="cls-15" d="M580.87,301.15a.61.61,0,0,1-.36-.13.58.58,0,0,1-.09-.8l4-5a.57.57,0,0,1,.89.71l-4,5A.57.57,0,0,1,580.87,301.15Z" transform="translate(-24.12 -45.25)"/><path class="cls-5" d="M599.47,255.09l19.3,2.76c12.54-1.25,16.53-6.23,18.58-16.77a28.6,28.6,0,0,0-.66-13.46c-.27-4-1.17-7.38-3-9.64-8.47-10.21-15.93-9.81-15.93-9.81-3.79-1.74-16.32-2.93-24.58,7.09h0c-.26.22-5.3,5.55-6.46,16.76C585.57,242.71,592.7,256.35,599.47,255.09Z" transform="translate(-24.12 -45.25)"/><path class="cls-5" d="M610.25,211s2-17.8-13.79-15.54c-10.32,1.47-16.71,15.46-7.27,21.81S610.25,211,610.25,211Z" transform="translate(-24.12 -45.25)"/><path class="cls-18" d="M590.77,219.07a.44.44,0,0,1-.24-.07.48.48,0,0,1-.19-.67A22.78,22.78,0,0,1,603,207.44a20.48,20.48,0,0,1,7.33-1.23.5.5,0,0,1-.06,1,21.64,21.64,0,0,0-19,11.6A.51.51,0,0,1,590.77,219.07Z" transform="translate(-24.12 -45.25)"/><path class="cls-5" d="M601,251.08s-12.31-6.89-9.89-21.23,11.86-23,26.33-18.81C617.42,211,616,252.49,601,251.08Z" transform="translate(-24.12 -45.25)"/><path class="cls-5" d="M635.22,224.71s1.26,12.31-1,14.09-4.44-3.08-4.44-3.08S632.85,224.85,635.22,224.71Z" transform="translate(-24.12 -45.25)"/><path class="cls-11" d="M629.55,239.92s3.67-3.23,4.89.73-1.25,11.21-5.82,9.29Z" transform="translate(-24.12 -45.25)"/><path class="cls-7" d="M634.07,249a8.29,8.29,0,0,1-1.67,1.19c-2.3,1.24-5.32,1.39-8.93-.52,0,0-4.63-6,2.21-16.63,0,0,6.27-1.65,9.86,2.14a7.86,7.86,0,0,1,1.07,1.46,8.15,8.15,0,0,1,.53,1.11C638.41,241,637.23,246.17,634.07,249Z" transform="translate(-24.12 -45.25)"/><path class="cls-4" d="M633.9,233.93a50,50,0,0,0,.77-5.12.77.77,0,0,1-.27.07,1.72,1.72,0,0,1-1.15-.41c-.17,1.82-.43,3.48-.69,4.84Z" transform="translate(-24.12 -45.25)"/><path class="cls-17" d="M634.07,249a8.29,8.29,0,0,1-1.67,1.19,31.49,31.49,0,0,0,3.14-15,7.86,7.86,0,0,1,1.07,1.46A32.37,32.37,0,0,1,634.07,249Z" transform="translate(-24.12 -45.25)"/><path class="cls-9" d="M618.85,257.68l-1.52,10.18s-6.23,8-20.65-5c1.64-4.15,4.15-9.47,3.51-13.55a22.25,22.25,0,0,0,2.87,2.11l1.19.75C608,254.4,613.72,257.32,618.85,257.68Z" transform="translate(-24.12 -45.25)"/><path class="cls-5" d="M618.85,257.68l-.71,4.76c-4.21-1.61-11.49-5.12-15.08-11.06l1.19.75C608,254.4,613.72,257.32,618.85,257.68Z" transform="translate(-24.12 -45.25)"/><path class="cls-9" d="M632.68,240.37c-.16,1-.32,2-.47,3-1.16,7-2.22,10.8-4.17,12.3-9.87,7.57-27.27-5.81-27.83-6.24a0,0,0,0,1,0,0c-.06-.81-.1-1.62-.13-2.42a62.64,62.64,0,0,1,2.14-18.58,14.16,14.16,0,0,1,11.16-12.57c6.29-1.29,11.25,2.13,14.32,3.6,4.63,2.22,6.75,9,5.44,17.89Q632.91,238.92,632.68,240.37Z" transform="translate(-24.12 -45.25)"/><path class="cls-5" d="M623.86,248.55c-5.52,0-7.73-5.28-7.75-5.34a.49.49,0,0,1,.27-.65.51.51,0,0,1,.66.27h0c.09.24,2.41,5.72,8.43,4.56a.49.49,0,0,1,.59.39.5.5,0,0,1-.4.59A9.79,9.79,0,0,1,623.86,248.55Z" transform="translate(-24.12 -45.25)"/><path class="cls-5" d="M619.61,229.49a1.38,1.38,0,0,0-.37-2.68c-2.55-.16-6.64-.1-7,2-.5,3,4.27,1.76,7.27.75Z" transform="translate(-24.12 -45.25)"/><path class="cls-5" d="M627.14,230.38a1.38,1.38,0,0,1,1.41-2.31c2.41.88,6.13,2.59,5.61,4.61-.75,3-4.6-.11-6.95-2.24Z" transform="translate(-24.12 -45.25)"/><path class="cls-11" d="M619.79,251a4.38,4.38,0,0,0,1.92.05.33.33,0,0,0,.24-.4.33.33,0,0,0-.4-.25h0a3.57,3.57,0,0,1-2.91-.73.34.34,0,0,0-.45.5A3.85,3.85,0,0,0,619.79,251Z" transform="translate(-24.12 -45.25)"/><path class="cls-5" d="M623.25,244.15a.35.35,0,0,1-.18-.21.36.36,0,0,1,.23-.46l2.41-.79-1.43-1.45a.38.38,0,0,1-.11-.3l.45-4a.36.36,0,0,1,.4-.32.37.37,0,0,1,.33.41l-.43,3.81,1.73,1.74a.36.36,0,0,1,.09.34.37.37,0,0,1-.24.27l-3,1A.31.31,0,0,1,623.25,244.15Z" transform="translate(-24.12 -45.25)"/><path class="cls-11" d="M617,240.34c-.13.83-1.93,1.25-4,.93s-3.71-1.23-3.59-2.06,1.93-1.25,4-.93S617.13,239.51,617,240.34Z" transform="translate(-24.12 -45.25)"/><g class="cls-1"><path class="cls-11" d="M632.68,241.34c-.16,1-.32,2-.47,3-1.92-.36-3.33-1.23-3.22-2S630.73,241.12,632.68,241.34Z" transform="translate(-24.12 -45.25)"/></g><path class="cls-5" d="M619.06,237.38c-.17,1.13-.82,2-1.46,1.88s-1-1.09-.85-2.22.83-2,1.46-1.89S619.23,236.24,619.06,237.38Z" transform="translate(-24.12 -45.25)"/><path class="cls-5" d="M630.3,239.05c-.16,1.14-.82,2-1.45,1.89s-1-1.09-.85-2.23.82-2,1.46-1.89S630.47,237.92,630.3,239.05Z" transform="translate(-24.12 -45.25)"/><path class="cls-5" d="M604.6,245.35c-.08.11-2.09,3.36-4.39,4.06h0v0c-.06-.81-.1-1.62-.13-2.42A8.86,8.86,0,0,0,604.6,245.35Z" transform="translate(-24.12 -45.25)"/><path class="cls-9" d="M603.69,237.14s-3.64-6.78-7.68-2.48c-3.33,3.55.27,14.84,6.4,11.82Z" transform="translate(-24.12 -45.25)"/><path class="cls-5" d="M601.94,244.63a.47.47,0,0,1-.4-.49,7.89,7.89,0,0,0-3.61-7,.48.48,0,0,1,.48-.82,8.82,8.82,0,0,1,4.07,7.83.47.47,0,0,1-.49.45Z" transform="translate(-24.12 -45.25)"/><path class="cls-5" d="M598,241.14a.49.49,0,0,1-.34-.22.47.47,0,0,1,.17-.65c.21-.12,2.08-1.2,3.43-.63a.47.47,0,0,1,.25.62.47.47,0,0,1-.62.25c-.77-.32-2.16.32-2.58.57A.44.44,0,0,1,598,241.14Z" transform="translate(-24.12 -45.25)"/><path class="cls-4" d="M615,243.35a6.91,6.91,0,1,1,8.92-4A6.92,6.92,0,0,1,615,243.35Zm4.57-12a5.9,5.9,0,1,0,3.41,7.62A5.91,5.91,0,0,0,619.53,231.38Z" transform="translate(-24.12 -45.25)"/><path class="cls-4" d="M611.19,235.35a.58.58,0,0,1-.19,0,10.24,10.24,0,0,0-7.28-.4.5.5,0,1,1-.36-.94,11.13,11.13,0,0,1,8.06.42.49.49,0,0,1,.25.67A.5.5,0,0,1,611.19,235.35Z" transform="translate(-24.12 -45.25)"/><path class="cls-4" d="M630.25,245.08a6.91,6.91,0,1,1,8.93-4A6.92,6.92,0,0,1,630.25,245.08Zm4.57-12a5.9,5.9,0,1,0,3.41,7.62A5.91,5.91,0,0,0,634.82,233.11Z" transform="translate(-24.12 -45.25)"/><path class="cls-4" d="M623.56,236.43a.41.41,0,0,1-.19-.18.5.5,0,0,1,.15-.69,3.11,3.11,0,0,1,3.5.27.5.5,0,1,1-.61.8,2.14,2.14,0,0,0-2.35-.22A.5.5,0,0,1,623.56,236.43Z" transform="translate(-24.12 -45.25)"/><path class="cls-5" d="M627.26,213.21a16.57,16.57,0,0,1,9,9.75c.93,2.73,1.7,6.34-2.14,5.87C623.6,227.56,618,216.69,618,216.69s-2,10-10.27,8.79-8-7.43-3.3-10.94C608.24,211.68,618,209,627.26,213.21Z" transform="translate(-24.12 -45.25)"/><path class="cls-5" d="M608,224.33s-4.68,5-3,10.44,1.79,9.75,0,12.66a33.2,33.2,0,0,0-2.54-10c-1.71-3.55-3.31-6.25-2.07-10.34C601.31,224.26,603.37,221.57,608,224.33Z" transform="translate(-24.12 -45.25)"/><path class="cls-7" d="M600.43,248.87c-3.63.88-6.44.37-8.52-.93a9.07,9.07,0,0,1-.94-.69c-4.36-3.64-4.68-11.22-2-14.93a8.52,8.52,0,0,1,3.17-2.75,6.63,6.63,0,0,1,1-.43c4.51-1.48,9.4,1.22,9.4,1.22C607.7,244.44,600.43,248.87,600.43,248.87Z" transform="translate(-24.12 -45.25)"/><path class="cls-4" d="M613.2,255a23.5,23.5,0,0,1-15.33-10.18.61.61,0,0,1,.23-.84.63.63,0,0,1,.84.23,23.22,23.22,0,0,0,18.44,10.08.62.62,0,0,1-.07,1.23A28.45,28.45,0,0,1,613.2,255Z" transform="translate(-24.12 -45.25)"/><path class="cls-19" d="M620.76,255.39a2,2,0,1,1-1.53-2.32A2,2,0,0,1,620.76,255.39Z" transform="translate(-24.12 -45.25)"/><path class="cls-17" d="M591.91,247.94a9.07,9.07,0,0,1-.94-.69,25.22,25.22,0,0,0,1.16-17.68,6.63,6.63,0,0,1,1-.43A26.48,26.48,0,0,1,591.91,247.94Z" transform="translate(-24.12 -45.25)"/><path class="cls-4" d="M635,220.11a16.52,16.52,0,0,0-2.37-3.33,15.41,15.41,0,0,0-1.51-3.36c-2.22-3.52-5.73-5.67-10.45-6.4-5.09-.79-9.51.21-13.13,3a18.28,18.28,0,0,0-3,2.94,26,26,0,0,0-3.11,4.86,40.23,40.23,0,0,0-3.63,11.92l-1.39-.15c.06-.57,1.63-14.05,10.3-20.69,3.93-3,8.71-4.11,14.2-3.26,5.13.8,9,3.17,11.42,7.05A20.25,20.25,0,0,1,635,220.11Z" transform="translate(-24.12 -45.25)"/><path class="cls-5" d="M582.22,374l-4.84-9.2a3.43,3.43,0,0,1,3.07-5l76,.82-2.24,11.78Z" transform="translate(-24.12 -45.25)"/><path class="cls-5" d="M652.92,371.42h-68a2.61,2.61,0,0,1-2.64-3l4.64-42a3.4,3.4,0,0,1,3.3-3h68a2.61,2.61,0,0,1,2.65,3l-4.64,42A3.4,3.4,0,0,1,652.92,371.42Z" transform="translate(-24.12 -45.25)"/><path class="cls-20" d="M583.87,373.23h-.07a.57.57,0,0,1-.5-.64l5.64-45a.58.58,0,0,1,.65-.5.57.57,0,0,1,.49.64l-5.64,45A.58.58,0,0,1,583.87,373.23Z" transform="translate(-24.12 -45.25)"/><path class="cls-14" d="M617,348.18a6,6,0,0,0,5.55,6.49,6.18,6.18,0,0,0,6.5-5.73,6,6,0,0,0-5.56-6.49A6.17,6.17,0,0,0,617,348.18Z" transform="translate(-24.12 -45.25)"/><path class="cls-5" d="M653.25,375.08h-69a2.5,2.5,0,0,1-2.48-2.84l.66-4.81h74l-.74,5.49A2.5,2.5,0,0,1,653.25,375.08Z" transform="translate(-24.12 -45.25)"/><path class="cls-18" d="M603.26,361.51l-.49,2.4H605l-.25,2.86h-2.63l-.55,2.61h-3l.55-2.61h-1.86l-.55,2.61h-3l.55-2.61H592l.25-2.85h2.63l.5-2.4h-2.27l.25-2.86H596l.55-2.6h3l-.55,2.6h1.86l.55-2.61h3l-.56,2.61h2.28l-.26,2.85Zm-3,0H598.4l-.5,2.4h1.86Z" transform="translate(-24.12 -45.25)"/><path class="cls-6" d="M672,295.07a18.77,18.77,0,1,0,18.76-18.77A18.76,18.76,0,0,0,672,295.07Z" transform="translate(-24.12 -45.25)"/><polygon class="cls-6" points="657.05 265.17 646.96 267.3 651.33 258.61 657.05 265.17"/><path class="cls-4" d="M692.36,291c0-.88-.85-1.33-1.9-1.33a3.34,3.34,0,0,0-3,1.92l-5-2.52c1.45-2.72,4.31-4.59,8.85-4.59s7.77,1.87,7.77,5.41c0,4.34-4.54,5.11-4.54,7.29H688.7C688.7,293.79,692.36,292.77,692.36,291Zm-4.48,10.66a3.77,3.77,0,0,1,7.49,0,3.76,3.76,0,0,1-7.49,0Z" transform="translate(-24.12 -45.25)"/><path class="cls-7" d="M485.46,401.72s-7.66-12-26.28-23C446,371,438.37,349.16,438.37,349.16s25.19,1.09,36.14,16.42S485.46,401.72,485.46,401.72Z" transform="translate(-24.12 -45.25)"/><path class="cls-5" d="M485.55,402.05a.38.38,0,0,1-.37-.28A64,64,0,0,0,468,372.93a63.1,63.1,0,0,0-12-9.43.36.36,0,0,1-.14-.51.37.37,0,0,1,.51-.14,67.43,67.43,0,0,1,29.55,38.73.37.37,0,0,1-.27.45Z" transform="translate(-24.12 -45.25)"/><path class="cls-7" d="M482.16,401.45s-2.19-4.38-12.05-3.29-15.33,6.57-32.85-3.28c0,0,13.14-10.95,27.38-8.76S480,393.78,482.16,401.45Z" transform="translate(-24.12 -45.25)"/><path class="cls-5" d="M482.21,401.82a.37.37,0,0,1-.32-.17c0-.07-4.45-7-11.54-8.29-12.39-2.25-20.83,1.71-20.91,1.75a.37.37,0,1,1-.33-.67c.09-.05,8.73-4.11,21.37-1.82,7.42,1.35,11.86,8.33,12,8.63a.38.38,0,0,1-.12.52A.37.37,0,0,1,482.21,401.82Z" transform="translate(-24.12 -45.25)"/><path class="cls-7" d="M486.46,400.39s-.86-4.82,7.7-9.83,16.23-3.89,24.39-22.26c0,0-17.08-.93-27.19,9.33S483.64,392.93,486.46,400.39Z" transform="translate(-24.12 -45.25)"/><path class="cls-5" d="M486.42,400.79a.37.37,0,0,1-.37-.34c0-.35-.64-8.6,4.51-14.11,8.77-9.4,18.13-11.29,18.22-11.31a.38.38,0,1,1,.14.74c-.09,0-9.22,1.87-17.81,11.08-4.92,5.27-4.32,13.46-4.31,13.54a.36.36,0,0,1-.34.4Z" transform="translate(-24.12 -45.25)"/><rect class="cls-6" x="445.85" y="354.86" width="29.15" height="6.23" rx="2.57"/><path class="cls-6" d="M484.66,460c-19.59,0-32.05-3.12-30-16.91,1.27-8.75,8.09-17.33,12.91-22.43.68-.71,1.32-1.36,1.9-1.93,1.78-1.77,3-2.79,3-2.79l.05-.31.34-1.94.4-2.23.9-5.09.31-1.78,10.24-.44,10.68.44.24,1.78.38,2.8.62,4.52.27,1.94,0,.31s1.21,1,3,2.79c.58.57,1.22,1.22,1.9,1.93,4.82,5.1,11.64,13.68,12.92,22.43C516.7,456.85,504.24,460,484.66,460Z" transform="translate(-24.12 -45.25)"/><polygon class="cls-10" points="472.73 370.35 448.35 370.35 448.69 368.41 472.47 368.41 472.73 370.35"/><path class="cls-10" d="M501.78,420.63H467.53c.68-.71,1.32-1.36,1.9-1.93h30.45C500.46,419.27,501.1,419.92,501.78,420.63Z" transform="translate(-24.12 -45.25)"/><polygon class="cls-10" points="471.85 363.89 449.09 366.18 449.99 361.09 471.46 361.09 471.85 363.89"/><rect class="cls-4" x="249.1" y="222.8" width="12.56" height="9.69" rx="1.66"/><polygon class="cls-4" points="265.31 222.8 265.31 232.49 261.39 229.2 261.39 226.09 265.31 222.8"/><circle class="cls-21" cx="282.17" cy="227.65" r="8.07"/><path class="cls-4" d="M302.48,277.55a.82.82,0,0,0,.6-.25l7.61-7.61a.85.85,0,0,0-1.2-1.2l-7.61,7.61a.85.85,0,0,0,0,1.2A.83.83,0,0,0,302.48,277.55Z" transform="translate(-24.12 -45.25)"/><path class="cls-4" d="M310.09,277.55a.82.82,0,0,0,.6-.25.85.85,0,0,0,0-1.2l-7.61-7.61a.85.85,0,0,0-1.2,1.2l7.61,7.61A.85.85,0,0,0,310.09,277.55Z" transform="translate(-24.12 -45.25)"/><rect class="cls-4" x="258.76" y="265.41" width="4.44" height="11.57" rx="1.83" transform="translate(497.84 497.15) rotate(180)"/><rect class="cls-4" x="260.53" y="274.3" width="0.91" height="5.43" rx="0.38" transform="translate(497.84 508.78) rotate(180)"/><rect class="cls-4" x="256.52" y="278.24" width="8.92" height="1.91" rx="0.79" transform="translate(497.84 513.14) rotate(180)"/><path class="cls-10" d="M225.89,244a9.28,9.28,0,0,0-8.22-8.06,32.41,32.41,0,0,0-10.2.19,9.68,9.68,0,0,0-2.22.78l.17.76c2.33-1.24,6.51-1.59,12.16-1a8.72,8.72,0,0,1,4.76,2.09,8.45,8.45,0,0,1,2.63,4.37,7.09,7.09,0,0,1,.16.94,5.46,5.46,0,0,1,0,.56l.76-.21C225.92,244.24,225.9,244.11,225.89,244Zm-17.13.29a12.44,12.44,0,0,1-1.68,1l.16.79a15.1,15.1,0,0,0,2-1.2c3.24-2.34,5.37-.4,7.64,1.66l.3.28.87-.24-.66-.6C215.09,243.9,212.5,241.55,208.76,244.24Z" transform="translate(-24.12 -45.25)"/></svg>