<svg id="Illustration" xmlns="http://www.w3.org/2000/svg" xmlns:xlink="http://www.w3.org/1999/xlink" viewBox="0 0 487.36 377.37"><defs><style>.cls-1{fill:url(#linear-gradient);}.cls-2{fill:#bdd0fb;}.cls-11,.cls-3,.cls-9{fill:#fff;}.cls-4{fill:#91b3fa;}.cls-5{fill:#7d97f4;}.cls-6{fill:url(#linear-gradient-2);}.cls-7{fill:url(#linear-gradient-3);}.cls-8{fill:url(#linear-gradient-4);}.cls-9{opacity:0.65;}.cls-10{opacity:0.71;}.cls-11{opacity:0.47;}.cls-12{fill:url(#linear-gradient-5);}.cls-13{fill:url(#linear-gradient-6);}.cls-14{fill:url(#linear-gradient-7);}.cls-15{fill:url(#linear-gradient-8);}.cls-16{fill:url(#linear-gradient-9);}.cls-17{fill:url(#linear-gradient-10);}.cls-18{fill:url(#linear-gradient-11);}.cls-19{fill:url(#linear-gradient-12);}.cls-20{fill:url(#linear-gradient-13);}.cls-21{fill:url(#linear-gradient-14);}.cls-22{fill:url(#linear-gradient-15);}.cls-23{fill:url(#linear-gradient-16);}.cls-24{fill:url(#linear-gradient-17);}.cls-25{fill:url(#linear-gradient-18);}.cls-26{fill:url(#linear-gradient-19);}.cls-27{fill:url(#linear-gradient-20);}.cls-28{fill:url(#linear-gradient-21);}.cls-29{fill:url(#linear-gradient-22);}.cls-30{fill:url(#linear-gradient-23);}.cls-31{fill:url(#linear-gradient-24);}.cls-32{fill:url(#linear-gradient-25);}.cls-33{fill:url(#linear-gradient-26);}.cls-34{fill:url(#linear-gradient-27);}.cls-35{fill:url(#linear-gradient-28);}.cls-36{fill:url(#linear-gradient-29);}.cls-37{fill:url(#linear-gradient-30);}.cls-38{fill:url(#linear-gradient-31);}.cls-39{fill:url(#linear-gradient-32);}.cls-40{fill:url(#linear-gradient-33);}.cls-41{fill:url(#linear-gradient-34);}.cls-42{fill:url(#linear-gradient-35);}.cls-43{fill:url(#linear-gradient-36);}.cls-44{fill:url(#linear-gradient-37);}.cls-45{fill:url(#linear-gradient-38);}.cls-46{fill:url(#linear-gradient-39);}.cls-47{fill:url(#linear-gradient-40);}.cls-48{fill:url(#linear-gradient-41);}.cls-49{fill:url(#linear-gradient-42);}.cls-50{fill:url(#linear-gradient-43);}.cls-51{fill:url(#linear-gradient-44);}.cls-52{fill:url(#linear-gradient-45);}.cls-53{fill:url(#linear-gradient-46);}.cls-54{fill:url(#linear-gradient-47);}.cls-55{fill:url(#linear-gradient-48);}.cls-56{fill:url(#linear-gradient-49);}.cls-57{fill:url(#linear-gradient-50);}.cls-58{fill:url(#linear-gradient-51);}.cls-59{fill:url(#linear-gradient-52);}.cls-60{fill:url(#linear-gradient-53);}.cls-61{fill:url(#linear-gradient-54);}.cls-62{fill:url(#linear-gradient-55);}.cls-63{fill:url(#linear-gradient-56);}.cls-64{fill:url(#linear-gradient-57);}.cls-65{fill:url(#linear-gradient-58);}.cls-66{fill:url(#linear-gradient-59);}.cls-67{fill:url(#linear-gradient-60);}.cls-68{fill:url(#linear-gradient-61);}.cls-69{fill:url(#linear-gradient-62);}.cls-70{fill:url(#linear-gradient-63);}.cls-71{fill:url(#linear-gradient-64);}.cls-72{fill:url(#linear-gradient-65);}.cls-73{fill:url(#linear-gradient-66);}.cls-74{fill:url(#linear-gradient-67);}.cls-75{fill:url(#linear-gradient-68);}.cls-76{fill:url(#linear-gradient-69);}.cls-77{fill:url(#linear-gradient-70);}.cls-78{fill:url(#linear-gradient-71);}.cls-79{fill:url(#linear-gradient-72);}.cls-80{fill:url(#linear-gradient-73);}.cls-81{fill:url(#linear-gradient-74);}.cls-82{fill:url(#linear-gradient-75);}.cls-83{fill:url(#linear-gradient-76);}.cls-84{fill:url(#linear-gradient-77);}.cls-85{fill:url(#linear-gradient-78);}.cls-86{fill:url(#linear-gradient-79);}.cls-87{fill:url(#linear-gradient-80);}.cls-88{fill:url(#linear-gradient-81);}.cls-89{fill:url(#linear-gradient-82);}.cls-90{fill:url(#linear-gradient-83);}.cls-91{fill:url(#linear-gradient-84);}.cls-92{fill:url(#linear-gradient-85);}.cls-93{fill:url(#linear-gradient-86);}.cls-94{fill:url(#linear-gradient-87);}.cls-95{fill:url(#linear-gradient-88);}.cls-96{fill:url(#linear-gradient-89);}.cls-97{fill:url(#linear-gradient-90);}.cls-98{fill:url(#linear-gradient-91);}.cls-99{fill:url(#linear-gradient-92);}.cls-100{fill:url(#linear-gradient-93);}.cls-101{fill:url(#linear-gradient-94);}.cls-102{fill:url(#linear-gradient-95);}.cls-103{fill:url(#linear-gradient-96);}.cls-104{fill:url(#linear-gradient-97);}.cls-105{fill:url(#linear-gradient-98);}.cls-106{fill:url(#linear-gradient-99);}.cls-107{fill:url(#linear-gradient-100);}.cls-108{fill:url(#linear-gradient-101);}.cls-109{fill:url(#linear-gradient-102);}.cls-110{fill:url(#linear-gradient-103);}.cls-111{fill:url(#linear-gradient-104);}.cls-112{fill:url(#linear-gradient-105);}.cls-113{fill:url(#linear-gradient-106);}.cls-114{fill:url(#linear-gradient-107);}.cls-115{opacity:0.69;}.cls-116{fill:url(#linear-gradient-108);}.cls-117{fill:url(#linear-gradient-109);}.cls-118{fill:url(#linear-gradient-110);}.cls-119{fill:url(#linear-gradient-111);}.cls-120{fill:url(#linear-gradient-112);}.cls-121{fill:url(#linear-gradient-113);}.cls-122{fill:url(#linear-gradient-114);}.cls-123{fill:url(#linear-gradient-115);}.cls-124{fill:url(#linear-gradient-116);}.cls-125{fill:url(#linear-gradient-117);}.cls-126{fill:url(#linear-gradient-118);}.cls-127{fill:url(#linear-gradient-119);}.cls-128{fill:url(#linear-gradient-120);}.cls-129{fill:url(#_16);}.cls-130{fill:url(#linear-gradient-121);}</style><linearGradient id="linear-gradient" x1="17.61" y1="235.16" x2="468.52" y2="235.16" gradientUnits="userSpaceOnUse"><stop offset="0" stop-color="#dae3fe"/><stop offset="1" stop-color="#e9effd"/></linearGradient><linearGradient id="linear-gradient-2" x1="250.1" y1="241.48" x2="252.41" y2="403.21" gradientUnits="userSpaceOnUse"><stop offset="0" stop-color="#09005d"/><stop offset="1" stop-color="#1a0f91"/></linearGradient><linearGradient id="linear-gradient-3" x1="254.94" y1="169.41" x2="238.77" y2="355.78" xlink:href="#linear-gradient-2"/><linearGradient id="linear-gradient-4" x1="115.29" y1="114.58" x2="476.17" y2="439.5" gradientUnits="userSpaceOnUse"><stop offset="0" stop-color="#fe7062"/><stop offset="1" stop-color="#ff928e"/></linearGradient><linearGradient id="linear-gradient-5" x1="256.24" y1="335.85" x2="256.24" y2="383.6" xlink:href="#linear-gradient-2"/><linearGradient id="linear-gradient-6" x1="145.23" y1="377.39" x2="190" y2="377.39" xlink:href="#linear-gradient"/><linearGradient id="linear-gradient-7" x1="235.67" y1="435.18" x2="234.99" y2="379.77" xlink:href="#linear-gradient-2"/><linearGradient id="linear-gradient-8" x1="235.87" y1="459.5" x2="235.53" y2="419.98" xlink:href="#linear-gradient-2"/><linearGradient id="linear-gradient-9" x1="74.4" y1="418.62" x2="398.13" y2="418.62" xlink:href="#linear-gradient-2"/><linearGradient id="linear-gradient-10" x1="376.49" y1="430.94" x2="409.35" y2="201.97" gradientUnits="userSpaceOnUse"><stop offset="0" stop-color="#4042e2"/><stop offset="1" stop-color="#4f52ff"/></linearGradient><linearGradient id="linear-gradient-11" x1="359.6" y1="428.51" x2="392.45" y2="199.55" xlink:href="#linear-gradient-10"/><linearGradient id="linear-gradient-12" x1="354.36" y1="427.76" x2="387.21" y2="198.8" xlink:href="#linear-gradient-10"/><linearGradient id="linear-gradient-13" x1="314.36" y1="422.02" x2="347.21" y2="193.06" xlink:href="#linear-gradient-10"/><linearGradient id="linear-gradient-14" x1="336.12" y1="425.14" x2="368.98" y2="196.18" xlink:href="#linear-gradient-10"/><linearGradient id="linear-gradient-15" x1="268.88" y1="415.49" x2="301.73" y2="186.53" xlink:href="#linear-gradient-10"/><linearGradient id="linear-gradient-16" x1="290.09" y1="418.54" x2="322.95" y2="189.57" xlink:href="#linear-gradient-10"/><linearGradient id="linear-gradient-17" x1="310.83" y1="421.51" x2="343.68" y2="192.55" xlink:href="#linear-gradient-10"/><linearGradient id="linear-gradient-18" x1="331.75" y1="424.52" x2="364.6" y2="195.55" xlink:href="#linear-gradient-10"/><linearGradient id="linear-gradient-19" x1="270.58" y1="415.74" x2="303.44" y2="186.77" xlink:href="#linear-gradient-10"/><linearGradient id="linear-gradient-20" x1="98.22" y1="391" x2="131.08" y2="162.04" xlink:href="#linear-gradient-10"/><linearGradient id="linear-gradient-21" x1="124.76" y1="394.81" x2="157.61" y2="165.85" xlink:href="#linear-gradient-10"/><linearGradient id="linear-gradient-22" x1="247.64" y1="412.45" x2="280.5" y2="183.48" xlink:href="#linear-gradient-10"/><linearGradient id="linear-gradient-23" x1="382.81" y1="431.84" x2="415.66" y2="202.88" xlink:href="#linear-gradient-10"/><linearGradient id="linear-gradient-24" x1="197.8" y1="405.29" x2="230.65" y2="176.33" xlink:href="#linear-gradient-10"/><linearGradient id="linear-gradient-25" x1="224.02" y1="409.06" x2="256.88" y2="180.09" xlink:href="#linear-gradient-10"/><linearGradient id="linear-gradient-26" x1="248.35" y1="412.55" x2="281.21" y2="183.59" xlink:href="#linear-gradient-10"/><linearGradient id="linear-gradient-27" x1="173.6" y1="401.82" x2="206.46" y2="172.86" xlink:href="#linear-gradient-10"/><linearGradient id="linear-gradient-28" x1="292.75" y1="418.92" x2="325.6" y2="189.96" xlink:href="#linear-gradient-10"/><linearGradient id="linear-gradient-29" x1="149.37" y1="398.34" x2="182.22" y2="169.38" xlink:href="#linear-gradient-10"/><linearGradient id="linear-gradient-30" x1="272.37" y1="416" x2="305.23" y2="187.03" xlink:href="#linear-gradient-10"/><linearGradient id="linear-gradient-31" x1="249.14" y1="412.66" x2="281.99" y2="183.7" xlink:href="#linear-gradient-10"/><linearGradient id="linear-gradient-32" x1="295.5" y1="419.31" x2="328.36" y2="190.35" xlink:href="#linear-gradient-10"/><linearGradient id="linear-gradient-33" x1="224.26" y1="409.09" x2="257.12" y2="180.13" xlink:href="#linear-gradient-10"/><linearGradient id="linear-gradient-34" x1="340.7" y1="425.8" x2="373.56" y2="196.84" xlink:href="#linear-gradient-10"/><linearGradient id="linear-gradient-35" x1="365.06" y1="429.3" x2="397.91" y2="200.33" xlink:href="#linear-gradient-10"/><linearGradient id="linear-gradient-36" x1="387.84" y1="432.56" x2="420.7" y2="203.6" xlink:href="#linear-gradient-10"/><linearGradient id="linear-gradient-37" x1="318.03" y1="422.55" x2="350.89" y2="193.58" xlink:href="#linear-gradient-10"/><linearGradient id="linear-gradient-38" x1="176.02" y1="402.17" x2="208.88" y2="173.21" xlink:href="#linear-gradient-10"/><linearGradient id="linear-gradient-39" x1="152.9" y1="398.85" x2="185.76" y2="169.89" xlink:href="#linear-gradient-10"/><linearGradient id="linear-gradient-40" x1="129.5" y1="395.49" x2="162.36" y2="166.53" xlink:href="#linear-gradient-10"/><linearGradient id="linear-gradient-41" x1="203.95" y1="406.18" x2="236.81" y2="177.21" xlink:href="#linear-gradient-10"/><linearGradient id="linear-gradient-42" x1="199.14" y1="405.49" x2="232" y2="176.52" xlink:href="#linear-gradient-10"/><linearGradient id="linear-gradient-43" x1="105.01" y1="391.98" x2="137.86" y2="163.02" xlink:href="#linear-gradient-10"/><linearGradient id="linear-gradient-44" x1="145.69" y1="397.82" x2="178.55" y2="168.85" xlink:href="#linear-gradient-10"/><linearGradient id="linear-gradient-45" x1="119.88" y1="394.11" x2="152.73" y2="165.15" xlink:href="#linear-gradient-10"/><linearGradient id="linear-gradient-46" x1="93.12" y1="390.27" x2="125.98" y2="161.31" xlink:href="#linear-gradient-10"/><linearGradient id="linear-gradient-47" x1="376.38" y1="430.92" x2="409.24" y2="201.96" xlink:href="#linear-gradient-10"/><linearGradient id="linear-gradient-48" x1="359.58" y1="428.51" x2="392.44" y2="199.55" xlink:href="#linear-gradient-10"/><linearGradient id="linear-gradient-49" x1="354.33" y1="427.76" x2="387.18" y2="198.79" xlink:href="#linear-gradient-10"/><linearGradient id="linear-gradient-50" x1="314.33" y1="422.02" x2="347.18" y2="193.05" xlink:href="#linear-gradient-10"/><linearGradient id="linear-gradient-51" x1="336.13" y1="425.14" x2="368.99" y2="196.18" xlink:href="#linear-gradient-10"/><linearGradient id="linear-gradient-52" x1="268.81" y1="415.48" x2="301.67" y2="186.52" xlink:href="#linear-gradient-10"/><linearGradient id="linear-gradient-53" x1="290.06" y1="418.53" x2="322.91" y2="189.57" xlink:href="#linear-gradient-10"/><linearGradient id="linear-gradient-54" x1="310.8" y1="421.51" x2="343.66" y2="192.55" xlink:href="#linear-gradient-10"/><linearGradient id="linear-gradient-55" x1="331.74" y1="424.51" x2="364.6" y2="195.55" xlink:href="#linear-gradient-10"/><linearGradient id="linear-gradient-56" x1="270.51" y1="415.73" x2="303.37" y2="186.76" xlink:href="#linear-gradient-10"/><linearGradient id="linear-gradient-57" x1="98.17" y1="391" x2="131.03" y2="162.03" xlink:href="#linear-gradient-10"/><linearGradient id="linear-gradient-58" x1="124.71" y1="394.81" x2="157.56" y2="165.84" xlink:href="#linear-gradient-10"/><linearGradient id="linear-gradient-59" x1="247.57" y1="412.44" x2="280.42" y2="183.47" xlink:href="#linear-gradient-10"/><linearGradient id="linear-gradient-60" x1="382.76" y1="431.84" x2="415.62" y2="202.87" xlink:href="#linear-gradient-10"/><linearGradient id="linear-gradient-61" x1="197.77" y1="405.29" x2="230.63" y2="176.33" xlink:href="#linear-gradient-10"/><linearGradient id="linear-gradient-62" x1="223.98" y1="409.05" x2="256.84" y2="180.09" xlink:href="#linear-gradient-10"/><linearGradient id="linear-gradient-63" x1="248.28" y1="412.54" x2="281.13" y2="183.58" xlink:href="#linear-gradient-10"/><linearGradient id="linear-gradient-64" x1="173.56" y1="401.82" x2="206.42" y2="172.85" xlink:href="#linear-gradient-10"/><linearGradient id="linear-gradient-65" x1="292.71" y1="418.91" x2="325.57" y2="189.95" xlink:href="#linear-gradient-10"/><linearGradient id="linear-gradient-66" x1="149.32" y1="398.34" x2="182.17" y2="169.37" xlink:href="#linear-gradient-10"/><linearGradient id="linear-gradient-67" x1="272.31" y1="415.99" x2="305.16" y2="187.02" xlink:href="#linear-gradient-10"/><linearGradient id="linear-gradient-68" x1="295.47" y1="419.31" x2="328.32" y2="190.35" xlink:href="#linear-gradient-10"/><linearGradient id="linear-gradient-69" x1="224.22" y1="409.09" x2="257.08" y2="180.12" xlink:href="#linear-gradient-10"/><linearGradient id="linear-gradient-70" x1="340.68" y1="425.8" x2="373.53" y2="196.83" xlink:href="#linear-gradient-10"/><linearGradient id="linear-gradient-71" x1="365.04" y1="429.29" x2="397.89" y2="200.33" xlink:href="#linear-gradient-10"/><linearGradient id="linear-gradient-72" x1="387.82" y1="432.56" x2="420.67" y2="203.6" xlink:href="#linear-gradient-10"/><linearGradient id="linear-gradient-73" x1="196.3" y1="405.08" x2="229.16" y2="176.12" xlink:href="#linear-gradient-10"/><linearGradient id="linear-gradient-74" x1="317.99" y1="422.54" x2="350.85" y2="193.58" xlink:href="#linear-gradient-10"/><linearGradient id="linear-gradient-75" x1="176" y1="402.17" x2="208.85" y2="173.2" xlink:href="#linear-gradient-10"/><linearGradient id="linear-gradient-76" x1="152.87" y1="398.85" x2="185.72" y2="169.88" xlink:href="#linear-gradient-10"/><linearGradient id="linear-gradient-77" x1="129.47" y1="395.49" x2="162.32" y2="166.53" xlink:href="#linear-gradient-10"/><linearGradient id="linear-gradient-78" x1="209.58" y1="406.98" x2="242.44" y2="178.02" xlink:href="#linear-gradient-10"/><linearGradient id="linear-gradient-79" x1="199.11" y1="405.48" x2="231.97" y2="176.53" xlink:href="#linear-gradient-10"/><linearGradient id="linear-gradient-80" x1="104.99" y1="391.98" x2="137.85" y2="163.01" xlink:href="#linear-gradient-10"/><linearGradient id="linear-gradient-81" x1="145.6" y1="397.8" x2="178.46" y2="168.84" xlink:href="#linear-gradient-10"/><linearGradient id="linear-gradient-82" x1="119.8" y1="394.1" x2="152.66" y2="165.14" xlink:href="#linear-gradient-10"/><linearGradient id="linear-gradient-83" x1="93.08" y1="390.27" x2="125.94" y2="161.3" xlink:href="#linear-gradient-10"/><linearGradient id="linear-gradient-84" x1="-3441.94" y1="601.66" x2="-3437.06" y2="630.66" gradientTransform="matrix(-1, 0, 0, 1, -3127.99, 0)" xlink:href="#linear-gradient-10"/><linearGradient id="linear-gradient-85" x1="-3496.36" y1="316.17" x2="-3483.03" y2="316.17" gradientTransform="matrix(-1, 0, 0, 1, -3127.99, 0)" xlink:href="#linear-gradient-2"/><linearGradient id="linear-gradient-86" x1="-3495.09" y1="312.42" x2="-3491.23" y2="312.42" gradientTransform="matrix(-1, 0, 0, 1, -3127.99, 0)" gradientUnits="userSpaceOnUse"><stop offset="0" stop-color="#a22b25"/><stop offset="1" stop-color="#c0423c"/></linearGradient><linearGradient id="linear-gradient-87" x1="-3472.57" y1="606.81" x2="-3467.69" y2="635.81" gradientTransform="matrix(-1, 0, 0, 1, -3127.99, 0)" xlink:href="#linear-gradient-10"/><linearGradient id="linear-gradient-88" x1="-3523.66" y1="314.52" x2="-3515.95" y2="314.52" gradientTransform="matrix(-1, 0, 0, 1, -3127.99, 0)" xlink:href="#linear-gradient-2"/><linearGradient id="linear-gradient-89" x1="-3519.65" y1="309.2" x2="-3515.04" y2="309.2" xlink:href="#linear-gradient-86"/><linearGradient id="linear-gradient-90" x1="386.11" y1="261.89" x2="419.82" y2="204.73" xlink:href="#linear-gradient-10"/><linearGradient id="linear-gradient-91" x1="-3461.59" y1="212.82" x2="-3567.43" y2="304.88" gradientTransform="matrix(-1, 0, 0, 1, -3127.99, 0)" xlink:href="#linear-gradient-10"/><linearGradient id="linear-gradient-92" x1="-3504.09" y1="292.1" x2="-3501.88" y2="287.68" gradientTransform="matrix(-1, 0, 0, 1, -3127.99, 0)" gradientUnits="userSpaceOnUse"><stop offset="0" stop-color="#53d8ff"/><stop offset="1" stop-color="#3840f7"/></linearGradient><linearGradient id="linear-gradient-93" x1="-3498.5" y1="241.9" x2="-3514.94" y2="256.46" xlink:href="#linear-gradient-86"/><linearGradient id="linear-gradient-94" x1="-3470.41" y1="203.07" x2="-3575.78" y2="294.71" gradientTransform="matrix(-1, 0, 0, 1, -3127.99, 0)" xlink:href="#linear-gradient-10"/><linearGradient id="linear-gradient-95" x1="-3453.85" y1="222.11" x2="-3559.22" y2="313.75" gradientTransform="matrix(-1, 0, 0, 1, -3127.99, 0)" xlink:href="#linear-gradient-10"/><linearGradient id="linear-gradient-96" x1="-3467.69" y1="243.28" x2="-3454.75" y2="243.28" xlink:href="#linear-gradient-86"/><linearGradient id="linear-gradient-97" x1="-3480.27" y1="208.69" x2="-3480.41" y2="232.86" xlink:href="#linear-gradient-86"/><linearGradient id="linear-gradient-98" x1="-3785.7" y1="1405.33" x2="-3797.6" y2="1421.07" gradientTransform="matrix(-0.99, -0.14, -0.14, 0.99, -3201.59, -1726.74)" xlink:href="#linear-gradient-86"/><linearGradient id="linear-gradient-99" x1="-3794.79" y1="1409.13" x2="-3780.58" y2="1409.13" gradientTransform="matrix(-0.99, -0.14, -0.14, 0.99, -3201.59, -1726.74)" xlink:href="#linear-gradient-2"/><linearGradient id="linear-gradient-100" x1="-3803.13" y1="1417.79" x2="-3793.59" y2="1408" gradientTransform="matrix(-0.99, -0.14, -0.14, 0.99, -3201.59, -1726.74)" xlink:href="#linear-gradient-86"/><linearGradient id="linear-gradient-101" x1="-3456.12" y1="241.76" x2="-3451.49" y2="241.76" gradientTransform="matrix(-1, 0, 0, 1, -3127.99, 0)" gradientUnits="userSpaceOnUse"><stop offset="0" stop-color="#ff928e"/><stop offset="1" stop-color="#feb3b1"/></linearGradient><linearGradient id="linear-gradient-102" x1="268.97" y1="238.09" x2="397.58" y2="268.13" xlink:href="#linear-gradient-2"/><linearGradient id="linear-gradient-103" x1="-3397.61" y1="237.52" x2="-3371.86" y2="215.14" gradientTransform="matrix(-1, 0, 0, 1, -3127.99, 0)" xlink:href="#linear-gradient-2"/><linearGradient id="linear-gradient-104" x1="269.35" y1="178.51" x2="267.98" y2="199.56" gradientTransform="matrix(1, 0, 0, 1, 0, 0)" xlink:href="#linear-gradient-101"/><linearGradient id="linear-gradient-105" x1="-3492.01" y1="249.23" x2="-3508.44" y2="263.79" xlink:href="#linear-gradient-86"/><linearGradient id="linear-gradient-106" x1="108.77" y1="95.7" x2="113.07" y2="210.3" xlink:href="#linear-gradient"/><linearGradient id="linear-gradient-107" x1="99.27" y1="178.18" x2="123.32" y2="178.18" xlink:href="#linear-gradient"/><linearGradient id="linear-gradient-108" x1="65.99" y1="94.5" x2="105" y2="184.34" xlink:href="#linear-gradient-10"/><linearGradient id="linear-gradient-109" x1="65.57" y1="94.68" x2="104.59" y2="184.52" xlink:href="#linear-gradient-10"/><linearGradient id="linear-gradient-110" x1="66.75" y1="94.17" x2="105.77" y2="184.01" xlink:href="#linear-gradient-10"/><linearGradient id="linear-gradient-111" x1="66.4" y1="94.32" x2="105.42" y2="184.16" xlink:href="#linear-gradient-10"/><linearGradient id="linear-gradient-112" x1="65.16" y1="94.86" x2="104.17" y2="184.7" xlink:href="#linear-gradient-10"/><linearGradient id="linear-gradient-113" x1="25.34" y1="133.15" x2="94.65" y2="197.5" xlink:href="#linear-gradient-4"/><linearGradient id="linear-gradient-114" x1="26.5" y1="131.9" x2="95.81" y2="196.25" xlink:href="#linear-gradient-4"/><linearGradient id="linear-gradient-115" x1="23.06" y1="135.61" x2="92.36" y2="199.96" xlink:href="#linear-gradient-4"/><linearGradient id="linear-gradient-116" x1="24.18" y1="134.4" x2="93.49" y2="198.74" xlink:href="#linear-gradient-4"/><linearGradient id="linear-gradient-117" x1="27.58" y1="130.74" x2="96.89" y2="195.08" xlink:href="#linear-gradient-4"/><linearGradient id="linear-gradient-118" x1="340.73" y1="119.18" x2="333.64" y2="142.66" gradientUnits="userSpaceOnUse"><stop offset="0" stop-color="#e1473d"/><stop offset="1" stop-color="#e9605a"/></linearGradient><linearGradient id="linear-gradient-119" x1="340.24" y1="133.09" x2="288.04" y2="210.12" gradientTransform="matrix(1, 0, 0, 1, 0, 0)" xlink:href="#linear-gradient-101"/><linearGradient id="linear-gradient-120" x1="348.67" y1="147.45" x2="297.85" y2="172.09" xlink:href="#linear-gradient-4"/><linearGradient id="_16" x1="502.04" y1="55.88" x2="491.26" y2="90.79" gradientUnits="userSpaceOnUse"><stop offset="0" stop-color="#4042e2"/><stop offset="0.58" stop-color="#4143e4"/><stop offset="0.78" stop-color="#4447eb"/><stop offset="0.93" stop-color="#4b4df6"/><stop offset="1" stop-color="#4f52ff"/></linearGradient><linearGradient id="linear-gradient-121" x1="462.84" y1="125.5" x2="469.51" y2="207.64" xlink:href="#linear-gradient-10"/></defs><path class="cls-1" d="M109.54,77.07C83.69,97.23,65.41,81.66,49.79,103,1,169.62,62.81,194.87,34.12,205.08,3,216.18,22.34,265.14,39.88,279.29S70.45,302,45.54,316.41,16.27,346.87,26.72,372.9,57,407.13,139.2,408.67s241.53-1.73,285-16.54,11.77-52.92,30-81.38,21.86-45.18-6.12-72.79-12-56.19-3.64-76.34,14.86-56.71-18.85-67.13-72.92,31.17-89.87,10-9.5-49.16-46.53-42.11-49.48,61.68-81.78,58.67S164.34,34.33,109.54,77.07Z" transform="translate(-6.32 -61.31)"/><path class="cls-2" d="M114.32,396S148.4,292.8,40.45,181.92C40.45,181.92,1.22,319.08,114.32,396Z" transform="translate(-6.32 -61.31)"/><path class="cls-3" d="M107.22,371.43a.28.28,0,0,1-.23-.13c-19.21-33.35-34.58-76-44.09-106-10.3-32.43-16.14-57.29-16.19-57.54a.25.25,0,0,1,.19-.31.27.27,0,0,1,.31.2c0,.24,5.89,25.09,16.18,57.5,9.51,29.9,24.86,72.54,44.05,105.85a.25.25,0,0,1-.1.35A.19.19,0,0,1,107.22,371.43Z" transform="translate(-6.32 -61.31)"/><path class="cls-4" d="M492.49,136.12s20.36,144.14-107.26,154.11C385.23,290.23,386.08,186.93,492.49,136.12Z" transform="translate(-6.32 -61.31)"/><path class="cls-2" d="M373,294s-34.08-103.17,73.87-214C446.87,79.9,486.1,217.06,373,294Z" transform="translate(-6.32 -61.31)"/><path class="cls-5" d="M386.76,366.52c-89-16.2-153.5-13.51-194.59-7.36,2.74,7.75,5.47,19.88,2.48,33.1a538.07,538.07,0,0,0,192.59-12.19C394.46,378.23,394.09,367.85,386.76,366.52Z" transform="translate(-6.32 -61.31)"/><path class="cls-5" d="M192.17,359.16c-36.66,5.48-54.65,13.7-54.65,13.7l.4,9.2a495.27,495.27,0,0,0,56.73,10.2C197.64,379,194.91,366.91,192.17,359.16Z" transform="translate(-6.32 -61.31)"/><path class="cls-4" d="M65.28,375.27s25.55,21.93,49,20.7,25.88-12.13,25.19-21.91-9.53-23.6-26.25-19.94C90.16,359.17,80.6,375.45,65.28,375.27Z" transform="translate(-6.32 -61.31)"/><path class="cls-2" d="M112.41,391.33a53.84,53.84,0,0,1-16.24-2.82,98.26,98.26,0,0,1-21.73-10.26.26.26,0,0,1-.08-.35.27.27,0,0,1,.36-.08A98,98,0,0,0,96.33,388c10.9,3.47,25.93,5.4,35.67-5.1a.27.27,0,0,1,.37,0,.25.25,0,0,1,0,.36,25.34,25.34,0,0,1-17.2,8C114.27,391.3,113.35,391.33,112.41,391.33Z" transform="translate(-6.32 -61.31)"/><path class="cls-3" d="M144.14,373.23a.26.26,0,0,1-.09-.5c.25-.09,24.85-8.51,45.68-10.08a.25.25,0,0,1,.27.23.26.26,0,0,1-.23.28c-20.76,1.56-45.3,10-45.55,10Z" transform="translate(-6.32 -61.31)"/><polygon class="cls-6" points="215.91 261.22 208.53 327.38 294.11 327.38 282.97 261.22 215.91 261.22"/><path class="cls-7" d="M78.48,159.55V311.06a23,23,0,0,0,22.39,23c55.34,1.43,248.88,4.89,301.56,4.11a16.91,16.91,0,0,0,16.65-16.43c1-35.19,2.67-119.83-3.44-159.12A17.4,17.4,0,0,0,399,147.85c-46.37-1.48-251.54-6.19-304.19-5A16.72,16.72,0,0,0,78.48,159.55Z" transform="translate(-6.32 -61.31)"/><path class="cls-8" d="M88,158.81V302.75a13.33,13.33,0,0,0,13.12,13.32l293.75,3.63A13,13,0,0,0,408,306.79l.49-142.66a9.48,9.48,0,0,0-9.25-9.51L98.5,148.55A10.26,10.26,0,0,0,88,158.81Z" transform="translate(-6.32 -61.31)"/><path class="cls-9" d="M410.22,325.45h0L88,320a.26.26,0,0,1-.25-.26.26.26,0,0,1,.26-.26l322.23,5.49a.26.26,0,0,1,.25.27A.25.25,0,0,1,410.22,325.45Z" transform="translate(-6.32 -61.31)"/><path class="cls-9" d="M252.28,332.15a3.61,3.61,0,1,1,3.61-3.61A3.61,3.61,0,0,1,252.28,332.15Zm0-6.7a3.1,3.1,0,1,0,3.1,3.09A3.1,3.1,0,0,0,252.28,325.45Z" transform="translate(-6.32 -61.31)"/><g class="cls-10"><path class="cls-11" d="M182.71,304.05h-67a6,6,0,0,1-6-6V210.69a6,6,0,0,1,6-6h71.93a6,6,0,0,1,6,6.31l-4.92,87.38A6,6,0,0,1,182.71,304.05Z" transform="translate(-6.32 -61.31)"/><path class="cls-3" d="M182.71,299.49h-1.55a.51.51,0,1,1,0-1h1.55a.39.39,0,0,0,.36-.23.52.52,0,0,1,.69-.23.51.51,0,0,1,.23.69A1.41,1.41,0,0,1,182.71,299.49Zm-4.11,0H176a.51.51,0,1,1,0-1h2.57a.51.51,0,0,1,0,1Zm-5.14,0H170.9a.51.51,0,1,1,0-1h2.56a.51.51,0,1,1,0,1Zm-5.13,0h-2.57a.51.51,0,0,1,0-1h2.57a.51.51,0,1,1,0,1Zm-5.13,0h-2.57a.51.51,0,0,1,0-1h2.57a.51.51,0,0,1,0,1Zm-5.14,0H155.5a.51.51,0,1,1,0-1h2.56a.51.51,0,1,1,0,1Zm-5.13,0h-2.57a.51.51,0,1,1,0-1h2.57a.51.51,0,0,1,0,1Zm-5.13,0h-2.57a.51.51,0,0,1,0-1h2.57a.51.51,0,0,1,0,1Zm-5.14,0H140.1a.51.51,0,1,1,0-1h2.56a.51.51,0,1,1,0,1Zm-5.13,0H135a.51.51,0,1,1,0-1h2.57a.51.51,0,0,1,0,1Zm-5.14,0h-2.56a.51.51,0,1,1,0-1h2.56a.51.51,0,1,1,0,1Zm-5.13,0h-2.57a.51.51,0,0,1,0-1h2.57a.51.51,0,0,1,0,1Zm-5.13,0h-2.57a.51.51,0,0,1,0-1h2.57a.51.51,0,1,1,0,1Zm-5.14,0H115.7a1.43,1.43,0,0,1-1.43-1.42v-1.14a.52.52,0,0,1,1,0v1.14a.4.4,0,0,0,.4.4H117a.51.51,0,1,1,0,1Zm66.76-3.06h0a.51.51,0,0,1-.48-.54l.14-2.56a.52.52,0,0,1,1,.06l-.15,2.56A.51.51,0,0,1,183.75,296.43Zm-69-1.55a.51.51,0,0,1-.51-.51V291.8a.52.52,0,0,1,1,0v2.57A.51.51,0,0,1,114.78,294.88ZM184,291.31h0a.52.52,0,0,1-.49-.54l.15-2.57a.51.51,0,0,1,1,.06l-.14,2.56A.51.51,0,0,1,184,291.31Zm-69.26-1.56a.51.51,0,0,1-.51-.52v-2.56a.52.52,0,1,1,1,0v2.56A.52.52,0,0,1,114.78,289.75Zm69.55-3.57h0a.51.51,0,0,1-.49-.54l.15-2.56a.51.51,0,1,1,1,.06l-.14,2.56A.51.51,0,0,1,184.33,286.18Zm-69.55-1.57a.51.51,0,0,1-.51-.51v-2.57a.52.52,0,0,1,1,0v2.57A.51.51,0,0,1,114.78,284.61Zm69.83-3.55h0a.51.51,0,0,1-.48-.54l.14-2.57a.52.52,0,0,1,.55-.48.51.51,0,0,1,.48.54l-.14,2.56A.52.52,0,0,1,184.61,281.06Zm-69.83-1.58a.51.51,0,0,1-.51-.51V276.4a.52.52,0,0,1,1,0V279A.51.51,0,0,1,114.78,279.48Zm70.12-3.55h0a.51.51,0,0,1-.48-.54l.14-2.56a.53.53,0,0,1,.54-.49.52.52,0,0,1,.49.54l-.15,2.57A.51.51,0,0,1,184.9,275.93Zm-70.12-1.58a.51.51,0,0,1-.51-.52v-2.56a.52.52,0,1,1,1,0v2.56A.52.52,0,0,1,114.78,274.35Zm70.41-3.54h0a.52.52,0,0,1-.48-.55l.14-2.56a.52.52,0,0,1,1,.06l-.15,2.56A.52.52,0,0,1,185.19,270.81Zm-70.41-1.6a.51.51,0,0,1-.51-.51v-2.57a.52.52,0,0,1,1,0v2.57A.51.51,0,0,1,114.78,269.21Zm70.7-3.53h0a.53.53,0,0,1-.49-.54l.15-2.56a.51.51,0,1,1,1,.05L186,265.2A.51.51,0,0,1,185.48,265.68Zm-70.7-1.6a.51.51,0,0,1-.51-.51V261a.52.52,0,0,1,1,0v2.57A.51.51,0,0,1,114.78,264.08Zm71-3.53h0a.51.51,0,0,1-.49-.54l.15-2.56a.51.51,0,0,1,.54-.48.5.5,0,0,1,.48.54l-.14,2.56A.51.51,0,0,1,185.77,260.55Zm-71-1.6a.51.51,0,0,1-.51-.52v-2.56a.52.52,0,1,1,1,0v2.56A.52.52,0,0,1,114.78,259Zm71.27-3.52h0a.52.52,0,0,1-.48-.54l.14-2.57a.53.53,0,0,1,.55-.48.51.51,0,0,1,.48.54l-.14,2.56A.52.52,0,0,1,186.05,255.43Zm-71.27-1.62a.51.51,0,0,1-.51-.51v-2.57a.52.52,0,0,1,1,0v2.57A.51.51,0,0,1,114.78,253.81Zm71.56-3.51h0a.51.51,0,0,1-.48-.54l.14-2.56a.52.52,0,0,1,1,.06l-.15,2.56A.51.51,0,0,1,186.34,250.3Zm-71.56-1.62a.51.51,0,0,1-.51-.52V245.6a.52.52,0,1,1,1,0v2.56A.52.52,0,0,1,114.78,248.68Zm71.85-3.5h0a.51.51,0,0,1-.48-.54l.14-2.57a.51.51,0,0,1,.54-.48.52.52,0,0,1,.49.54l-.15,2.56A.51.51,0,0,1,186.63,245.18Zm-71.85-1.64a.51.51,0,0,1-.51-.51v-2.57a.52.52,0,0,1,1,0V243A.51.51,0,0,1,114.78,243.54Zm72.14-3.49h0a.51.51,0,0,1-.48-.54l.14-2.56a.51.51,0,1,1,1,.06l-.14,2.56A.51.51,0,0,1,186.92,240.05Zm-72.14-1.64a.51.51,0,0,1-.51-.51v-2.57a.52.52,0,0,1,1,0v2.57A.51.51,0,0,1,114.78,238.41Zm72.43-3.48h0a.52.52,0,0,1-.49-.55l.15-2.56a.51.51,0,0,1,.54-.48.51.51,0,0,1,.48.54l-.14,2.56A.51.51,0,0,1,187.21,234.93Zm-72.43-1.65a.51.51,0,0,1-.51-.52V230.2a.52.52,0,1,1,1,0v2.56A.52.52,0,0,1,114.78,233.28Zm72.71-3.48h0a.52.52,0,0,1-.48-.54l.15-2.56a.51.51,0,1,1,1,.05l-.14,2.57A.52.52,0,0,1,187.49,229.8Zm-72.71-1.66a.51.51,0,0,1-.51-.51v-2.57a.52.52,0,0,1,1,0v2.57A.51.51,0,0,1,114.78,228.14Zm73-3.46h0a.5.5,0,0,1-.48-.54l.14-2.56a.52.52,0,0,1,1,.06l-.15,2.56A.52.52,0,0,1,187.78,224.68Zm-73-1.67a.51.51,0,0,1-.51-.51v-2.57a.52.52,0,0,1,1,0v2.57A.51.51,0,0,1,114.78,223Zm73.29-3.46h0a.51.51,0,0,1-.48-.54l.14-2.56a.52.52,0,1,1,1,.05l-.15,2.57A.51.51,0,0,1,188.07,219.55Zm-73.29-1.67a.51.51,0,0,1-.51-.52V214.8a.52.52,0,1,1,1,0v2.56A.52.52,0,0,1,114.78,217.88Zm73.58-3.46h0a.5.5,0,0,1-.48-.54l.14-2.56a.51.51,0,0,1,.54-.48.5.5,0,0,1,.48.54l-.14,2.56A.51.51,0,0,1,188.36,214.42Zm-73.58-1.68a.51.51,0,0,1-.51-.51v-1.54a1.44,1.44,0,0,1,.81-1.29.51.51,0,0,1,.68.24.51.51,0,0,1-.24.69.39.39,0,0,0-.22.36v1.54A.51.51,0,0,1,114.78,212.74Zm72.38-2.45h-2.57a.52.52,0,0,1,0-1h2.57a.52.52,0,0,1,0,1Zm-5.14,0h-2.56a.52.52,0,1,1,0-1H182a.52.52,0,1,1,0,1Zm-5.13,0h-2.57a.52.52,0,0,1,0-1h2.57a.52.52,0,0,1,0,1Zm-5.13,0h-2.57a.52.52,0,0,1,0-1h2.57a.52.52,0,0,1,0,1Zm-5.14,0h-2.56a.52.52,0,1,1,0-1h2.56a.52.52,0,1,1,0,1Zm-5.13,0h-2.57a.52.52,0,0,1,0-1h2.57a.52.52,0,0,1,0,1Zm-5.13,0h-2.57a.52.52,0,0,1,0-1h2.57a.52.52,0,0,1,0,1Zm-5.14,0h-2.56a.52.52,0,1,1,0-1h2.56a.52.52,0,1,1,0,1Zm-5.13,0h-2.57a.52.52,0,0,1,0-1h2.57a.52.52,0,0,1,0,1Zm-5.14,0h-2.56a.52.52,0,1,1,0-1H141a.52.52,0,1,1,0,1Zm-5.13,0h-2.57a.52.52,0,0,1,0-1h2.57a.52.52,0,0,1,0,1Zm-5.13,0h-2.57a.52.52,0,0,1,0-1h2.57a.52.52,0,0,1,0,1Zm-5.14,0H123a.52.52,0,1,1,0-1h2.56a.52.52,0,1,1,0,1Zm-5.13,0h-2.57a.52.52,0,0,1,0-1h2.57a.52.52,0,0,1,0,1Z" transform="translate(-6.32 -61.31)"/><path class="cls-3" d="M284.6,304.56H282a.52.52,0,0,1,0-1h2.57a5.39,5.39,0,0,0,2.18-.45.52.52,0,0,1,.68.27.51.51,0,0,1-.26.67A6.44,6.44,0,0,1,284.6,304.56Zm-5.13,0H276.9a.52.52,0,0,1,0-1h2.57a.52.52,0,0,1,0,1Zm-5.14,0h-2.56a.52.52,0,1,1,0-1h2.56a.52.52,0,1,1,0,1Zm-5.13,0h-2.57a.52.52,0,0,1,0-1h2.57a.52.52,0,0,1,0,1Zm-5.14,0H261.5a.52.52,0,1,1,0-1h2.56a.52.52,0,1,1,0,1Zm-5.13,0h-2.57a.52.52,0,0,1,0-1h2.57a.52.52,0,0,1,0,1Zm-5.13,0h-2.57a.52.52,0,0,1,0-1h2.57a.52.52,0,0,1,0,1Zm-5.14,0H246.1a.52.52,0,1,1,0-1h2.56a.52.52,0,1,1,0,1Zm-5.13,0H241a.52.52,0,0,1,0-1h2.57a.52.52,0,0,1,0,1Zm-5.13,0h-2.57a.52.52,0,0,1,0-1h2.57a.52.52,0,0,1,0,1Zm-5.14,0H230.7a.52.52,0,1,1,0-1h2.56a.52.52,0,1,1,0,1Zm-5.13,0h-2.57a.52.52,0,0,1,0-1h2.57a.52.52,0,0,1,0,1Zm-5.13,0h-2.57a.52.52,0,1,1,0-1H223a.52.52,0,0,1,0,1Zm-5.14,0h-2.57a.52.52,0,0,1,0-1h2.57a.52.52,0,0,1,0,1Zm-5.13,0h-2.57a.52.52,0,0,1,0-1h2.57a.52.52,0,0,1,0,1Zm-5.14,0h-.13a6.46,6.46,0,0,1-2.57-.53.51.51,0,0,1-.27-.67.53.53,0,0,1,.68-.27,5.49,5.49,0,0,0,2.16.44h.13a.52.52,0,1,1,0,1Zm-4.56-2a.56.56,0,0,1-.39-.17,6.61,6.61,0,0,1-1.37-2.4.5.5,0,0,1,.33-.64.52.52,0,0,1,.65.33,5.39,5.39,0,0,0,1.16,2,.52.52,0,0,1,0,.73A.5.5,0,0,1,203,302.59Zm86,0a.5.5,0,0,1-.34-.13.51.51,0,0,1,0-.72,5.62,5.62,0,0,0,1.15-2,.51.51,0,1,1,1,.31,6.44,6.44,0,0,1-1.36,2.4A.56.56,0,0,1,289.05,302.57Zm-87.53-4.73h0a.51.51,0,0,1-.49-.54l.15-2.56a.52.52,0,0,1,.54-.49.52.52,0,0,1,.48.55l-.14,2.56A.51.51,0,0,1,201.52,297.84Zm89,0a.51.51,0,0,1-.51-.48l-.15-2.57a.51.51,0,0,1,.48-.54.51.51,0,0,1,.54.48l.16,2.56a.52.52,0,0,1-.48.55Zm-88.74-5.1h0a.51.51,0,0,1-.48-.54l.14-2.57a.52.52,0,0,1,.55-.48.51.51,0,0,1,.48.54l-.14,2.56A.52.52,0,0,1,201.8,292.72Zm88.43,0a.51.51,0,0,1-.51-.48l-.16-2.56a.52.52,0,0,1,1-.06l.15,2.56a.5.5,0,0,1-.48.54Zm-88.14-5.1h0a.51.51,0,0,1-.48-.54l.14-2.56a.53.53,0,0,1,.54-.49.52.52,0,0,1,.49.54l-.15,2.57A.51.51,0,0,1,202.09,287.59Zm87.83,0a.51.51,0,0,1-.51-.48l-.16-2.56a.52.52,0,0,1,.48-.55.5.5,0,0,1,.54.48l.16,2.57a.51.51,0,0,1-.48.54Zm-87.54-5.1h0a.52.52,0,0,1-.48-.55l.14-2.56a.51.51,0,0,1,.54-.48.52.52,0,0,1,.49.54l-.15,2.56A.51.51,0,0,1,202.38,282.47Zm87.23,0a.52.52,0,0,1-.52-.49l-.15-2.56a.51.51,0,0,1,.48-.54.51.51,0,0,1,.54.48l.16,2.56a.52.52,0,0,1-.48.55Zm-86.94-5.11h0a.53.53,0,0,1-.49-.54l.15-2.56a.51.51,0,1,1,1,.05l-.14,2.57A.51.51,0,0,1,202.67,277.34Zm86.62,0a.51.51,0,0,1-.51-.48l-.16-2.56a.53.53,0,0,1,.49-.55.51.51,0,0,1,.54.49l.16,2.56a.52.52,0,0,1-.49.54ZM203,272.22h0a.51.51,0,0,1-.49-.54l.15-2.56a.51.51,0,0,1,.54-.48.5.5,0,0,1,.48.54l-.14,2.56A.52.52,0,0,1,203,272.22Zm86,0a.51.51,0,0,1-.51-.48l-.16-2.57a.52.52,0,0,1,1-.06l.15,2.56a.51.51,0,0,1-.48.55Zm-85.74-5.11h0a.51.51,0,0,1-.48-.54l.14-2.57a.52.52,0,0,1,.55-.48.51.51,0,0,1,.48.54l-.14,2.57A.52.52,0,0,1,203.24,267.09Zm85.43,0a.51.51,0,0,1-.51-.48L288,264a.51.51,0,0,1,.48-.54.49.49,0,0,1,.54.48l.16,2.56a.51.51,0,0,1-.48.54ZM203.53,262h0a.5.5,0,0,1-.48-.54l.14-2.56a.52.52,0,0,1,1,.06l-.15,2.56A.51.51,0,0,1,203.53,262Zm84.83,0a.52.52,0,0,1-.52-.48l-.15-2.56a.52.52,0,0,1,.48-.55.51.51,0,0,1,.54.48l.16,2.57a.51.51,0,0,1-.48.54Zm-84.54-5.11h0a.51.51,0,0,1-.48-.54l.14-2.57a.53.53,0,0,1,.54-.48.52.52,0,0,1,.49.54l-.15,2.56A.51.51,0,0,1,203.82,256.84Zm84.22,0a.51.51,0,0,1-.51-.49l-.16-2.56a.52.52,0,0,1,1-.06l.16,2.56a.51.51,0,0,1-.49.54Zm-83.93-5.12h0a.52.52,0,0,1-.49-.54l.15-2.56a.51.51,0,1,1,1,.06l-.14,2.56A.51.51,0,0,1,204.11,251.71Zm83.62,0a.51.51,0,0,1-.51-.48l-.16-2.56a.52.52,0,0,1,1-.07l.15,2.57a.51.51,0,0,1-.48.54Zm-83.33-5.11h0a.52.52,0,0,1-.49-.54l.15-2.57a.51.51,0,0,1,1,.06l-.14,2.56A.51.51,0,0,1,204.4,246.59Zm83,0a.51.51,0,0,1-.51-.48l-.16-2.57a.51.51,0,0,1,.48-.54.5.5,0,0,1,.54.48l.16,2.56a.52.52,0,0,1-.48.55Zm-82.74-5.12h0a.52.52,0,0,1-.48-.54l.15-2.56a.51.51,0,1,1,1,0L205.2,241A.52.52,0,0,1,204.68,241.46Zm82.42,0a.52.52,0,0,1-.51-.48l-.15-2.56a.51.51,0,1,1,1-.06l.16,2.56a.52.52,0,0,1-.48.54ZM205,236.34h0a.52.52,0,0,1-.48-.55l.14-2.56a.52.52,0,0,1,1,.06l-.15,2.56A.52.52,0,0,1,205,236.34Zm81.82,0a.51.51,0,0,1-.51-.48l-.16-2.57a.52.52,0,0,1,.49-.54.51.51,0,0,1,.54.48l.16,2.56a.52.52,0,0,1-.49.55Zm-81.53-5.12h0a.51.51,0,0,1-.48-.54l.14-2.56a.52.52,0,1,1,1,0l-.15,2.57A.51.51,0,0,1,205.26,231.21Zm81.22,0a.5.5,0,0,1-.51-.48l-.16-2.56a.51.51,0,0,1,.48-.54.52.52,0,0,1,.55.48l.15,2.56a.51.51,0,0,1-.48.54Zm-80.93-5.12h0a.5.5,0,0,1-.48-.54l.14-2.56a.51.51,0,0,1,.54-.48.5.5,0,0,1,.48.54l-.14,2.56A.51.51,0,0,1,205.55,226.08Zm80.62,0a.51.51,0,0,1-.51-.48L285.5,223a.52.52,0,0,1,.48-.55.5.5,0,0,1,.54.48l.16,2.57a.51.51,0,0,1-.48.54ZM205.84,221h0a.52.52,0,0,1-.49-.54l.15-2.57a.51.51,0,0,1,1,.06l-.14,2.56A.51.51,0,0,1,205.84,221Zm80,0a.52.52,0,0,1-.51-.49l-.15-2.56a.51.51,0,0,1,.48-.54.51.51,0,0,1,.54.48l.16,2.56a.53.53,0,0,1-.48.55Zm-79.73-5.13h0a.51.51,0,0,1-.49-.54l.15-2.56a.52.52,0,0,1,.54-.49.52.52,0,0,1,.48.55l-.14,2.56A.52.52,0,0,1,206.12,215.83Zm79.42,0a.51.51,0,0,1-.51-.48l-.16-2.56a.53.53,0,0,1,.48-.55.52.52,0,0,1,.55.49l.15,2.56a.51.51,0,0,1-.48.54Zm-.31-5.12a.5.5,0,0,1-.51-.47A5.62,5.62,0,0,0,284,208a.52.52,0,0,1,.19-.7.51.51,0,0,1,.7.2,6.45,6.45,0,0,1,.81,2.64.52.52,0,0,1-.47.56Zm-78.82,0h0a.52.52,0,0,1-.47-.56,6.41,6.41,0,0,1,.81-2.64.51.51,0,0,1,.7-.2.52.52,0,0,1,.2.7,5.32,5.32,0,0,0-.68,2.23A.52.52,0,0,1,206.41,210.71Zm76.38-4.34a.49.49,0,0,1-.3-.1,5.38,5.38,0,0,0-2.13-.94.52.52,0,0,1,.21-1,6.55,6.55,0,0,1,2.53,1.12.52.52,0,0,1-.31.93Zm-73.94,0a.51.51,0,0,1-.42-.21.52.52,0,0,1,.12-.72,6.55,6.55,0,0,1,2.53-1.12.52.52,0,0,1,.6.4.51.51,0,0,1-.4.61,5.44,5.44,0,0,0-2.13.94A.49.49,0,0,1,208.85,206.37Zm69.06-1.15h-2.57a.52.52,0,0,1,0-1h2.57a.52.52,0,0,1,0,1Zm-5.14,0h-2.56a.52.52,0,1,1,0-1h2.56a.52.52,0,1,1,0,1Zm-5.13,0h-2.57a.52.52,0,0,1,0-1h2.57a.52.52,0,0,1,0,1Zm-5.13,0h-2.57a.52.52,0,0,1,0-1h2.57a.52.52,0,0,1,0,1Zm-5.14,0h-2.56a.52.52,0,1,1,0-1h2.56a.52.52,0,1,1,0,1Zm-5.13,0h-2.57a.52.52,0,0,1,0-1h2.57a.52.52,0,0,1,0,1Zm-5.14,0h-2.56a.52.52,0,1,1,0-1h2.56a.52.52,0,1,1,0,1Zm-5.13,0H239.4a.52.52,0,0,1,0-1H242a.52.52,0,0,1,0,1Zm-5.13,0h-2.57a.52.52,0,0,1,0-1h2.57a.52.52,0,0,1,0,1Zm-5.14,0h-2.56a.52.52,0,1,1,0-1h2.56a.52.52,0,1,1,0,1Zm-5.13,0H224a.52.52,0,0,1,0-1h2.57a.52.52,0,0,1,0,1Zm-5.13,0h-2.57a.52.52,0,0,1,0-1h2.57a.52.52,0,0,1,0,1Zm-5.14,0h-2.56a.52.52,0,1,1,0-1h2.56a.52.52,0,1,1,0,1Z" transform="translate(-6.32 -61.31)"/><path class="cls-3" d="M382,304.56h-2.57a.52.52,0,0,1,0-1H382a.52.52,0,0,1,0,1Zm-5.13,0h-2.57a.52.52,0,0,1,0-1h2.57a.52.52,0,0,1,0,1Zm-5.14,0h-2.57a.52.52,0,0,1,0-1h2.57a.52.52,0,0,1,0,1Zm-5.13,0H364a.52.52,0,0,1,0-1h2.57a.52.52,0,0,1,0,1Zm-5.14,0h-2.56a.52.52,0,1,1,0-1h2.56a.52.52,0,1,1,0,1Zm-5.13,0h-2.57a.52.52,0,0,1,0-1h2.57a.52.52,0,0,1,0,1Zm-5.13,0h-2.57a.52.52,0,0,1,0-1h2.57a.52.52,0,0,1,0,1Zm-5.14,0h-2.56a.52.52,0,1,1,0-1H346a.52.52,0,1,1,0,1Zm-5.13,0h-2.57a.52.52,0,0,1,0-1h2.57a.52.52,0,0,1,0,1Zm-5.13,0h-2.57a.52.52,0,0,1,0-1h2.57a.52.52,0,0,1,0,1Zm-5.14,0h-2.56a.52.52,0,1,1,0-1h2.56a.52.52,0,1,1,0,1Zm-5.13,0h-2.57a.52.52,0,0,1,0-1h2.57a.52.52,0,0,1,0,1Zm-5.14,0h-2.56a.52.52,0,1,1,0-1h2.56a.52.52,0,1,1,0,1Zm-5.13,0h-2.57a.52.52,0,0,1,0-1h2.57a.52.52,0,0,1,0,1Zm-5.13,0h-.76a6.7,6.7,0,0,1-1.94-.29.51.51,0,0,1-.33-.65.5.5,0,0,1,.64-.33,5.64,5.64,0,0,0,1.63.24h.76a.52.52,0,0,1,0,1Zm73-.11a.51.51,0,0,1-.1-1,5.42,5.42,0,0,0,2.13-.93.51.51,0,0,1,.72.11.52.52,0,0,1-.12.72,6.53,6.53,0,0,1-2.53,1.11ZM305.35,303a.5.5,0,0,1-.34-.13,6.63,6.63,0,0,1-1.62-2.24.52.52,0,0,1,.95-.41,5.63,5.63,0,0,0,1.36,1.89.51.51,0,0,1,0,.72A.52.52,0,0,1,305.35,303Zm81.83-1.5a.47.47,0,0,1-.25-.07.51.51,0,0,1-.19-.7,5.39,5.39,0,0,0,.69-2.22.51.51,0,0,1,.55-.47.53.53,0,0,1,.47.56,6.42,6.42,0,0,1-.82,2.64A.52.52,0,0,1,387.18,301.53Zm-83.83-3.06a.51.51,0,0,1-.51-.48l-.16-2.57a.52.52,0,0,1,.49-.54.51.51,0,0,1,.54.48l.16,2.56a.52.52,0,0,1-.49.55ZM388,296.53a.51.51,0,0,1-.51-.51v-2.57a.51.51,0,1,1,1,0V296A.51.51,0,0,1,388,296.53ZM303,293.34a.51.51,0,0,1-.51-.48l-.16-2.56a.52.52,0,0,1,1-.06l.15,2.56a.51.51,0,0,1-.48.54ZM388,291.4a.51.51,0,0,1-.51-.51v-2.57a.51.51,0,1,1,1,0v2.57A.51.51,0,0,1,388,291.4Zm-85.23-3.18a.51.51,0,0,1-.51-.48l-.16-2.56a.52.52,0,0,1,.48-.55.51.51,0,0,1,.54.48l.16,2.56a.52.52,0,0,1-.48.55Zm85.23-2a.51.51,0,0,1-.51-.52v-2.56a.51.51,0,1,1,1,0v2.56A.51.51,0,0,1,388,286.27Zm-85.55-3.17a.52.52,0,0,1-.51-.49l-.15-2.56a.5.5,0,0,1,.48-.54.51.51,0,0,1,.54.48l.16,2.56a.51.51,0,0,1-.48.54Zm85.55-2a.51.51,0,0,1-.51-.51v-2.57a.51.51,0,1,1,1,0v2.57A.51.51,0,0,1,388,281.13ZM302.1,278a.51.51,0,0,1-.51-.48l-.16-2.56a.52.52,0,0,1,.49-.55.51.51,0,0,1,.54.48l.15,2.57a.51.51,0,0,1-.48.54ZM388,276a.51.51,0,0,1-.51-.51v-2.57a.51.51,0,1,1,1,0v2.57A.51.51,0,0,1,388,276Zm-86.17-3.15a.51.51,0,0,1-.51-.49l-.16-2.56a.52.52,0,0,1,1-.06l.15,2.56a.52.52,0,0,1-.48.55Zm86.17-2a.51.51,0,0,1-.51-.52v-2.57a.51.51,0,1,1,1,0v2.57A.51.51,0,0,1,388,270.87Zm-86.48-3.15a.52.52,0,0,1-.52-.48l-.15-2.56a.52.52,0,0,1,.48-.55.51.51,0,0,1,.54.49l.16,2.56a.51.51,0,0,1-.48.54Zm86.48-2a.51.51,0,0,1-.51-.51v-2.57a.51.51,0,1,1,1,0v2.57A.51.51,0,0,1,388,265.73Zm-86.8-3.13a.52.52,0,0,1-.51-.48l-.15-2.57a.51.51,0,1,1,1-.06l.16,2.56a.52.52,0,0,1-.48.55Zm86.8-2a.51.51,0,0,1-.51-.52v-2.56a.51.51,0,1,1,1,0v2.56A.51.51,0,0,1,388,260.6Zm-87.11-3.13a.51.51,0,0,1-.51-.48l-.16-2.56a.52.52,0,0,1,1-.06l.15,2.56a.5.5,0,0,1-.48.54Zm87.11-2a.51.51,0,0,1-.51-.51v-2.57a.51.51,0,1,1,1,0V255A.51.51,0,0,1,388,255.46Zm-87.42-3.11a.51.51,0,0,1-.51-.48l-.16-2.56a.52.52,0,0,1,1-.07l.15,2.57a.51.51,0,0,1-.48.54Zm87.42-2a.51.51,0,0,1-.51-.51v-2.57a.51.51,0,1,1,1,0v2.57A.51.51,0,0,1,388,250.33Zm-87.73-3.1a.52.52,0,0,1-.52-.49l-.15-2.56a.51.51,0,0,1,.48-.54.5.5,0,0,1,.54.48l.16,2.56a.52.52,0,0,1-.48.55Zm87.73-2a.51.51,0,0,1-.51-.52v-2.56a.51.51,0,1,1,1,0v2.56A.51.51,0,0,1,388,245.2Zm-88-3.1a.51.51,0,0,1-.51-.48l-.15-2.56a.51.51,0,0,1,.48-.55.52.52,0,0,1,.54.49l.16,2.56a.52.52,0,0,1-.48.54Zm88-2a.51.51,0,0,1-.51-.51V237a.51.51,0,1,1,1,0v2.57A.51.51,0,0,1,388,240.06ZM299.6,237a.51.51,0,0,1-.51-.48l-.16-2.57a.52.52,0,0,1,1-.06l.15,2.56a.51.51,0,0,1-.48.55Zm88.36-2a.51.51,0,0,1-.51-.51v-2.57a.51.51,0,1,1,1,0v2.57A.51.51,0,0,1,388,234.93Zm-88.67-3.08a.51.51,0,0,1-.51-.48l-.16-2.56a.52.52,0,0,1,1-.06l.15,2.56a.51.51,0,0,1-.48.54Zm88.67-2a.51.51,0,0,1-.51-.52v-2.56a.51.51,0,1,1,1,0v2.56A.51.51,0,0,1,388,229.8Zm-89-3.07a.52.52,0,0,1-.52-.48l-.15-2.56a.52.52,0,0,1,.48-.55.51.51,0,0,1,.54.48l.16,2.56a.52.52,0,0,1-.48.55Zm89-2.07a.51.51,0,0,1-.51-.51v-2.57a.51.51,0,0,1,1,0v2.57A.51.51,0,0,1,388,224.66Zm-89.3-3a.51.51,0,0,1-.51-.49l-.15-2.56a.5.5,0,0,1,.48-.54.51.51,0,0,1,.54.48l.16,2.56a.51.51,0,0,1-.48.54Zm89.3-2.08a.51.51,0,0,1-.51-.52v-2.56a.51.51,0,1,1,1,0V219A.51.51,0,0,1,388,219.53Zm-89.61-3.05a.51.51,0,0,1-.51-.48l-.16-2.56a.52.52,0,0,1,1-.07l.15,2.57a.51.51,0,0,1-.48.54ZM388,214.39a.51.51,0,0,1-.51-.51v-2.57a.51.51,0,1,1,1,0v2.57A.51.51,0,0,1,388,214.39Zm-89.92-3a.52.52,0,0,1-.51-.5v-.18a6.47,6.47,0,0,1,.51-2.54.53.53,0,0,1,.68-.27.51.51,0,0,1,.27.67,5.43,5.43,0,0,0-.44,2.14.76.76,0,0,0,0,.15.53.53,0,0,1-.5.53Zm89.61-2.06a.51.51,0,0,1-.49-.36,5.48,5.48,0,0,0-1.19-2,.51.51,0,0,1,0-.73.53.53,0,0,1,.73,0,6.71,6.71,0,0,1,1.42,2.38.52.52,0,0,1-.33.65A.45.45,0,0,1,387.65,209.3ZM300,206.78a.52.52,0,0,1-.38-.17.51.51,0,0,1,0-.72A6.4,6.4,0,0,1,302,204.5a.5.5,0,0,1,.64.33.52.52,0,0,1-.33.65,5.4,5.4,0,0,0-2,1.16A.52.52,0,0,1,300,206.78Zm84.26-1.12a.64.64,0,0,1-.2,0,5.42,5.42,0,0,0-2.07-.41h-.24a.52.52,0,1,1,0-1H382a6.46,6.46,0,0,1,2.46.48.52.52,0,0,1,.28.67A.51.51,0,0,1,384.25,205.66Zm-5.08-.44H376.6a.52.52,0,0,1,0-1h2.57a.52.52,0,0,1,0,1Zm-5.13,0h-2.57a.52.52,0,0,1,0-1H374a.52.52,0,0,1,0,1Zm-5.14,0h-2.56a.52.52,0,1,1,0-1h2.56a.52.52,0,1,1,0,1Zm-5.13,0H361.2a.52.52,0,0,1,0-1h2.57a.52.52,0,0,1,0,1Zm-5.13,0h-2.57a.52.52,0,0,1,0-1h2.57a.52.52,0,0,1,0,1Zm-5.14,0h-2.56a.52.52,0,1,1,0-1h2.56a.52.52,0,1,1,0,1Zm-5.13,0H345.8a.52.52,0,0,1,0-1h2.57a.52.52,0,0,1,0,1Zm-5.14,0h-2.56a.52.52,0,1,1,0-1h2.56a.52.52,0,1,1,0,1Zm-5.13,0h-2.57a.52.52,0,0,1,0-1h2.57a.52.52,0,0,1,0,1Zm-5.13,0H330.4a.52.52,0,0,1,0-1H333a.52.52,0,0,1,0,1Zm-5.14,0h-2.56a.52.52,0,1,1,0-1h2.56a.52.52,0,1,1,0,1Zm-5.13,0h-2.57a.52.52,0,0,1,0-1h2.57a.52.52,0,0,1,0,1Zm-5.13,0H315a.52.52,0,0,1,0-1h2.57a.52.52,0,0,1,0,1Zm-5.14,0h-2.56a.52.52,0,1,1,0-1h2.56a.52.52,0,1,1,0,1Zm-5.13,0h-2.57a.52.52,0,0,1,0-1h2.57a.52.52,0,0,1,0,1Z" transform="translate(-6.32 -61.31)"/></g><path class="cls-4" d="M206.75,397.48c-34-16.89-60.27-43.46-63.19-99.05C143.56,298.43,232.1,328,206.75,397.48Z" transform="translate(-6.32 -61.31)"/><path class="cls-2" d="M203.31,396.11c-23.91,2.2-46.85-3.38-66.88-32.32C136.43,363.79,193.89,350.3,203.31,396.11Z" transform="translate(-6.32 -61.31)"/><path class="cls-4" d="M310.76,400.74C294.81,366.27,291,329.12,323.54,284,323.54,284,374,362.46,310.76,400.74Z" transform="translate(-6.32 -61.31)"/><path class="cls-12" d="M318.87,402.22H193.62c-3.4,0-6-2.42-5.3-5l1.61-6.36c.48-1.91,2.58-3.31,5.08-3.39l120.74-3.77c2.61-.08,4.92,1.31,5.49,3.29l2.9,10.13C324.89,399.73,322.32,402.22,318.87,402.22Z" transform="translate(-6.32 -61.31)"/><path class="cls-4" d="M261,389a.26.26,0,1,1,0-.51l5.17-.08a.26.26,0,0,1,0,.52L261,389Z" transform="translate(-6.32 -61.31)"/><path class="cls-4" d="M193,398.57h0a.27.27,0,0,1-.21-.3l.74-4.62a5,5,0,0,1,4.88-4.22l54.88-.81a.26.26,0,0,1,.26.26.27.27,0,0,1-.26.26l-54.88.8a4.48,4.48,0,0,0-4.37,3.79l-.74,4.62A.26.26,0,0,1,193,398.57Z" transform="translate(-6.32 -61.31)"/><path class="cls-2" d="M201.25,384.81a.24.24,0,0,1-.24-.17,179.55,179.55,0,0,0-28.78-51.7,138.18,138.18,0,0,0-17-18.22.27.27,0,0,1,0-.37.26.26,0,0,1,.36,0,140.53,140.53,0,0,1,17.09,18.29,180.12,180.12,0,0,1,28.87,51.86.25.25,0,0,1-.16.33Z" transform="translate(-6.32 -61.31)"/><path class="cls-2" d="M315,379.67h-.08a.26.26,0,0,1-.17-.32c12-37.47,8.58-81.33,8.54-81.77a.26.26,0,0,1,.24-.28.25.25,0,0,1,.27.24,246.36,246.36,0,0,1,.27,26.73c-.57,14.36-2.56,35.6-8.83,55.23A.25.25,0,0,1,315,379.67Z" transform="translate(-6.32 -61.31)"/><path class="cls-13" d="M189.75,388.27a.25.25,0,0,1-.2-.09c-13.54-16-43.8-21.11-44.11-21.16a.25.25,0,0,1-.21-.29.26.26,0,0,1,.3-.22,114.45,114.45,0,0,1,17,4.56c8.56,3,20.26,8.35,27.4,16.78a.25.25,0,0,1,0,.36A.25.25,0,0,1,189.75,388.27Z" transform="translate(-6.32 -61.31)"/><path class="cls-14" d="M52.28,432.42l37-24.74a15.58,15.58,0,0,1,8.46-2.63c33.64-.41,241-2.72,288.94,2.37a11.57,11.57,0,0,1,6.3,2.73l26,22.27Z" transform="translate(-6.32 -61.31)"/><path class="cls-15" d="M53.22,435.57l-.94-3.15H419l-1.55,2.95a6.2,6.2,0,0,1-5.49,3.32H57.4A4.36,4.36,0,0,1,53.22,435.57Z" transform="translate(-6.32 -61.31)"/><path class="cls-16" d="M75.29,424.5l19.54-13.66a10.25,10.25,0,0,1,6-1.87l276.35,1.14a15.38,15.38,0,0,1,10.06,3.81l10.22,8.93a2.07,2.07,0,0,1-1.36,3.63L76.49,428.26A2.07,2.07,0,0,1,75.29,424.5Z" transform="translate(-6.32 -61.31)"/><path class="cls-17" d="M386.3,414a4.81,4.81,0,0,0,1,0s.48-.25,0-.54l-9.12-3.13a13.54,13.54,0,0,0-2-.19l-4.68-.55c-.55,0-.59.88-.23,1.31l2,2.39a2.43,2.43,0,0,0,1.66.78Z" transform="translate(-6.32 -61.31)"/><path class="cls-18" d="M369.6,416.86a2.45,2.45,0,0,0-1.66-.78l-17-.48c-.56,0-.58.9-.27,1.37l1.5,2.28a2.1,2.1,0,0,0,1.57.84l17.48,0c.56,0,.77-.83.42-1.26Z" transform="translate(-6.32 -61.31)"/><path class="cls-19" d="M366.27,414.06c.55,0,.78-.81.43-1.24l-2.08-2a2.49,2.49,0,0,0-1.65-.79l-16-.58c-.56,0-.61.9-.3,1.36l1.59,2.42a2.12,2.12,0,0,0,1.57.84Z" transform="translate(-6.32 -61.31)"/><path class="cls-20" d="M322.56,417.08a1.81,1.81,0,0,0-1.48-.9l-14.49-.37c-.56,0-.62.83-.43,1.35l.75,2.07a1.52,1.52,0,0,0,1.36.95l14.87,0c.56,0,.85-.82.6-1.32Z" transform="translate(-6.32 -61.31)"/><path class="cls-21" d="M344.61,417a2.1,2.1,0,0,0-1.57-.85l-14.47-.47c-.55,0-.56.91-.31,1.4l1.13,2.18a1.82,1.82,0,0,0,1.48.9l14.78,0c.56,0,.77-.92.46-1.38Z" transform="translate(-6.32 -61.31)"/><path class="cls-22" d="M277.33,414.24c.56,0,.94-.79.82-1.34l-.59-2.21a1.33,1.33,0,0,0-1.23-1l-14.74-.06a.94.94,0,0,0-1,1l.12,2.62a1.08,1.08,0,0,0,1.07,1Z" transform="translate(-6.32 -61.31)"/><path class="cls-23" d="M298.68,414.2c.56,0,.91-.79.72-1.32l-.95-2.14a1.57,1.57,0,0,0-1.36-1l-13.86-.33c-.56,0-.6.72-.48,1.26l.56,2.53a1.33,1.33,0,0,0,1.23,1Z" transform="translate(-6.32 -61.31)"/><path class="cls-24" d="M320,414.15c.55,0,.84-.85.58-1.34l-1.32-2a1.85,1.85,0,0,0-1.48-.9l-13.53-.42c-.56,0-.64.79-.45,1.31l.9,2.47a1.56,1.56,0,0,0,1.36.95Z" transform="translate(-6.32 -61.31)"/><path class="cls-25" d="M341.71,414.11c.55,0,.76-.92.45-1.38l-1.61-1.92A2.1,2.1,0,0,0,339,410l-13.62-.5c-.56,0-.6.84-.34,1.34l1.26,2.44a1.86,1.86,0,0,0,1.48.9Z" transform="translate(-6.32 -61.31)"/><path class="cls-26" d="M279,417.25a1.32,1.32,0,0,0-1.23-1l-15.86,0a1,1,0,0,0-1,1l.1,2a1.06,1.06,0,0,0,1.06,1l16.55,0c.55,0,.93-.71.81-1.25Z" transform="translate(-6.32 -61.31)"/><path class="cls-27" d="M107,417.35c.38-.41.34-1.26-.22-1.26l-19.26.57a3.8,3.8,0,0,0-1.85.58l-4,2.3c-.46.31-.38,1.11.18,1.11l21.06,0a2.71,2.71,0,0,0,1.71-.73Z" transform="translate(-6.32 -61.31)"/><path class="cls-28" d="M131.16,417.36c.35-.44.27-1.32-.29-1.32l-15.13.56a2.71,2.71,0,0,0-1.71.73l-2.42,2c-.38.41-.24,1.27.31,1.27l15.71,0a2.42,2.42,0,0,0,1.64-.79Z" transform="translate(-6.32 -61.31)"/><path class="cls-29" d="M254.72,414.29a1,1,0,0,0,1-1l-.13-2.65a1.08,1.08,0,0,0-1.06-1l-13.64-.06a1.14,1.14,0,0,0-1.11,1l-.28,2.76a.91.91,0,0,0,.92,1Z" transform="translate(-6.32 -61.31)"/><path class="cls-30" d="M378.15,419.26a2.43,2.43,0,0,0,1.66.78l13.34,0a.6.6,0,0,0,.39-1.05l-3.15-2.25a3.12,3.12,0,0,0-1.78-.67l-12.27-.43c-.56,0-.54.81-.18,1.24Z" transform="translate(-6.32 -61.31)"/><path class="cls-31" d="M206.68,417.39c.15-.54.07-1.35-.49-1.35l-18.53.41a1.72,1.72,0,0,0-1.43.93l-1,1.84a.85.85,0,0,0,.66,1.21l19,0a1.43,1.43,0,0,0,1.28-1Z" transform="translate(-6.32 -61.31)"/><path class="cls-32" d="M234,417.36a.9.9,0,0,0-.92-1l-19.84,0a1.4,1.4,0,0,0-1.28,1l-.57,1.76a1,1,0,0,0,.78,1.24l20.51,0a1.16,1.16,0,0,0,1.12-1Z" transform="translate(-6.32 -61.31)"/><path class="cls-33" d="M255.88,417.32a1.09,1.09,0,0,0-1.06-1l-14.65,0a1.15,1.15,0,0,0-1.11,1l-.2,2a.9.9,0,0,0,.92,1l15.23,0a1,1,0,0,0,1-1Z" transform="translate(-6.32 -61.31)"/><path class="cls-34" d="M180.67,417.39c.23-.51.17-1.35-.39-1.35l-15.53.46a2,2,0,0,0-1.54.87l-1.4,1.92a.77.77,0,0,0,.53,1.19l15.93,0a1.72,1.72,0,0,0,1.43-.93Z" transform="translate(-6.32 -61.31)"/><path class="cls-35" d="M300.78,417.17a1.57,1.57,0,0,0-1.36-.95L284.68,416c-.55,0-.6.72-.48,1.26l.44,2a1.31,1.31,0,0,0,1.23,1l15,0c.55,0,.9-.79.71-1.31Z" transform="translate(-6.32 -61.31)"/><path class="cls-36" d="M157.29,417.38c.29-.48.2-1.34-.36-1.34l-17.65.51a2.35,2.35,0,0,0-1.64.8l-1.9,1.86c-.35.44-.17,1.33.39,1.33l18.26,0a2,2,0,0,0,1.54-.87Z" transform="translate(-6.32 -61.31)"/><path class="cls-37" d="M262.21,422.31a1,1,0,0,0-1,1l.14,2.9a1.08,1.08,0,0,0,1.07,1l17.73-.1c.55,0,.93-.74.81-1.29l-.65-2.58a1.32,1.32,0,0,0-1.24-1Z" transform="translate(-6.32 -61.31)"/><path class="cls-38" d="M239.57,422.35a1.15,1.15,0,0,0-1.11,1l-.3,3a.89.89,0,0,0,.91,1l16.28-.09a1,1,0,0,0,1-1l-.14-2.92a1.08,1.08,0,0,0-1.06-1Z" transform="translate(-6.32 -61.31)"/><path class="cls-39" d="M286,421.88c-.56,0-.63.82-.51,1.37l.63,2.85a1.32,1.32,0,0,0,1.24,1l15.93-.09c.55,0,.9-.78.71-1.3L303,423.18a1.52,1.52,0,0,0-1.36-.95Z" transform="translate(-6.32 -61.31)"/><path class="cls-40" d="M233.26,414.33a1.16,1.16,0,0,0,1.11-1l.28-2.79a.91.91,0,0,0-.91-1l-18.65-.08a1.4,1.4,0,0,0-1.28,1l-.83,2.71a1,1,0,0,0,.78,1.24Z" transform="translate(-6.32 -61.31)"/><path class="cls-41" d="M331.72,421.78c-.56,0-.6.79-.35,1.29l1.49,2.86a1.81,1.81,0,0,0,1.48.9l15.67-.09c.56,0,.82-.82.51-1.29l-2-2.47a2.12,2.12,0,0,0-1.58-.85Z" transform="translate(-6.32 -61.31)"/><path class="cls-42" d="M354.89,421.6c-.56,0-.58.9-.28,1.36l1.9,2.89a2.07,2.07,0,0,0,1.57.84l18.53-.1c.56,0,.78-.82.42-1.25l-2.48-2.48a2.43,2.43,0,0,0-1.66-.78Z" transform="translate(-6.32 -61.31)"/><path class="cls-43" d="M397.57,423.32c-.33.12-1.55-1.29-2.11-1.29l-14.13-.48c-.56,0-.57.87-.22,1.3l2.41,2.92a2.42,2.42,0,0,0,1.66.77l9.87-.05a3.45,3.45,0,0,0,1.47-.44,1,1,0,0,0,.43-.54l.62-1.65C397.48,423.31,397.61,423.31,397.57,423.32Z" transform="translate(-6.32 -61.31)"/><path class="cls-44" d="M308.85,421.69c-.56,0-.71.95-.52,1.47l1,2.85a1.56,1.56,0,0,0,1.36.95l15.9-.09c.56,0,.85-.84.59-1.34l-1.54-2.45a1.82,1.82,0,0,0-1.48-.9Z" transform="translate(-6.32 -61.31)"/><path class="cls-45" d="M181,414.44a1.71,1.71,0,0,0,1.43-.93l1.48-3.27c.23-.51.15-1.43-.41-1.43l-14.36.44a2,2,0,0,0-1.54.87l-2.19,3.12a.82.82,0,0,0,.58,1.23Z" transform="translate(-6.32 -61.31)"/><path class="cls-46" d="M158,414.48a2,2,0,0,0,1.54-.87l2.13-3.52c.28-.47.27-1.28-.29-1.28l-16.27.34a2.35,2.35,0,0,0-1.64.8l-3.06,3.35c-.35.43-.1,1.22.45,1.22Z" transform="translate(-6.32 -61.31)"/><path class="cls-47" d="M132.38,414.54a2.39,2.39,0,0,0,1.65-.8l3-3.82c.34-.44.36-1.3-.2-1.3l-13.89.44a2.76,2.76,0,0,0-1.72.73l-3.95,3.61a.69.69,0,0,0,.4,1.17Z" transform="translate(-6.32 -61.31)"/><path class="cls-48" d="M161.12,422.51a2,2,0,0,0-1.54.87L157.43,427c-.29.47-.07.86.49.86l84.23-.44a1.72,1.72,0,0,0,1.43-.93l1.53-3.38a.6.6,0,0,0-.59-.92Z" transform="translate(-6.32 -61.31)"/><path class="cls-49" d="M206.48,414.39a1.43,1.43,0,0,0,1.28-1l.81-3c.14-.54.06-1.33-.5-1.33l-17.18.27a1.74,1.74,0,0,0-1.44.92l-1.52,2.87c-.23.51.1,1.29.65,1.29Z" transform="translate(-6.32 -61.31)"/><path class="cls-50" d="M108.63,414.59a2.78,2.78,0,0,0,1.71-.74l3.92-4.09c.38-.4.38-1.23-.17-1.23l-12.28.45a15.12,15.12,0,0,0-2,.14l-4.05,1.27a17.06,17.06,0,0,0-1.75,1l-3.88,2.2a.54.54,0,0,0,.31,1Z" transform="translate(-6.32 -61.31)"/><path class="cls-51" d="M134.52,422.57a2.38,2.38,0,0,0-1.64.79l-3,3.81c-.34.44-.17.8.39.79l19.7-.11a2,2,0,0,0,1.54-.87l2.17-3.59c.28-.47.26-1.25-.3-1.25Z" transform="translate(-6.32 -61.31)"/><path class="cls-52" d="M110,422.62a2.71,2.71,0,0,0-1.71.73l-3.86,4c-.39.4-.24.73.31.73l17-.1a2.39,2.39,0,0,0,1.65-.8l3-3.83c.34-.44.17-.8-.39-.8Z" transform="translate(-6.32 -61.31)"/><path class="cls-53" d="M78.9,422.68a3.73,3.73,0,0,0-1.84.58l-1.66,1.16c-.38.27-.27.46-.29.83a1.19,1.19,0,0,0,.06.53l.31,1a2.08,2.08,0,0,0,1.41,1.4,2.31,2.31,0,0,0,.61.09l18.14-.1a2.83,2.83,0,0,0,1.72-.74l3.88-4.05c.38-.41.38-1.26-.18-1.26Z" transform="translate(-6.32 -61.31)"/><path class="cls-54" d="M386.3,413.48a4,4,0,0,0,1-.05l-.93-.57-8.19-3.09a12.32,12.32,0,0,0-2-.19l-4.54,0c-.56,0-.73.34-.37.77l2,2.4a2.43,2.43,0,0,0,1.66.78Z" transform="translate(-6.32 -61.31)"/><path class="cls-55" d="M369.6,416.33a2.45,2.45,0,0,0-1.66-.78l-16.82,0c-.55,0-.76.39-.45.85l1.5,2.28a2.08,2.08,0,0,0,1.57.85l17.48,0c.56,0,.72-.35.37-.78Z" transform="translate(-6.32 -61.31)"/><path class="cls-56" d="M366.27,413.53c.55,0,.72-.36.37-.79l-2-2.43a2.44,2.44,0,0,0-1.65-.79l-15.88-.06c-.56,0-.77.37-.46.84l1.59,2.41a2.1,2.1,0,0,0,1.57.85Z" transform="translate(-6.32 -61.31)"/><path class="cls-57" d="M322.56,416.54a1.83,1.83,0,0,0-1.48-.9l-14.25,0a.67.67,0,0,0-.67,1l.75,2.07a1.56,1.56,0,0,0,1.36.95l14.87,0a.57.57,0,0,0,.55-.9Z" transform="translate(-6.32 -61.31)"/><path class="cls-58" d="M344.61,416.44a2.12,2.12,0,0,0-1.57-.84l-14.23,0a.57.57,0,0,0-.55.9l1.13,2.18a1.85,1.85,0,0,0,1.48.9l14.78,0c.56,0,.77-.38.46-.84Z" transform="translate(-6.32 -61.31)"/><path class="cls-59" d="M277.33,413.71a.78.78,0,0,0,.79-1l-.56-2.56a1.34,1.34,0,0,0-1.23-1l-14.74-.06a1,1,0,0,0-1,1l.12,2.62a1.08,1.08,0,0,0,1.07,1Z" transform="translate(-6.32 -61.31)"/><path class="cls-60" d="M298.68,413.66a.66.66,0,0,0,.67-1l-.9-2.5a1.55,1.55,0,0,0-1.36-1l-13.54-.06a.78.78,0,0,0-.8,1l.56,2.52a1.32,1.32,0,0,0,1.23,1Z" transform="translate(-6.32 -61.31)"/><path class="cls-61" d="M320,413.62a.57.57,0,0,0,.54-.9l-1.28-2.48a1.86,1.86,0,0,0-1.48-.91l-13.31-.05a.66.66,0,0,0-.67,1l.9,2.47a1.56,1.56,0,0,0,1.36.95Z" transform="translate(-6.32 -61.31)"/><path class="cls-62" d="M341.71,413.58c.55,0,.76-.39.45-.85l-1.61-2.46a2.13,2.13,0,0,0-1.57-.85l-13.41-.05a.56.56,0,0,0-.55.89l1.26,2.45a1.83,1.83,0,0,0,1.48.89Z" transform="translate(-6.32 -61.31)"/><path class="cls-63" d="M279,416.72a1.33,1.33,0,0,0-1.23-1l-15.86,0a1,1,0,0,0-1,1l.1,2a1.07,1.07,0,0,0,1.06,1l16.55,0a.78.78,0,0,0,.79-1Z" transform="translate(-6.32 -61.31)"/><path class="cls-64" d="M107,416.81c.38-.4.24-.73-.31-.73l-19.17,0a3.81,3.81,0,0,0-1.85.59l-4,2.83c-.46.31-.38.58.18.57l21.06,0a2.71,2.71,0,0,0,1.71-.73Z" transform="translate(-6.32 -61.31)"/><path class="cls-65" d="M131.16,416.83c.35-.44.18-.8-.38-.8l-15,0a2.78,2.78,0,0,0-1.71.74l-2.42,2.52c-.38.41-.24.73.31.73l15.71,0a2.39,2.39,0,0,0,1.64-.8Z" transform="translate(-6.32 -61.31)"/><path class="cls-66" d="M254.72,413.75a1,1,0,0,0,1-1l-.13-2.65a1.09,1.09,0,0,0-1.06-1L240.85,409a1.13,1.13,0,0,0-1.11,1l-.28,2.76a.9.9,0,0,0,.92,1Z" transform="translate(-6.32 -61.31)"/><path class="cls-67" d="M378.15,418.73a2.43,2.43,0,0,0,1.66.78l13.34,0c.56,0,.67-.3.25-.67l-3-2.64a3.18,3.18,0,0,0-1.78-.66l-12.08,0c-.56,0-.73.36-.37.79Z" transform="translate(-6.32 -61.31)"/><path class="cls-68" d="M206.68,416.86a.74.74,0,0,0-.75-1l-18.27,0a1.71,1.71,0,0,0-1.43.92l-1,2.14a.6.6,0,0,0,.59.92l19,0a1.4,1.4,0,0,0,1.28-1Z" transform="translate(-6.32 -61.31)"/><path class="cls-69" d="M234,416.83a.91.91,0,0,0-.92-1l-19.84.05a1.4,1.4,0,0,0-1.28,1l-.54,2a.74.74,0,0,0,.75,1l20.51,0a1.17,1.17,0,0,0,1.12-1Z" transform="translate(-6.32 -61.31)"/><path class="cls-70" d="M255.88,416.79a1.08,1.08,0,0,0-1.06-1l-14.65,0a1.15,1.15,0,0,0-1.11,1l-.2,2a.91.91,0,0,0,.92,1l15.23,0a1,1,0,0,0,1-1Z" transform="translate(-6.32 -61.31)"/><path class="cls-71" d="M180.67,416.85a.61.61,0,0,0-.6-.92l-15.32,0a2.06,2.06,0,0,0-1.54.87l-1.35,2.25c-.29.48-.07.87.48.87l15.93,0a1.72,1.72,0,0,0,1.43-.93Z" transform="translate(-6.32 -61.31)"/><path class="cls-72" d="M300.78,416.64a1.57,1.57,0,0,0-1.36-.95l-14.43,0a.78.78,0,0,0-.79,1l.44,2a1.32,1.32,0,0,0,1.23,1l15,0a.67.67,0,0,0,.66-1Z" transform="translate(-6.32 -61.31)"/><path class="cls-73" d="M157.29,416.85c.29-.48.06-.87-.49-.87l-17.52,0a2.38,2.38,0,0,0-1.64.79l-1.9,2.4c-.35.44-.17.79.39.79l18.26,0a2.06,2.06,0,0,0,1.54-.87Z" transform="translate(-6.32 -61.31)"/><path class="cls-74" d="M262.21,421.77a1,1,0,0,0-1,1l.14,2.9a1.07,1.07,0,0,0,1.07,1l17.73-.1a.78.78,0,0,0,.79-1l-.63-2.87a1.32,1.32,0,0,0-1.24-1Z" transform="translate(-6.32 -61.31)"/><path class="cls-75" d="M286.32,421.72a.78.78,0,0,0-.8,1l.63,2.86a1.31,1.31,0,0,0,1.24,1l15.93-.08a.67.67,0,0,0,.66-1l-1-2.87a1.56,1.56,0,0,0-1.36-.95Z" transform="translate(-6.32 -61.31)"/><path class="cls-76" d="M233.26,413.8a1.16,1.16,0,0,0,1.11-1l.28-2.79a.91.91,0,0,0-.91-1l-18.65-.08a1.41,1.41,0,0,0-1.28,1l-.8,3a.74.74,0,0,0,.75,1Z" transform="translate(-6.32 -61.31)"/><path class="cls-77" d="M331.92,421.63a.57.57,0,0,0-.55.9l1.49,2.87a1.8,1.8,0,0,0,1.48.89l15.67-.08c.56,0,.76-.39.46-.86l-1.91-2.91a2.14,2.14,0,0,0-1.58-.84Z" transform="translate(-6.32 -61.31)"/><path class="cls-78" d="M355.07,421.58c-.56,0-.76.39-.46.85l1.9,2.89a2.13,2.13,0,0,0,1.57.84l18.53-.1c.56,0,.73-.36.37-.79l-2.43-2.94a2.43,2.43,0,0,0-1.66-.78Z" transform="translate(-6.32 -61.31)"/><path class="cls-79" d="M396.94,421.91a2.61,2.61,0,0,0-1.48-.41l-14,0c-.56,0-.72.35-.37.78l2.41,2.92a2.47,2.47,0,0,0,1.66.78l9.87-.06a3.15,3.15,0,0,0,1.34-.37,1.25,1.25,0,0,0,.59-.67l.59-1.59A2.8,2.8,0,0,0,396.94,421.91Z" transform="translate(-6.32 -61.31)"/><path class="cls-80" d="M184.94,421.93a1.71,1.71,0,0,0-1.43.93L182,426.22a.6.6,0,0,0,.59.92l20.35-.11a1.43,1.43,0,0,0,1.28-1l.85-3.17a.74.74,0,0,0-.75-1Z" transform="translate(-6.32 -61.31)"/><path class="cls-81" d="M309,421.68a.66.66,0,0,0-.67.95l1,2.85a1.53,1.53,0,0,0,1.36.94l15.9-.08a.58.58,0,0,0,.55-.91l-1.5-2.89a1.81,1.81,0,0,0-1.48-.89Z" transform="translate(-6.32 -61.31)"/><path class="cls-82" d="M181,413.9a1.7,1.7,0,0,0,1.43-.92l1.48-3.27a.61.61,0,0,0-.59-.93l-14.18-.06a2,2,0,0,0-1.54.86l-2.1,3.49c-.29.48-.07.87.49.86Z" transform="translate(-6.32 -61.31)"/><path class="cls-83" d="M158,414a2,2,0,0,0,1.54-.87l2.13-3.52c.28-.48.06-.87-.49-.87l-16.07-.07a2.38,2.38,0,0,0-1.64.79l-3,3.78c-.35.44-.17.8.38.8Z" transform="translate(-6.32 -61.31)"/><path class="cls-84" d="M132.38,414a2.42,2.42,0,0,0,1.65-.79l3-3.82c.34-.44.17-.8-.39-.8l-13.7-.06a2.76,2.76,0,0,0-1.72.73l-3.87,4c-.38.41-.24.73.32.73Z" transform="translate(-6.32 -61.31)"/><path class="cls-85" d="M256.31,425.71l-.14-2.91a1.08,1.08,0,0,0-1.06-1l-15.54,0a.78.78,0,0,0-.26,0l-78.19.12a2,2,0,0,0-1.54.87l-2.15,3.56c-.29.48-.07.87.49.87l97.05-.42a1.59,1.59,0,0,0,.51-.14A1,1,0,0,0,256.31,425.71Z" transform="translate(-6.32 -61.31)"/><path class="cls-86" d="M206.48,413.85a1.4,1.4,0,0,0,1.28-1l.81-3a.74.74,0,0,0-.75-1l-16.93-.07a1.72,1.72,0,0,0-1.44.92L188,413a.6.6,0,0,0,.59.92Z" transform="translate(-6.32 -61.31)"/><path class="cls-87" d="M108.63,414.05a2.71,2.71,0,0,0,1.71-.73l3.92-4.09c.38-.4.24-.73-.31-.74l-12.14-.05a17,17,0,0,0-2,.15l-4.05,1.27a15.42,15.42,0,0,0-1.75,1l-3.75,2.62c-.46.32-.37.58.18.58Z" transform="translate(-6.32 -61.31)"/><path class="cls-88" d="M134.52,422a2.35,2.35,0,0,0-1.64.8l-3,3.81c-.34.44-.17.79.39.79l19.7-.11a2,2,0,0,0,1.54-.87l2.17-3.59c.28-.48.06-.87-.49-.86Z" transform="translate(-6.32 -61.31)"/><path class="cls-89" d="M110,422.08a2.72,2.72,0,0,0-1.71.74l-3.86,4c-.39.4-.24.73.31.72l17-.09a2.48,2.48,0,0,0,1.65-.8l3-3.84c.34-.43.17-.79-.39-.79Z" transform="translate(-6.32 -61.31)"/><path class="cls-90" d="M78.9,422.15a3.73,3.73,0,0,0-1.84.58l-.94.65a3.13,3.13,0,0,0-.93,1.22.94.94,0,0,0,0,.66l.29.9a2.2,2.2,0,0,0,1.64,1.52,1.43,1.43,0,0,0,.4,0l18.14-.1a2.76,2.76,0,0,0,1.72-.73l3.88-4.06c.38-.4.24-.73-.32-.73Z" transform="translate(-6.32 -61.31)"/><circle class="cls-3" cx="228.49" cy="154.78" r="5.94"/><circle class="cls-3" cx="230.76" cy="48.02" r="5.94"/><path class="cls-91" d="M355,318.2c2.35.2,6.43.53,9.64.67a9.13,9.13,0,0,0,3.69-.36,1.41,1.41,0,0,1,0,.21.65.65,0,0,1-.63.62,114.47,114.47,0,0,1-12.62,0,.47.47,0,0,1-.39-.71A3.37,3.37,0,0,1,355,318.2Z" transform="translate(-6.32 -61.31)"/><path class="cls-92" d="M364.68,318.87c-3.21-.14-7.29-.47-9.64-.67,2.31-2.84,9.64-4.75,9.64-4.75h2.07a8.64,8.64,0,0,1,1.62,5.06A9.13,9.13,0,0,1,364.68,318.87Z" transform="translate(-6.32 -61.31)"/><path class="cls-93" d="M367.1,310.07l-.19,3.84a.87.87,0,0,1-.75.82,3.31,3.31,0,0,1-1.55-.13,1,1,0,0,1-.7-.79l-.67-3.74Z" transform="translate(-6.32 -61.31)"/><path class="cls-94" d="M394,318.84a1.85,1.85,0,0,0,1.67-1.23h0a1.32,1.32,0,0,1-.9,1.51,5.74,5.74,0,0,1-2.47.39,2.45,2.45,0,0,1-1.85-.86h0A6.18,6.18,0,0,0,394,318.84Z" transform="translate(-6.32 -61.31)"/><path class="cls-95" d="M389.2,310.05h1.7c2.61-.05,4.24,5.43,4.77,7.56a1.85,1.85,0,0,1-1.67,1.23,6.18,6.18,0,0,1-3.54-.18,16.18,16.18,0,0,1-2.44-6.14A2.16,2.16,0,0,1,389.2,310.05Z" transform="translate(-6.32 -61.31)"/><path class="cls-96" d="M390.68,306.49l.95,3.77a1,1,0,0,1-.53,1.16,3.68,3.68,0,0,1-2,.48.86.86,0,0,1-.7-.57l-1.39-4Z" transform="translate(-6.32 -61.31)"/><path class="cls-97" d="M391.82,307.58c-1.18,1.05-5,1.19-5,1.19-13.83-33.18-19.48-37.9-19.48-37.9,2,12.53.32,40.25.32,40.25-2.28,1-5.22,0-5.22,0a214.12,214.12,0,0,0-7.06-52.48c9.34-.21,14.31-3.4,15.93-4.69C379.08,266.51,391.82,307.58,391.82,307.58Z" transform="translate(-6.32 -61.31)"/><path class="cls-98" d="M368.92,215.8c1.77,8.82,1.14,24.61.72,31.81-.12,2,1.3,4.83,2.44,6.74a.61.61,0,0,1-.24.85,41.76,41.76,0,0,1-15.9,4.41,1.08,1.08,0,0,1-1.08-.8c-5.57-20.8-12-34.08-12-34.08C350,213.32,368.92,215.8,368.92,215.8Z" transform="translate(-6.32 -61.31)"/><path class="cls-99" d="M366.38,270.09a.41.41,0,0,0,.23-.07.43.43,0,0,0,.14-.6,13.71,13.71,0,0,0-5.48-4.76.44.44,0,0,0-.59.2.46.46,0,0,0,.21.6,13.22,13.22,0,0,1,5.11,4.42A.45.45,0,0,0,366.38,270.09Z" transform="translate(-6.32 -61.31)"/><path class="cls-100" d="M380,241.12a30.19,30.19,0,0,1-5.6,13.35l-1.28-1a39.26,39.26,0,0,0,.64-12.76A15.09,15.09,0,0,1,380,241.12Z" transform="translate(-6.32 -61.31)"/><path class="cls-101" d="M367,226.68l2-10.88s13.2,10.09,11.09,25.32a15.09,15.09,0,0,0-6.24-.45C373.17,235.78,371.36,230.48,367,226.68Z" transform="translate(-6.32 -61.31)"/><path class="cls-102" d="M342.82,224.73l5.1,11c-.82,6.62-4.38,9.48-8.22,10.58a23.24,23.24,0,0,0-1.71-7.14C342.89,234.08,342.82,224.73,342.82,224.73Z" transform="translate(-6.32 -61.31)"/><path class="cls-103" d="M338,239.14a23.24,23.24,0,0,1,1.71,7.14c-10.24,4-12.94-3.73-12.94-3.73l1.89-.33A10.74,10.74,0,0,0,338,239.14Z" transform="translate(-6.32 -61.31)"/><path class="cls-104" d="M347.52,211.18l2.46,9a1.75,1.75,0,0,0,2.35,1.17,33.82,33.82,0,0,0,3.54-1.62,2.36,2.36,0,0,0,.84-3.4l-5.11-7.63Z" transform="translate(-6.32 -61.31)"/><path class="cls-105" d="M342.14,204.31c0,.16,2.05,10.32,2.05,10.32l5.78-1.31-.54-9.92S342.51,201.71,342.14,204.31Z" transform="translate(-6.32 -61.31)"/><path class="cls-106" d="M348.13,205.61l.69,5.2a.67.67,0,0,1,0,.2c-.06.41-.36,1.8-1.76,1.4a6.54,6.54,0,0,0-3.24-.42.73.73,0,0,0-.51.84,31.37,31.37,0,0,0,1.33,4.74.73.73,0,0,0,.89.43,23.72,23.72,0,0,0,5.09-2.08.74.74,0,0,0,.36-.66c-.06-1.32-.21-5.31-.08-6.43s1.41-1.68,2-1.9a.71.71,0,0,0,.4-.4,1.9,1.9,0,0,0-1.28-2.77.74.74,0,0,1-.46-.95,1.9,1.9,0,0,0-1.07-2.63,2.67,2.67,0,0,0-3.2.77.74.74,0,0,1-.94.11.59.59,0,0,0-.66,0,.72.72,0,0,1-1-.31,2.19,2.19,0,0,0-2.54-1.27c-2.59.45-2.88,3.32-2.2,5s3.46,1,4.85.19c1.06-.64,2.44,0,3,.39A.74.74,0,0,1,348.13,205.61Z" transform="translate(-6.32 -61.31)"/><path class="cls-107" d="M351.13,210.73s-1.06-3,0-3.71,2.71-.35,2.36,1.81C353.07,211.51,351.13,210.73,351.13,210.73Z" transform="translate(-6.32 -61.31)"/><path class="cls-108" d="M327.52,244c-.52.4-2.28-.44-3.36-1a1.24,1.24,0,0,1-.61-1.47c.26-.82.7-1.87,1.23-2C325.67,239.24,329.64,242.3,327.52,244Z" transform="translate(-6.32 -61.31)"/><path class="cls-109" d="M414.43,268.86,279.64,220.92l-7.13,19.81L407.25,290a6.28,6.28,0,0,0,7.59-2.74c1.57-2.71,3.08-6.93,3.17-13.26A5.37,5.37,0,0,0,414.43,268.86Z" transform="translate(-6.32 -61.31)"/><path class="cls-110" d="M237.94,215.8l18.62,2.28c0,2.57-.86,5.88-3.7,9.69l-15.55-10.26A.94.94,0,0,1,237.94,215.8Z" transform="translate(-6.32 -61.31)"/><path class="cls-111" d="M279.64,220.92a26,26,0,0,1-7.13,19.81l-19.65-13c2.84-3.81,3.68-7.12,3.7-9.69Z" transform="translate(-6.32 -61.31)"/><path class="cls-5" d="M412.75,274.93a.4.4,0,0,0,.38-.26.41.41,0,0,0-.24-.51l-129-45.57a.39.39,0,1,0-.26.74l129,45.58Z" transform="translate(-6.32 -61.31)"/><path class="cls-5" d="M410.53,282.7a.4.4,0,0,0,.13-.77l-129-45.57a.39.39,0,1,0-.27.74l129,45.58Z" transform="translate(-6.32 -61.31)"/><path class="cls-112" d="M373.66,253.25l-6-.49-2.58,2.38s.61.84,2.52.36a27.06,27.06,0,0,1,4.52-.61s2.64,1.19,2.67-1Z" transform="translate(-6.32 -61.31)"/><path class="cls-3" d="M233.13,217.58h-2.56a.51.51,0,1,1,0-1h2.56a.51.51,0,1,1,0,1Zm-5.13,0h-2.57a.51.51,0,1,1,0-1H228a.51.51,0,0,1,0,1Zm-5.13,0H220.3a.51.51,0,1,1,0-1h2.57a.51.51,0,0,1,0,1Zm-5.14,0h-2.56a.51.51,0,1,1,0-1h2.56a.51.51,0,1,1,0,1Zm-5.13,0H210a.51.51,0,0,1,0-1h2.57a.51.51,0,0,1,0,1Zm-5.13,0H204.9a.51.51,0,0,1,0-1h2.57a.51.51,0,0,1,0,1Zm-5.14,0h-2.56a.51.51,0,1,1,0-1h2.56a.51.51,0,1,1,0,1Zm-5.13,0h-2.57a.51.51,0,0,1,0-1h2.57a.51.51,0,0,1,0,1Zm-5.13,0H189.5a.51.51,0,1,1,0-1h2.57a.51.51,0,0,1,0,1Zm-5.14,0h-2.57a.51.51,0,1,1,0-1h2.57a.51.51,0,1,1,0,1Zm-5.13,0h-2.57a.51.51,0,0,1,0-1h2.57a.51.51,0,1,1,0,1Zm-5.14,0H174.1a.51.51,0,1,1,0-1h2.56a.51.51,0,1,1,0,1Zm-5.13,0H169a.51.51,0,1,1,0-1h2.57a.51.51,0,1,1,0,1Zm-5.13,0h-2.57a.51.51,0,1,1,0-1h2.57a.51.51,0,1,1,0,1Zm-5.14,0H158.7a.51.51,0,1,1,0-1h2.56a.51.51,0,1,1,0,1Zm-5.13,0h-2.57a.51.51,0,0,1,0-1h2.57a.51.51,0,1,1,0,1Zm-5.13,0h-2.57a.51.51,0,1,1,0-1H151a.51.51,0,1,1,0,1Zm-5.14,0H143.3a.51.51,0,1,1,0-1h2.56a.51.51,0,1,1,0,1Zm-5.13,0h-2.57a.51.51,0,0,1,0-1h2.57a.51.51,0,0,1,0,1Zm-5.14,0H133a.51.51,0,1,1,0-1h2.56a.51.51,0,1,1,0,1Zm-5.13,0h-2.57a.51.51,0,1,1,0-1h2.57a.51.51,0,1,1,0,1Zm104.37-.89h0a.52.52,0,0,1-.51-.52l.05-2.57a.52.52,0,0,1,.51-.5h0a.51.51,0,0,1,.51.52l0,2.57A.52.52,0,0,1,234.83,216.69Zm.09-5.13h0a.52.52,0,0,1-.5-.53l.05-2.56A.52.52,0,0,1,235,208h0a.52.52,0,0,1,.51.53l-.05,2.56A.53.53,0,0,1,234.92,211.56Zm.1-5.14h0a.51.51,0,0,1-.5-.52l.05-2.57a.51.51,0,1,1,1,0l0,2.57A.52.52,0,0,1,235,206.42Zm.1-5.13h0a.51.51,0,0,1-.5-.52l0-2.57a.51.51,0,0,1,.52-.5.51.51,0,0,1,.5.52l-.05,2.57A.5.5,0,0,1,235.12,201.29Zm.1-5.13h0a.51.51,0,0,1-.5-.52l0-2.57a.5.5,0,0,1,.51-.5h0a.51.51,0,0,1,.5.52l-.05,2.56A.51.51,0,0,1,235.22,196.16Zm218.05-1.84a.51.51,0,0,1-.51-.51l0-2.57a.52.52,0,0,1,.51-.52h0a.51.51,0,0,1,.51.51l0,2.57a.51.51,0,0,1-.51.52ZM235.32,191h0a.52.52,0,0,1-.51-.53l0-2.56a.52.52,0,0,1,.53-.51.51.51,0,0,1,.5.53l0,2.56A.51.51,0,0,1,235.32,191Zm217.91-1.85a.51.51,0,0,1-.51-.51l0-2.56a.51.51,0,0,1,.51-.52.53.53,0,0,1,.52.51v2.57a.5.5,0,0,1-.5.51Zm-217.81-3.29h0a.51.51,0,0,1-.51-.52l0-2.57a.52.52,0,0,1,.52-.5h0a.52.52,0,0,1,.5.52l0,2.57A.51.51,0,0,1,235.42,185.89Zm217.77-1.84a.51.51,0,0,1-.51-.51l0-2.57a.51.51,0,0,1,.51-.51h0a.51.51,0,0,1,.52.51l0,2.56a.51.51,0,0,1-.51.52Zm-217.67-3.29h0a.52.52,0,0,1-.51-.52l.05-2.57a.51.51,0,0,1,.51-.5h0a.51.51,0,0,1,.51.52l-.05,2.57A.52.52,0,0,1,235.52,180.76Zm217.63-1.84a.51.51,0,0,1-.51-.51l0-2.57a.53.53,0,0,1,.51-.52h0a.51.51,0,0,1,.52.51l0,2.57a.52.52,0,0,1-.51.52Zm-217.54-3.29h0a.51.51,0,0,1-.5-.53l.05-2.56a.51.51,0,0,1,.51-.51h0a.52.52,0,0,1,.51.53l-.05,2.56A.53.53,0,0,1,235.61,175.63Zm217.51-1.85a.51.51,0,0,1-.52-.51l0-2.56a.51.51,0,0,1,.51-.52.52.52,0,0,1,.52.51l0,2.57a.51.51,0,0,1-.51.51Zm-217.41-3.29h0a.51.51,0,0,1-.5-.52l.05-2.56a.51.51,0,1,1,1,0l0,2.57A.52.52,0,0,1,235.71,170.49Zm217.37-1.84a.52.52,0,0,1-.52-.51l0-2.57a.51.51,0,0,1,.51-.51h0a.51.51,0,0,1,.51.51l0,2.56a.51.51,0,0,1-.51.52Zm-217.27-3.29h0a.51.51,0,0,1-.5-.52l0-2.57a.5.5,0,0,1,.52-.5.51.51,0,0,1,.5.52l-.05,2.57A.5.5,0,0,1,235.81,165.36ZM453,163.52a.53.53,0,0,1-.52-.51v-2.57a.51.51,0,0,1,.5-.52h0a.51.51,0,0,1,.51.51l0,2.57a.52.52,0,0,1-.51.52Zm-217.13-3.29h0a.51.51,0,0,1-.5-.52l0-2.57a.52.52,0,0,1,.52-.5h0a.51.51,0,0,1,.5.52l-.05,2.57A.5.5,0,0,1,235.91,160.23ZM453,158.38a.51.51,0,0,1-.51-.51l0-2.56a.5.5,0,0,1,.51-.52h0a.51.51,0,0,1,.51.51l0,2.57a.51.51,0,0,1-.51.51ZM236,155.1h0a.52.52,0,0,1-.51-.53l0-2.56a.53.53,0,0,1,.52-.51h0a.51.51,0,0,1,.5.53l0,2.56A.51.51,0,0,1,236,155.1Zm217-1.85a.51.51,0,0,1-.51-.51l0-2.57a.51.51,0,0,1,.51-.51h0a.51.51,0,0,1,.51.51l0,2.56a.5.5,0,0,1-.51.52ZM236.11,150h0a.51.51,0,0,1-.51-.52l0-2.57a.52.52,0,0,1,1,0l0,2.57A.51.51,0,0,1,236.11,150Zm216.81-1.84a.51.51,0,0,1-.51-.51l0-2.57a.51.51,0,0,1,.51-.52h0a.53.53,0,0,1,.52.51l0,2.57a.53.53,0,0,1-.51.52ZM236.2,144.83h0a.51.51,0,0,1-.5-.52l.05-2.57a.51.51,0,0,1,.51-.5h0a.51.51,0,0,1,.51.52l-.05,2.57A.52.52,0,0,1,236.2,144.83ZM452.88,143a.51.51,0,0,1-.51-.51l0-2.56a.51.51,0,0,1,.51-.52.51.51,0,0,1,.52.51l0,2.57a.51.51,0,0,1-.51.51ZM236.3,139.7h0a.51.51,0,0,1-.5-.52l.05-2.57a.5.5,0,0,1,.51-.5h0a.51.51,0,0,1,.51.52l-.05,2.56A.53.53,0,0,1,236.3,139.7Zm216.54-1.85a.51.51,0,0,1-.51-.51l0-2.57a.51.51,0,0,1,.51-.51h0a.51.51,0,0,1,.52.5l0,2.57a.51.51,0,0,1-.51.52ZM236.4,134.57h0a.51.51,0,0,1-.5-.53l.05-2.56a.51.51,0,0,1,.51-.51h0a.51.51,0,0,1,.5.53l0,2.56A.53.53,0,0,1,236.4,134.57Zm216.41-1.85a.51.51,0,0,1-.52-.51l0-2.57a.52.52,0,0,1,.51-.52h0a.51.51,0,0,1,.51.51l0,2.57a.53.53,0,0,1-.51.52ZM236.5,129.43h0a.51.51,0,0,1-.5-.52l0-2.57a.5.5,0,0,1,.51-.5h0a.51.51,0,0,1,.5.52l-.05,2.57A.5.5,0,0,1,236.5,129.43Zm216.27-1.85a.53.53,0,0,1-.52-.51l0-2.56a.51.51,0,0,1,.51-.52h0a.51.51,0,0,1,.51.51l0,2.56a.51.51,0,0,1-.51.52ZM236.6,124.3h0a.51.51,0,0,1-.5-.52l0-2.57a.52.52,0,0,1,.52-.5h0a.51.51,0,0,1,.5.52l0,2.57A.5.5,0,0,1,236.6,124.3Zm216.13-1.85a.53.53,0,0,1-.52-.51v-2.57a.51.51,0,0,1,.5-.52.53.53,0,0,1,.52.51l0,2.57a.51.51,0,0,1-.51.52Zm-216-3.28h0a.52.52,0,0,1-.51-.53l0-2.56a.52.52,0,0,1,.53-.51.51.51,0,0,1,.5.53l0,2.56A.51.51,0,0,1,236.7,119.17Zm216-1.86a.5.5,0,0,1-.51-.5l0-2.57a.5.5,0,0,1,.51-.52h0a.51.51,0,0,1,.51.51l0,2.57a.5.5,0,0,1-.51.51ZM236.8,114h0a.51.51,0,0,1-.51-.52l.05-2.57a.52.52,0,0,1,.51-.5h0a.52.52,0,0,1,.51.52l-.05,2.57A.52.52,0,0,1,236.8,114Zm215.85-1.85a.51.51,0,0,1-.51-.51l0-2.57a.51.51,0,0,1,.51-.51h0a.51.51,0,0,1,.51.51l0,2.56a.5.5,0,0,1-.51.52Zm-2.3-2.86h-2.56a.51.51,0,1,1,0-1h2.56a.51.51,0,1,1,0,1Zm-5.13,0h-2.57a.51.51,0,1,1,0-1h2.57a.51.51,0,0,1,0,1Zm-5.13,0h-2.57a.51.51,0,1,1,0-1h2.57a.51.51,0,0,1,0,1Zm-5.14,0h-2.56a.51.51,0,1,1,0-1H435a.51.51,0,1,1,0,1Zm-5.13,0h-2.57a.51.51,0,1,1,0-1h2.57a.51.51,0,0,1,0,1Zm-5.13,0h-2.57a.51.51,0,1,1,0-1h2.57a.51.51,0,0,1,0,1Zm-5.14,0H417a.51.51,0,1,1,0-1h2.56a.51.51,0,1,1,0,1Zm-5.13,0h-2.57a.51.51,0,0,1,0-1h2.57a.51.51,0,0,1,0,1Zm-5.14,0h-2.56a.51.51,0,1,1,0-1h2.56a.51.51,0,1,1,0,1Zm-5.13,0h-2.57a.51.51,0,1,1,0-1h2.57a.51.51,0,1,1,0,1Zm-5.13,0h-2.57a.51.51,0,1,1,0-1H399a.51.51,0,0,1,0,1Zm-5.14,0h-2.56a.51.51,0,1,1,0-1h2.56a.51.51,0,1,1,0,1Zm-5.13,0h-2.57a.51.51,0,1,1,0-1h2.57a.51.51,0,0,1,0,1Zm-5.13,0h-2.57a.51.51,0,1,1,0-1h2.57a.51.51,0,0,1,0,1Zm-5.14,0h-2.56a.51.51,0,1,1,0-1h2.56a.51.51,0,1,1,0,1Zm-5.13,0h-2.57a.51.51,0,1,1,0-1h2.57a.51.51,0,0,1,0,1Zm-5.13,0h-2.57a.51.51,0,0,1,0-1h2.57a.51.51,0,0,1,0,1Zm-5.14,0h-2.57a.51.51,0,0,1,0-1h2.57a.51.51,0,1,1,0,1Zm-5.13,0h-2.57a.51.51,0,0,1,0-1H358a.51.51,0,0,1,0,1Zm-5.14,0h-2.56a.51.51,0,1,1,0-1h2.56a.51.51,0,1,1,0,1Zm-5.13,0h-2.57a.51.51,0,0,1,0-1h2.57a.51.51,0,0,1,0,1Zm-5.13,0H340a.51.51,0,0,1,0-1h2.57a.51.51,0,0,1,0,1Zm-5.14,0h-2.56a.51.51,0,1,1,0-1h2.56a.51.51,0,1,1,0,1Zm-5.13,0h-2.57a.51.51,0,0,1,0-1h2.57a.51.51,0,1,1,0,1Zm-5.13,0h-2.57a.51.51,0,0,1,0-1h2.57a.51.51,0,1,1,0,1Zm-5.14,0h-2.56a.51.51,0,1,1,0-1H322a.51.51,0,1,1,0,1Zm-5.13,0h-2.57a.51.51,0,0,1,0-1h2.57a.51.51,0,0,1,0,1Zm-5.14,0h-2.56a.51.51,0,1,1,0-1h2.56a.51.51,0,1,1,0,1Zm-5.13,0H304a.51.51,0,1,1,0-1h2.57a.51.51,0,0,1,0,1Zm-5.13,0h-2.57a.51.51,0,1,1,0-1h2.57a.51.51,0,0,1,0,1Zm-5.14,0h-2.56a.51.51,0,1,1,0-1h2.56a.51.51,0,1,1,0,1Zm-5.13,0h-2.57a.51.51,0,0,1,0-1h2.57a.51.51,0,1,1,0,1Zm-5.13,0h-2.57a.51.51,0,0,1,0-1h2.57a.51.51,0,0,1,0,1Zm-5.14,0h-2.56a.51.51,0,1,1,0-1h2.56a.51.51,0,1,1,0,1Zm-5.13,0h-2.57a.51.51,0,0,1,0-1h2.57a.51.51,0,0,1,0,1Zm-5.13,0h-2.57a.51.51,0,0,1,0-1h2.57a.51.51,0,0,1,0,1Zm-5.14,0H263a.51.51,0,1,1,0-1h2.57a.51.51,0,1,1,0,1Zm-5.13,0h-2.57a.51.51,0,0,1,0-1h2.57a.51.51,0,0,1,0,1Zm-5.14,0h-2.56a.51.51,0,1,1,0-1h2.56a.51.51,0,1,1,0,1Zm-5.13,0h-2.57a.51.51,0,0,1,0-1h2.57a.51.51,0,1,1,0,1Zm-5.13,0h-2.57a.51.51,0,0,1,0-1H245a.51.51,0,1,1,0,1Zm-5.14,0h-2.56a.51.51,0,1,1,0-1h2.56a.51.51,0,1,1,0,1Z" transform="translate(-6.32 -61.31)"/><path class="cls-3" d="M124.63,208.53H96a3,3,0,0,1-3-3L90.35,79.78a3,3,0,0,1,3.25-3.09L124.85,79a3,3,0,0,1,2.81,3V205.49A3,3,0,0,1,124.63,208.53Z" transform="translate(-6.32 -61.31)"/><path class="cls-2" d="M97.4,128l.62,14.9a2.64,2.64,0,0,0,2.6,2.53l20,.28a2.64,2.64,0,0,0,2.68-2.64V128.14a2.65,2.65,0,0,0-2.6-2.65l-20.65-.28A2.63,2.63,0,0,0,97.4,128Z" transform="translate(-6.32 -61.31)"/><path class="cls-113" d="M120.72,147.94,101,147.66a2.65,2.65,0,0,0-2.68,2.76l.62,14.9a2.65,2.65,0,0,0,2.61,2.53l19.08.27a2.64,2.64,0,0,0,2.68-2.65V150.58A2.64,2.64,0,0,0,120.72,147.94Z" transform="translate(-6.32 -61.31)"/><path class="cls-5" d="M123.32,98.14V86.93a2.64,2.64,0,0,0-2.3-2.62L98.55,81.39a2.63,2.63,0,0,0-3,2.73l.57,13.82a2.65,2.65,0,0,0,2.61,2.54l21.89.3A2.63,2.63,0,0,0,123.32,98.14Z" transform="translate(-6.32 -61.31)"/><path class="cls-4" d="M96.46,105.5l.62,14.9a2.65,2.65,0,0,0,2.61,2.54l21,.29a2.64,2.64,0,0,0,2.68-2.65V105.7a2.64,2.64,0,0,0-2.6-2.65l-21.58-.3A2.65,2.65,0,0,0,96.46,105.5Z" transform="translate(-6.32 -61.31)"/><path class="cls-114" d="M99.27,172.87l.45,10.84a2.65,2.65,0,0,0,2.64,2.54h18.32a2.64,2.64,0,0,0,2.64-2.65V173a2.64,2.64,0,0,0-2.6-2.65L102,170.12A2.65,2.65,0,0,0,99.27,172.87Z" transform="translate(-6.32 -61.31)"/><path class="cls-3" d="M126.73,206.87,100,217.2a3,3,0,0,1-3.89-1.68L48.36,99.13a3,3,0,0,1,1.92-4l30-9.16A3,3,0,0,1,84,87.72L128.47,203A3,3,0,0,1,126.73,206.87Z" transform="translate(-6.32 -61.31)"/><g class="cls-115"><path class="cls-116" d="M72.29,141.53l5.95,13.67a2.65,2.65,0,0,0,3.35,1.43l18.77-7a2.64,2.64,0,0,0,1.55-3.43l-5.37-13.89a2.63,2.63,0,0,0-3.38-1.52L73.8,138A2.65,2.65,0,0,0,72.29,141.53Z" transform="translate(-6.32 -61.31)"/><path class="cls-117" d="M101.25,151.76l-18.48,6.85a2.64,2.64,0,0,0-1.51,3.53l5.95,13.67a2.64,2.64,0,0,0,3.34,1.43l17.9-6.63a2.65,2.65,0,0,0,1.55-3.43l-5.37-13.89A2.64,2.64,0,0,0,101.25,151.76Z" transform="translate(-6.32 -61.31)"/><path class="cls-118" d="M85.73,104.37l-4-10.46A2.63,2.63,0,0,0,78.6,92.3l-22,5.37a2.64,2.64,0,0,0-1.8,3.62L60.31,114a2.64,2.64,0,0,0,3.34,1.43l20.53-7.61A2.64,2.64,0,0,0,85.73,104.37Z" transform="translate(-6.32 -61.31)"/><path class="cls-119" d="M63.33,120.92l6,13.67A2.64,2.64,0,0,0,72.62,136l19.65-7.28a2.64,2.64,0,0,0,1.55-3.43l-5.37-13.89a2.64,2.64,0,0,0-3.38-1.53l-20.24,7.5A2.63,2.63,0,0,0,63.33,120.92Z" transform="translate(-6.32 -61.31)"/><path class="cls-120" d="M90.23,182.75l4.33,9.95a2.63,2.63,0,0,0,3.37,1.41l17.09-6.6a2.64,2.64,0,0,0,1.51-3.42l-3.81-9.87a2.65,2.65,0,0,0-3.38-1.52l-17.61,6.52A2.63,2.63,0,0,0,90.23,182.75Z" transform="translate(-6.32 -61.31)"/></g><path class="cls-3" d="M128.4,203.9l-18.31,22a3,3,0,0,1-4.23.44L7.46,148a3,3,0,0,1-.29-4.48l21.7-22.59A3,3,0,0,1,33,120.7l95,78.93A3,3,0,0,1,128.4,203.9Z" transform="translate(-6.32 -61.31)"/><path class="cls-121" d="M49,173.36l11.85,9A2.65,2.65,0,0,0,64.5,182l13-15.22a2.65,2.65,0,0,0-.32-3.75l-11.46-9.52a2.65,2.65,0,0,0-3.7.32L48.62,169.54A2.64,2.64,0,0,0,49,173.36Z" transform="translate(-6.32 -61.31)"/><path class="cls-122" d="M79.3,168.19l-12.81,15A2.65,2.65,0,0,0,66.9,187l11.86,9a2.64,2.64,0,0,0,3.61-.39l12.4-14.51a2.64,2.64,0,0,0-.32-3.75L83,167.88A2.64,2.64,0,0,0,79.3,168.19Z" transform="translate(-6.32 -61.31)"/><path class="cls-123" d="M42.66,134.37,34,127.2a2.64,2.64,0,0,0-3.49.1l-16.6,15.42a2.65,2.65,0,0,0,.19,4l11,8.39a2.64,2.64,0,0,0,3.61-.39L43,138.12A2.64,2.64,0,0,0,42.66,134.37Z" transform="translate(-6.32 -61.31)"/><path class="cls-124" d="M31.15,159.74l11.86,9a2.65,2.65,0,0,0,3.62-.39l13.61-15.93a2.64,2.64,0,0,0-.32-3.75l-11.45-9.52a2.65,2.65,0,0,0-3.7.32l-14,16.4A2.66,2.66,0,0,0,31.15,159.74Z" transform="translate(-6.32 -61.31)"/><path class="cls-125" d="M84.77,200.62l8.63,6.58a2.65,2.65,0,0,0,3.64-.41l11.7-14.09a2.64,2.64,0,0,0-.34-3.72l-8.14-6.76a2.64,2.64,0,0,0-3.7.31L84.37,196.8A2.65,2.65,0,0,0,84.77,200.62Z" transform="translate(-6.32 -61.31)"/><path class="cls-126" d="M331.85,134.78a14,14,0,0,1,8.56,2.9l5-7.09a22.35,22.35,0,0,0-13.09-4.22c-.65,0-1.3,0-1.94.1l1.28,8.31Z" transform="translate(-6.32 -61.31)"/><path class="cls-127" d="M331.85,162.9c-7.77,0-15.65-5.78-15.65-13.55s7.77-14.47,15.47-14.57l-1.28-8.31c-11.75,1-23.07,11.42-23.07,23.18,0,12.41,12.6,21.66,25,21.66a22.43,22.43,0,0,0,9.13-1.94l-5-7.23A14,14,0,0,1,331.85,162.9Z" transform="translate(-6.32 -61.31)"/><path class="cls-128" d="M354.79,148.84a22.41,22.41,0,0,0-9.37-18.25l-5,7.09a14.07,14.07,0,0,1-4,24.46l5,7.23A22.49,22.49,0,0,0,354.79,148.84Z" transform="translate(-6.32 -61.31)"/><path class="cls-5" d="M396,134.78a14.06,14.06,0,0,1,12.59,7.8l5.79-7.3a22.42,22.42,0,0,0-17.91-8.91,25.9,25.9,0,0,0-16.07,6.06l5.13,6.48A16.32,16.32,0,0,1,396,134.78Z" transform="translate(-6.32 -61.31)"/><path class="cls-4" d="M380.31,149.35a14.15,14.15,0,0,1,5.19-10.44l-5.13-6.48c-5.29,4.33-8.94,10.55-8.94,17.22,0,12.26,12.29,21.41,24.54,21.64l-.39-8.4C387.94,162.7,380.31,157,380.31,149.35Z" transform="translate(-6.32 -61.31)"/><path class="cls-2" d="M396,162.9h-.39l.39,8.4.47,0a22.45,22.45,0,0,0,20-12.22c-2.15-1-5.34-2.36-8.1-3.55A14.06,14.06,0,0,1,396,162.9Z" transform="translate(-6.32 -61.31)"/><path class="cls-4" d="M414.35,135.28l-5.79,7.3a14.06,14.06,0,0,1-.23,13c2.76,1.19,5.95,2.58,8.1,3.55a22.43,22.43,0,0,0-2.08-23.81Z" transform="translate(-6.32 -61.31)"/><path class="cls-5" d="M460.08,134.78a14,14,0,0,1,8.07,2.54l4.53-7.39a22.34,22.34,0,0,0-12.12-3.56A26,26,0,0,0,444,132.82l5.38,6.28A16.37,16.37,0,0,1,460.08,134.78Z" transform="translate(-6.32 -61.31)"/><path class="cls-129" d="M474.12,148l8.75-1.77a22.44,22.44,0,0,0-10.19-16.33l-4.53,7.39A14.07,14.07,0,0,1,474.12,148Z" transform="translate(-6.32 -61.31)"/><path class="cls-4" d="M444.43,149.35a14,14,0,0,1,5-10.25L444,132.82c-5,4.31-8.47,10.36-8.47,16.83,0,8,5.29,14.75,12.39,18.48l4.39-7.14C447.81,158.67,444.43,154.44,444.43,149.35Z" transform="translate(-6.32 -61.31)"/><path class="cls-130" d="M474.12,148c0,.27,0,.54,0,.81a14.05,14.05,0,0,1-14.06,14.06,17.14,17.14,0,0,1-7.75-1.91l-4.39,7.14a27.37,27.37,0,0,0,12.62,3.18A22.46,22.46,0,0,0,483,148.84a22.06,22.06,0,0,0-.15-2.58Z" transform="translate(-6.32 -61.31)"/><path class="cls-2" d="M351.13,73.06l-83.94-.47a4.41,4.41,0,0,0-3.81,6.67l.42.71a4.43,4.43,0,0,0,3.78,2.14h83.53a4.41,4.41,0,0,0,4.4-4.41v-.24A4.4,4.4,0,0,0,351.13,73.06Z" transform="translate(-6.32 -61.31)"/><path class="cls-2" d="M362.86,77.56v.14a4.41,4.41,0,0,0,4.41,4.41H385.9a4.42,4.42,0,0,0,4.26-3.27h0a4.41,4.41,0,0,0-4.23-5.55l-18.63-.13A4.4,4.4,0,0,0,362.86,77.56Z" transform="translate(-6.32 -61.31)"/><path class="cls-2" d="M330.94,88.88l-63.75-.47a4.41,4.41,0,0,0-3.81,6.67l.42.7a4.41,4.41,0,0,0,3.78,2.14h63.33a4.4,4.4,0,0,0,4.41-4.4v-.24A4.4,4.4,0,0,0,330.94,88.88Z" transform="translate(-6.32 -61.31)"/><path class="cls-2" d="M342.67,93.38v.14a4.4,4.4,0,0,0,4.4,4.4h18.64A4.4,4.4,0,0,0,370,94.65h0a4.4,4.4,0,0,0-4.22-5.54L347.1,89A4.41,4.41,0,0,0,342.67,93.38Z" transform="translate(-6.32 -61.31)"/><path class="cls-4" d="M227.51,115.22a1.35,1.35,0,0,0-.94.37L208,133.15a8.59,8.59,0,0,1-5.94,2.37H139a1.37,1.37,0,0,0,0,2.73h63.1a11.33,11.33,0,0,0,7.82-3.12l18.54-17.56a1.36,1.36,0,0,0-.94-2.35Z" transform="translate(-6.32 -61.31)"/><path class="cls-4" d="M192.4,144H139a1.37,1.37,0,0,0,0,2.73H192.4a1.37,1.37,0,1,0,0-2.73Z" transform="translate(-6.32 -61.31)"/><path class="cls-4" d="M183.71,152.45H139a1.37,1.37,0,0,0,0,2.73h44.72a1.37,1.37,0,1,0,0-2.73Z" transform="translate(-6.32 -61.31)"/></svg>