<svg id="Layer_2" data-name="Layer 2" xmlns="http://www.w3.org/2000/svg" xmlns:xlink="http://www.w3.org/1999/xlink" viewBox="0 0 100 100"><defs><style>.cls-1{fill:url(#linear-gradient);}</style><linearGradient id="linear-gradient" x1="21" y1="17.16" x2="89.32" y2="94.52" gradientUnits="userSpaceOnUse"><stop offset="0" stop-color="#0071bc"/><stop offset="1" stop-color="#1b1464"/></linearGradient></defs><path class="cls-1" d="M85,100H15A15,15,0,0,1,0,85V15A15,15,0,0,1,15,0H85a15,15,0,0,1,15,15V85A15,15,0,0,1,85,100ZM51.09,73.45H63.35V26.55H50.15L41.44,45.18h-.27l-8.9-18.63H18.46v46.9H30.52V63.67c0-11.12-.13-16.82-.13-16.89h.27c.07.07,2,4.76,3.55,8.38l3.08,7.17h7.1l3.08-7.24C49,51.54,51,46.85,51,46.78h.21c0,.07-.14,5.77-.14,16.89Zm18.18,0H81.54V26.55H69.27Z"/></svg>